<svg id="Layer_1" data-name="Layer 1" xmlns="http://www.w3.org/2000/svg" viewBox="0 0 1140 538"><defs><style>.cls-1{fill:#464542;}.cls-2{fill:#f08023;}</style></defs><path class="cls-1" d="M226.39,352.38l.21.18.28-.35Zm32.54-20.29c-.33.16-.63.36-1.05.6-.06-.6-.11-1.05-.16-1.55l-.68.14c-.5-.41-.88-.68-1.21-1a1.45,1.45,0,0,1-.41-.68c-.13-.58-.2-1.17-.33-2l.42-.3-1.65-.27a15.43,15.43,0,0,1,1.27-1.67,1.86,1.86,0,0,0-.71-3.25c-.48-.14-1.07.1-1.58,0a3.59,3.59,0,0,1-1.29-.59c-.11-.08-.1-.47,0-.67.2-.57.47-1.12.74-1.75l1.62-.63a3.13,3.13,0,0,1-.3-.86c.07-1.35-.82-2-2-1.48a2.21,2.21,0,0,1-1.89.23c-.53-.2-1.88-.23-1.71.53.2.92-1.06,1.68-.1,2.49-.13.16-.24.4-.4.44a5.9,5.9,0,0,1-1.11.13c0-.08-.07-.21-.12-.22a3,3,0,0,1-2.4-3.56l-.7.13,0-.12,1.2-.62a2.89,2.89,0,0,0-2.89.74c-.35.47-.77.81-1.34.24a1.37,1.37,0,0,0-2.29.1c-.61.94-1.82,1.23-2.25,2.35-.15.42-.63.72-.92,1-.65,0-1.36,0-2.05,0s-1.23,1.08-2.16.7c0,0-.16.25-.26.35-.89.82-1.69,1.82-3.06,1.84.14,1.17.14,1.14-1,1.23a1.84,1.84,0,0,0-1.08.5c-.1.1.13.62.29.89s.53.56.73.88a1.6,1.6,0,0,1,.21.78c0,.08-.33.28-.4.24a2.9,2.9,0,0,1-.57-.54.17.17,0,0,1,0-.11,5.72,5.72,0,0,1-.83,0c-.31,0-.61-.21-.92-.23-.47,0-1,0-1.48,0-.11-1.37-1.08-1.33-2.13-1.24a1,1,0,0,1-.48-.12c.3.34.59.69.87,1,.73,0,.94.31.9,1.06a.49.49,0,0,0,0,.17,27.56,27.56,0,0,1,2.14,3.64,1.42,1.42,0,0,0,1.93-.83c.63,1.29-.18,2.24-.25,3.44l-.55-.8v.81a27.59,27.59,0,0,1,1,3.28.07.07,0,0,1,0-.05c.8,1.31,1.57,2.57,2.29,3.73-.5,0-1.12-.1-1.47.14a.93.93,0,0,0-.21.23c.06.64.09,1.28.09,1.93a3.66,3.66,0,0,1,1.17-1c-.16,1.08-.31,2.05-.49,3.26a6.78,6.78,0,0,0,1.28-.44.66.66,0,0,1,1.08.35c.2.77.83,1.59,0,2.4-.23.22-.17.74-.26,1.19l1.78-.43c-.66.7-1.47,1.21-2.13,1.89a17.22,17.22,0,0,0-1.55,1.93l.45-.17.1.2-2.09,1.34a5.54,5.54,0,0,0,3.3-1.78A5.06,5.06,0,0,1,231,350c1.52-.33,2.34-1.6,3.62-2.22.89-.43,1.62-1,2.61-.5s2.11,1.16,3.14,1.81a4.69,4.69,0,0,0,3.42.27,9.51,9.51,0,0,1,4.08-1.24,2.7,2.7,0,0,0,2.58-1.78,1.18,1.18,0,0,1,.26-.51c.77-.71,1.56-1.42,2.35-2.11a7.71,7.71,0,0,0,1.48-1.28c.8-1.26,1.46-2.61,2.33-4.2l-1.65.83a12.42,12.42,0,0,1,.89-2.63c.37-.63.55-1.09.13-1.73s-.14-1,.52-1.21l.71-.23-.87-.17c0-.3.06-.54.1-.87-.46.46-.85.83-1.23,1.2a3.55,3.55,0,0,1-.31-.23c.23-.69.47-1.38.69-2.06l1.36.6c.13.35.18.94.46,1.07s.82-.07,1.2-.24a6.75,6.75,0,0,0,1.07-.73A2,2,0,0,0,258.93,332.09Zm-35.09-2.17c-.47,0-1.22.53-1.41-.61-.1-.65-.78-1.2-1.2-1.79l.21-.23H223c.19.41.38.85.57,1.28l.28-.14-.39-.73.29-.18c.35.58.71,1.14,1.05,1.72C224.49,329.48,224.17,329.92,223.84,329.92Zm1.73-.82c-.28.53-.45.38-.74.15v0h0c.06-.48.11-1,.19-1.6C225.56,328.12,225.93,328.38,225.57,329.1Zm27.64-11.69-1.49,1.11c-.15-.25-.27-.46-.4-.66C251.87,317.46,252.3,316.71,253.21,317.41Zm-3.42-.26.07.18-1.41.51c-.11-.33-.2-.61-.37-1.1ZM246.31,320c.31.45.62.89.92,1.34l-.29.23-1.57-1.21ZM243,318.81a.34.34,0,0,1,.32-.05c.49.64,1,1.3,1.54,2.11-1.47,0-1.54-1-1.92-1.65A.47.47,0,0,1,243,318.81Zm-.43-2.61a9.89,9.89,0,0,1,.32,1.84c0,.18-.45.37-.8.62.35.86.56,2,1.78,2.63l-2.4-.38s0,.21,0,.42l-1.12.23C241.08,319.9,240.87,317.87,242.52,316.2Zm-1.89,1.44a5,5,0,0,0-.55,1,3.71,3.71,0,0,0-.09,1.05,2.65,2.65,0,0,1-1-.21,4,4,0,0,1-.68-.87c-.2-.24-.43-.47-.69-.76C238.47,316.71,238.63,316.5,240.63,317.64Zm-3.62,1,1,.68-1.6.5-.12-.25Zm-6.35,6c1.9-.12,3.27-1.5,5.09-1.58.75,0,1.49,0,2.24,0v.5c-.26,0-.51,0-.76-.05s-.78-.3-1.07-.19a46.07,46.07,0,0,0-4.25,1.88c-1.25.66-1.4,1.15-1.15,2.64L229,328C228.61,326.38,229.19,324.78,230.66,324.69Zm-.29,20.57c-.23-.78-.43-1.57-1.48-1.59-.1,0-.22-.52-.29-.81s-.17-.84-.28-1.46l3.58,3.45Zm1,4.07-.29-.14c.16-.69.31-1.38.42-1.84l1.75.36Zm4.18-3.37-2.45.49c-.22-.49-.5-1.1-.79-1.72l.29-.19,3,1.24A1,1,0,0,1,235.57,346Zm7.41,2.48c-.91.33-1.46-.31-2.13-.67a10.74,10.74,0,0,0-1.37-.52v-.12l5.31.62c0,.07,0,.14,0,.21C244.22,348.12,243.58,348.22,243,348.44Zm6.27-6.52c-.45,1.22-.92,2.42-1.44,3.61a.93.93,0,0,1-.66.51c-1.75-.06-3.5-.15-5.24-.31a22.44,22.44,0,0,1-6.36-1.8c-3.23-1.28-6.09-3.14-7.83-6.17s-1.66-5.72,1.15-8.05a4.72,4.72,0,0,1,4.67-.66c.6.19,1.18.44,1.78.64a4.94,4.94,0,0,0,.68.16,31.25,31.25,0,0,1,2-4.34c1.43-2.22,5-3.61,7.65-2.13a9.16,9.16,0,0,1,4.1,5.23C251.31,333.1,250.85,337.54,249.25,341.92Zm-2.12-19.59c.06-.15.11-.31.17-.47l1.75.27-1-1.17,1.39-1.06c-.18-.33-1.34-.55-.44-1.47l.8,1.44.25-.12a2.3,2.3,0,0,1,0-.95c.13-.25.51-.38.77-.56a2.29,2.29,0,0,1,.17.78c-.1.63-.27,1.24-.42,1.93l-.59-.32c.1.33.22.71.3,1.09a3,3,0,0,0,2.63,2.16,3.16,3.16,0,0,0,.87-.36l.69.86c-.61.18-1.13.31-1.42.39-.19.87-.39,1.73-.59,2.59h-.24c0-1-.19-1.86-1.4-2.16l.21-.19,1.13.08Zm4.06,22.09c.52-.94.7-2.11,1.89-2.84C253.4,343.39,251.77,343.52,251.19,344.42Zm2.39-2,.17-1.29,1.27.48Zm1.72-6.93-1.16,2.07a.13.13,0,0,0,0,.06h0l-.33,2.65-.16,0c-.09-.4-.06-.91-.3-1.16s-.76-.23-1.32-.37c.25-1.12.53-2.34.81-3.57l.18.06c0-.76,0-1.52,0-2.27,0-1.1-.18-2.21-.14-3.3,0-.31.48-.61.74-.92.25.3.67.56.73.89a21.36,21.36,0,0,1,.21,2.66l-.44.07c-.2-.83-.41-1.65-.62-2.48l-.27.09c.48,1.61,1,3.23,1.49,5-1.16.39-1.05,1.79-1.54,2.9.36-.06.67-.13,1-.19,0,0,0,0,0,0l0,0C253.87,336.34,254.16,335.78,255.3,335.49Z"/><path class="cls-1" d="M262.67,338.85a.78.78,0,0,0-.45-.27c-.38-.09-.77-.14-.91-.16a12.63,12.63,0,0,0-1.24.81,9.85,9.85,0,0,0-.85.86c-.53.53-1.06,1.06-1.56,1.59a6,6,0,0,0-1,1.18c-.56,1.08-1,2.2-1.6,3.45.09,0,.43.2.56.1.86-.64,1.7-1.33,2.51-2,.23-.21.3-.6.54-.78a5.78,5.78,0,0,0,2.4-2.85c0-.13.23-.2.35-.3.42-.36.86-.69,1.26-1.08C262.75,339.28,262.74,339,262.67,338.85Zm-2.85,2.35c-.45-.6-.4-.63.67-1.57a2,2,0,0,1,1.71-.42Z"/><path class="cls-1" d="M264.16,340.27c0,1-1.37,2.26-2.11,2.16a.74.74,0,0,1-.48-.53c0-.46,1.49-2.14,2-2.11C263.8,339.81,264,340.17,264.16,340.27Z"/><path class="cls-1" d="M249.93,332.77a13.69,13.69,0,0,0-2.3-6.82,5.26,5.26,0,0,0-5.83-2.4,6.06,6.06,0,0,0-4.59,3.86c-.08.26.09.61.14.92a6.07,6.07,0,0,0,.67-.54,11.37,11.37,0,0,1,1.85-2c2.35-1.54,5-1.21,6.4,1.22,2.39,4.1,2.82,8.55,2.2,13.15-.07.51-.26.93.58,1.12A22.67,22.67,0,0,0,249.93,332.77Zm-.67,1.26c-.27-1.21-.59-2.41-.8-3.62-.32-1.84-1.42-3.27-2.36-4.79a5.38,5.38,0,0,0-4.09-1.35,3.74,3.74,0,0,1,4.23,1.17,8.57,8.57,0,0,1,2.63,4.74,28.21,28.21,0,0,1,.48,3.21A1.11,1.11,0,0,1,249.26,334Z"/><path class="cls-2" d="M225.18,326.84h0S225.18,326.82,225.18,326.84Zm.59,14.72a3.23,3.23,0,0,1-.29.66c-.46.75-1,1.47-1.47,2.22-.75,1.18-1.47,2.38-2.23,3.55a2.74,2.74,0,0,1-.73.55l-.2-.3,2.54-3.58-.25-.17c-.18.29-.37.59-.56.91l-1.11-.17a23,23,0,0,1,2.44-4.44,4.89,4.89,0,0,0,1-2,25.31,25.31,0,0,1-.6-3.72c-.93-1.31-.59-3.17-2.34-4.15.82-.05,1.61.46,2.3.25,0-.55.09-1.09.16-1.63a1,1,0,0,1-.59.35c-.46,0-1.22.53-1.4-.62-.11-.64-.79-1.19-1.21-1.78l.21-.23h1.57c.18.41.38.84.58,1.27l.26-.13c-.12-.25-.25-.49-.38-.73l.29-.18.78,1.28c.11-.66.24-1.31.4-1.95a4.34,4.34,0,0,1-.63,0,9.36,9.36,0,0,0-.91-.24c-.47,0-.94,0-1.48,0-.11-1.36-1.08-1.32-2.14-1.23A1.36,1.36,0,0,1,219,325a8.29,8.29,0,0,1-.75-1c-.74-.91-2.31-.94-2.65,0s-.79.76-1.4.65l.32-.88-2.17.23c.25.73,1.54.92,1.12,2.09-1.37,0-2.75-.08-4.12,0-1.65.13-3.32.31-4.44,1.83s-1,1.6.6,2c0,0,0,0,.07.11-1.26.28-2.68-.23-3.77.76.61,0,1.2-.08,1.79-.11a6.25,6.25,0,0,1,6.17,2.88c.47.75.94.43,1.4,0s1.05-1,1.57-1.44l.17.16-1.14,1.38.17.24a8.38,8.38,0,0,0,.87-.18c.72-.22,1.42-.55,2.16-.71a3.82,3.82,0,0,1,4.69,2.31,9.08,9.08,0,0,1,.06,6c-.66,1.94-1.67,3.76-2.51,5.63a3,3,0,0,0-.16.72l1.29.18c-1,.87-1.68,1.62-2.49,2.27-1.41,1.13-2.89,2.18-4.33,3.27-1,.79-1.64.84-2.5.13-1.74-1.46-3.52-2.88-5.17-4.43-.93-.87-2.25-1.48-2.51-3,0-.09-.2-.14-.3-.22a4.55,4.55,0,0,1-.94-.85c-.38-.58-.62-1.24-1-1.85a10.74,10.74,0,0,1-1.76-5.82,8.33,8.33,0,0,1,1.65-4.9,5,5,0,0,0-1.22,1.4,14.71,14.71,0,0,0-.73,1.75l-.41-.78a2.33,2.33,0,0,0-.64.35,16.15,16.15,0,0,0-1.86,2.11,8.57,8.57,0,0,1-3,2.7,1.23,1.23,0,0,0-.47,1,5.84,5.84,0,0,0,.56,1.42c.38-.49.76-1.08.08-1.68a11.05,11.05,0,0,0,2.28-1.74,5.3,5.3,0,0,1,2.36-1.46c.1.54.2,1,.26,1.47a2.62,2.62,0,0,1,.06,1c-.33,1.16-.73,2.31-.05,3.48l-.78.23,1.14,1.14c-.44.18-1.08.4-1.68.71-.23.12-.53.51-.47.68a1.27,1.27,0,0,0,.69.79,3.2,3.2,0,0,0,2.74-.46,2,2,0,0,1,.8-.15c0,.31-.07.64-.13,1,0,.15-.22.29-.2.42a6,6,0,0,1-.77,3.54,2,2,0,0,0,0,.73h.25c.55-1.64,2.26-2.94,1.3-5.24a15,15,0,0,1,1.81,1.15c1.31,1.16,2.56,2.37,3.79,3.52-1.23-.06-1.38,0-1.25.7,1.42-.57,2.1.47,3.06,1.22s1.92,1.43,2,2.76c0-.5.09-1,.13-1.55,1.4.91,1.63.89,2.94-.13.94-.73,1.9-1.42,2.86-2.12l.2.19c-.37.45-.74.9-1.12,1.34l-1.62,1.86.2.17.64-.84.31.61a59.68,59.68,0,0,1,6-6.59c.23.77.36,1.2.52,1.75a10.67,10.67,0,0,0,2.85-3c.33-.47.79-.87,1.16-1.32a21.17,21.17,0,0,0,1.45-1.83,12.5,12.5,0,0,1,1.28-1.94C226.09,342.4,225.92,342,225.77,341.56Zm-30.44,4.59,1.7-.75.77.75Zm3.31-1.63c-.41-.81-.81-1.62-1.21-2.44l.33-.16c.38.82.75,1.65,1.12,2.47Zm10.7-14.64c0-.1.06-.19.08-.28h1.79c.12.39.24.83.45,1.55Zm5.72-.19c-.18,0-.28,0-.3,0-1-1.6-2.75-1.45-4.27-1.54a4.69,4.69,0,0,0-2.77.79,2.21,2.21,0,0,1-2.24.46,3.08,3.08,0,0,0-.75-.07,2.6,2.6,0,0,1,2.07-2.22,10.28,10.28,0,0,1,2,.31c1.61.25,3.23.43,4.82.75C214.39,328.29,215.25,328.54,215.06,329.69Zm1.23-4.84c-.08.24-.19.56-.32,1h-1c.3-.74.7-1.38,1.39-1.42a1.71,1.71,0,0,1,1.39.69,2.13,2.13,0,0,0,2.22,1.19c.94-.06,1.19.22,1.15,1a5.15,5.15,0,0,0,.06.79l-1-.52c.1.63.09,1.19.87,1.4.21.05.3.59.44.91l-.91-.16c-.61-.13-1.23-.26-1.84-.41-1.14-.27-1.51-1-.82-2.25-.44.21-.65.31-1,.45-.1-.33-.19-.64-.34-1.16l1,.54.12-.11C217.27,326.2,216.81,325.58,216.29,324.85Zm3.86,9c-.53-1.52-2-1.93-3.44-2.18a3.87,3.87,0,0,1,4.59,2.85c.56,2.13.45,5.05-.28,6.4a23.34,23.34,0,0,0,0-3A20,20,0,0,0,220.15,333.9Z"/><path class="cls-2" d="M194.56,354.77l.51.16,2-2.62.33.22-1.71,2.75.74.62c-.82,1-1.31-.44-2.07,0Z"/><path class="cls-2" d="M201.61,355.86l-.35-.68a15.08,15.08,0,0,1,1.29-2.1,1.2,1.2,0,0,1,1.76-.11,2.27,2.27,0,0,0-1.86,1.94C202.34,355.3,201.85,355.6,201.61,355.86Z"/><path class="cls-2" d="M194,343.59c-.41,1-1.29.18-1.91.46a8.13,8.13,0,0,1-2.1.48c1.28-.39,2.34-1.5,3.87-1.09C193.89,343.45,193.92,343.52,194,343.59Z"/><path class="cls-2" d="M207.7,357.61a6.7,6.7,0,0,1-.63-1c-.26-.54-.46-1.11-.66-1.61.36,0,1,0,.92.94,0,.12.32.22.38.38a8.7,8.7,0,0,1,.35,1.13Z"/><path class="cls-2" d="M195.43,358.23l2-1.11.16.28-2,1.06Z"/><path class="cls-1" d="M251.56,230.32l.65-1.4c-2.84.45-3.53,4.5-6.81,3.41l-3.54,3.86-.26-.24,1.1-2.54-.44-.37c-.91.54-2.65,0-2.3,2.22a1.27,1.27,0,0,1-.32.9c-1.29,1.24-2.61,2.44-3.92,3.65a57.6,57.6,0,0,0-5.63,5.4c-.61.75-.4,2.4-.15,3.56.37,1.8,1.13,3.52,1.66,5.29.61,2.06,1,4.18,1.8,6.18a5.24,5.24,0,0,0,2.17,2.1c.49-2.83-.48-5.11-1.8-7.45l5.69,2.08-3.09-4.56,1.3-.55-.68-1.58.39-.23c.74,1.4,1.57,2.76,2.17,4.22s1.24,2.5,3.35,1.57L240,258.57l-3.35-1.79v7.45a6.78,6.78,0,0,1-.87-.28l-2.24-1.28a12.75,12.75,0,0,0-.2,2.67,6.35,6.35,0,0,1-1.33,5.23l-1-3-1.24,2.54L228,267c-2.77,2.21-2.73,2.24-1.38,5.08,1.23,2.61,1.52,5.68,3.83,7.77,1.21,1.1,2.33,2.3,3.58,3.34a10,10,0,0,1,3.72,5.52c.08.37.64.66,1,.94s.63.32.8.7c-3.21.85-2.72-3.05-4.92-3.53l-6.87,4.6a5.69,5.69,0,0,0-.29-1.33c-.19-.41-.61-1.06-.89-1a9.87,9.87,0,0,1-6.39-1.76c-.61-.41-1.73-.06-2.81-.06.09-.55,0-1.39.31-1.75,1.7-1.68.66-3.22.07-4.91s-.83-3.5-1.29-5.24a11.11,11.11,0,0,0-.89-1.75c-.54.92-.9,1.55-1.26,2.18l-.39-.11a24.6,24.6,0,0,1,.53-2.44c.73-2.35.53-2.66-2-2.81a4.74,4.74,0,0,1-.56-.12l1.81-1.43-1.71-1.49c1-.11,1-.11,4,3.28l6.5-7.78-7.75,1.55-.17-.73,2.35-.61a6.63,6.63,0,0,0-1.65-.74c-2.65-.29-4.19-2-5.46-4.12-.6-1-1.36-1.93-2.06-2.88-.23-.31-.51-.59-.73-.91-.35-.5-.67-1-1-1.51l-1.35,1.43-.41,0,.43-2.12-.22.14a15.72,15.72,0,0,1-.6-3.53c.24-4-3.2-8.2-7.15-8.57-.71-.06-1.42-.21-2.13-.32l0,0-2.45-3,2.36-1.23,2.33,1.8L195.84,239a11.64,11.64,0,0,0,2.58.39,3.09,3.09,0,0,1,3.23,1.77c2.07,3.77,4,7.61,6.13,11.34a31.33,31.33,0,0,0,2.95,3.81,8.78,8.78,0,0,1,1.1,1.35c.88,1.73,2,3,4.32,2.84l-.25-1.61,11,4.42c-.16-.93-.29-1.73-.43-2.53l4.2,4.51.47-.46c-.75-2.26-2.55-3.34-4.72-4-.5-3.85-3.24-6-5.74-8.36l-.62.48,3.28,3.59-.58.58c-.43-.32-.85-.66-1.3-1s-.88-.69-1.17-.6c-1.89.64-3.73,1.39-5.81,2.2l-1.72-1.56c3-3.85-2.11-3.62-2.95-5.79l2.95-.7c-.22,2,.65,2.41,3.69,1.42l-3.74-1.37c-.08-1.53-1.26-1.56-2.35-1.71-.47-.06-1.13.06-1.38-.21a39.64,39.64,0,0,1-4.82-5.49c-2.93-4.57-6.3-8.81-11.3-11.44a70.35,70.35,0,0,1-6.36-4.31c.84-.2,1.38-.5,1.62-.34,3.69,2.4,7.41,4.78,11,7.37,1.07.78,1.67,2.21,2.59,3.49L202.8,235c1,3.27,1.51,6.52,4.83,8.44a5.17,5.17,0,0,0-.18-1.26c-2-4.09-4-8.19-6-12.23a10.59,10.59,0,0,0-2.22-2.66c-2.91-2.75-5.89-5.43-8.78-8.09.23-.6.67-1.25.52-1.43-1.41-1.78-2.64-3.91-4.47-5.08a7.59,7.59,0,0,1-3.65-4.63,39.87,39.87,0,0,0-1.54-4l-.8.27,1.63,5.16-.3,0-6.24-8.94,3.09-.27-8-9.48,1.58-.55a5.93,5.93,0,0,0-1.06-1.51c-.89-.65-2-1-2.84-1.69-1.7-1.28-3.31-2.68-4.84-3.93.45,1.64,1,3.49,1.47,5.34h0c-.34-.2-.87-.33-1-.62-1-2.51-2-5.06-3.17-8.28l8.45,7.07c.08-1.24.08-1.74.15-2.23a2.05,2.05,0,0,1,.77-1.34,9.88,9.88,0,0,1,.86,1.68,29.32,29.32,0,0,0,9.4,14.59,33.91,33.91,0,0,1,3.27,3.76c1.73-2.24,1.88-3.17.49-5.21a70.52,70.52,0,0,0-4.24-5.65c-3-3.55-2.24-6.55,2.15-8.11,5.82-2.09,13.45.31,18.12,5.85a5.71,5.71,0,0,0,1-1.26c1.23-2.9,3.59-3.49,6.41-3.36a23.41,23.41,0,0,0,3.92-.19c1.19-.14,2.14-.29,3.12.9.55.67,2,.87,3.08.79,1.72-.13,3.44.24,5.14.23,2.25,0,3.25-1.69,5-2.13,2.15-.54,2.54-.35,2.54,1.88-1.44-.52-2.07.51-2.49,1.51a4.15,4.15,0,0,0,.06,3.48l2.38-5c0,.54.31,1.34.06,1.57-2.11,1.94-.87,3.27.86,4.78,2.52-2.54,4.19-1.08,5.65,1.72.22-2.66,1.27-4.25,3.58-5.14,3.33-1.29,6.68-2.1,10.17-1.18,2.7.71,3.64,3.21,2.94,6.82a6.56,6.56,0,0,1-3.35,5,29.68,29.68,0,0,0-3.29,2.29l5.35,6.58,4.57-4.05-.56-.73L254,206c0-.23-.06-.46,0-.52,2.08-1.81,4.09-3.72,6.31-5.34.84-.61,1.43-1,1.25-2.09a25.83,25.83,0,0,1-.29-2.91c0-1,0-1.91,0-3.3a20.83,20.83,0,0,0,2.6,2.08c3.42,1.89,4.36,5.37,5.36,8.66.48,1.57-.07,3.46-.14,5.21,0,.43.05.87.08,1.54,2.31-1.26,3.05-3.32,3.57-5.68,2,1.71,1.51,3.53.87,5.2a21.42,21.42,0,0,1-2,3.1c-.84,1.39-2.33,1-3.53,1.42a3,3,0,0,0-1.62,1c-1.74,3-4.62,4.69-7.25,6.71a13,13,0,0,0-3.41,3.13c-.48.8.1,2.24.21,3.38l-1.67,1.19-2.79,1.43Zm4.75-8.61-1.68.85,1.72-5.83a1.13,1.13,0,0,1,0-.32s.16-.07.17-.06c.24.41.66.83.66,1.25a7,7,0,0,1-.49,1.85l.47.18c1.51-2.79,3.06-5.55,4.48-8.38.26-.53,0-1.34-.07-2,2.5,0,5.66-5.1,4.62-7.76l-1.51,1.4c.08-1.6.92-3,.81-4.25s-1.23-2.27-1.9-3.4l-.59.23c0,1.06-.45,2.51.08,3.12,1.76,2,.43,3.23-.85,4.95l.64-3.29-.5-.15-7.88,10.31.47.48h1.15c-.61,1.51-1.26,2.93-1.75,4.41a5.46,5.46,0,0,0,.05,1.84l1.92-.38c-.45,1-1.18,2.24-2.27,1.45-2.12-1.52-2.35.21-3,1.36a8.38,8.38,0,0,1-.9,1.47c-3.37,3.82-6.78,7.62-10.08,11.31,3.63.42,6.33-1.14,7.3-5.46l.47.36-.23,3.31a1.11,1.11,0,0,0,.43-.15c2.52-2.37,5.05-4.74,7.52-7.16a5,5,0,0,0,.71-1.54c1.08-.81,2.18-1.6,3.24-2.43.34-.26.79-.94.85-.9,1.46,1,2.07-.47,2.82-1.08,3-2.4,3.79-5.78,4-9.38,0-.34-.39-.7-.6-1a4.31,4.31,0,0,0-.91.84c-.59.93-1.06,1.94-1.65,2.87-1.27,2-2.56,3.91-3.89,5.83S257.59,219.93,256.31,221.71Zm-53.16-26.83.24-.46c1.34-1.75,2.47-3.59,1.9-5.94a6.43,6.43,0,0,0-.65-1.28c-.37.22-.85.35-1.09.67-1.29,1.71-2.69,3.31-2.54,5.75.11,1.95-.67,2.48-2.09,2,1.12-2.85.82-4.14-1.56-6.45a11.32,11.32,0,0,0-1.5-1.27c-4.12-2.79-8.57-3.89-13.43-2.43-2.1.63-3.21,2.28-2.32,3.8,1.5,2.6,3.4,5,5.14,7.44l.73-.37a10.08,10.08,0,0,0-.73-2.15c-.61-1-1.48-1.83-2.12-2.82-1.36-2.09-.64-3.56,1.83-3.75a11.52,11.52,0,0,1,8.52,2.9,5.09,5.09,0,0,1,1.39,2.08c.46,1.3-.26,2.16-1.48,2.55s-2,.09-2.14-1.39c0-.51-.58-1-.8-1.31L188,195.94l1.17,1-2.46.57c-.32,1.7-.58,3.16-.88,4.61a25.91,25.91,0,0,0-.62,2.68c-.15,1.72-.36,3.5,1,4.95,3.09-2,3.93-4.59,2.8-8.44-.84-2.84.56-4.69,3.53-4.67,1.31,0,2.62,0,3.93,0,2-.09,2.33.27,1.73,2.21-.74,2.37-1.5,4.75-2.1,7.16a7.22,7.22,0,0,0,.22,2.37H197c.18-.66.36-1.33.56-2,.61-2.06,1.22-4.13,1.84-6.19a3.17,3.17,0,0,1,3.33-2.24,2.89,2.89,0,0,1,2,.89c.28.3.09,1.24-.17,1.76-.48,1-1.26,1.85-1.73,2.85a11.62,11.62,0,0,0-.6,2.39,9.92,9.92,0,0,0,2.51-.16,41.62,41.62,0,0,0,3.91-1.6l.59,1.88a16.81,16.81,0,0,0,2.07-.82,22.32,22.32,0,0,0,2-1.38c.86,2.39,1.47,2.56,2.92,1.14-.49-.41-1.45-1-1.37-1.21a27.76,27.76,0,0,1,2.13-4.17,10.35,10.35,0,0,1,2,.69l.43-2.5c-.83.12-1.91,0-2.43.41a23.3,23.3,0,0,0-2.74,3.46c-.4.53-.73,1.11-1.09,1.67l-.4-.26.82-4.86-.49-.08a29.19,29.19,0,0,1-1.31,4.26c-.26.56-1.24.79-1.89,1.18a6.86,6.86,0,0,1-.66-2.19,11.37,11.37,0,0,1,.69-2.68l-.79-.27a28,28,0,0,0-1.22,3.58c-.35,1.69-1,2.13-3,1.54.54-1.11,1.09-2.19,1.6-3.28,1.22-2.63.66-3.47-2.22-3.38C202.4,196.87,202.31,196.72,203.15,194.88Zm4.32,13.24a5.77,5.77,0,0,1,.68-.59c1.5,1.29,2.93.94,4.37-.12a.72.72,0,0,1,.71.07c.83.87,1.64,1.4,2.82.48.87-.68,1.9-1.14,2.78-1.81.25-.19.23-.75.37-1.31-2.34.27-4.22,3.7-6.47.44a4.16,4.16,0,0,0-.75.51c-1.25,1.36-2.53,1.78-4,.31a1.42,1.42,0,0,0-1.23-.3c-1.24.46-2.42,1.06-3.64,1.62,1.37,2.27,3,.79,4.45.64-3.19,3.15-4.81-.19-7.1-2l-1.08,5-.63-.17c.66-2.49,1.28-5,2-7.46.32-1.09.57-2.3,2.22-2.34.37,0,.71-1.05,1.07-1.61-.5-.2-1.13-.7-1.47-.55-.88.4-2.12.92-2.37,1.68-1.19,3.56-2.1,7.22-3,10.6-4.28-2.94-1.88-7-1-10.86a8.46,8.46,0,0,0-1.08-.5c-2.88-.8-3.43-.25-2.71,2.69a8.78,8.78,0,0,1-1.55,7.8,2.92,2.92,0,0,0,0,4c1.1,1.43,2.27,2.82,3.38,4.25a5,5,0,0,1,.53,1.09,6.11,6.11,0,0,0,.74,1.59c2.05,2.3,4.12,4.56,6.26,6.77a33.18,33.18,0,0,0,2.81,2.34c-.31,5.45,3,11.19,7.08,12.29l-4-5.55.72-.62,3.05,2.72.38-.35c-.92-1.1-1.82-2.22-2.78-3.28-.61-.68-1.35-1.25-1.94-1.94-.88-1-1.69-2.14-2.53-3.21l-1.28-3a30.46,30.46,0,0,1,3.66,3.8c1.09,1.24,2.23,2.44,3.34,3.66l.43-.4c-.49-2-1.68-4,.74-5.85a40.32,40.32,0,0,0,10.74,9.59L216.64,233c2-.11,3.85-.21,4.34,2a1.21,1.21,0,0,0,.47.61c2.49,1.86,5,3.69,7.61,5.62l.92-1.55-1.55-.34c1.78-1.93,3.4-3.72,5-5.48,3.08-3.28,6.2-6.53,9.26-9.83,1.71-1.85,3.38-3.74,5-5.69a1.75,1.75,0,0,0,.15-1.62q-3.65-4.74-7.49-9.33c-.25-.3-1.18-.3-1.65-.1-2,.85-3.95,1.75-5.84,2.76s-3.31,1-4.39-1.1c-.21-.4-.75-.63-1.14-.93l0,.55c-1.33.25-3,.09-3.91.83-2.24,1.72-2.71-.57-3.85-1.33a3.55,3.55,0,0,1-.67-.94c-2.1.93-3.85,3.67-6.39.84C210.81,210.2,209.14,209.07,207.47,208.12Zm23.06-1.54a54.87,54.87,0,0,0,5.36-2.89c1.58-1.08,2.56-.65,3.66.64q3.69,4.33,7.51,8.57c.62.68,1.05,2,2.49.94,1.27-.9,2-1.66,1.22-3.37a18.61,18.61,0,0,0-7.13-8.17c-.69-.44-1.36-.9-2.33-1.54,1-.63,1.76-1,2.45-1.49,2.4-1.57,4.87-3.07,7.14-4.81.76-.57,1.59-2,1.34-2.69a4.05,4.05,0,0,0-2.62-2,13,13,0,0,0-10.1,2.17c-.3.19-.44.64-.66,1a21.89,21.89,0,0,0,3.65-.9c1.3-.32,2.88-.91,3.77.56a2.91,2.91,0,0,1-.91,3.87,36.11,36.11,0,0,1-5.59,3.54c-.42.22-1.59-.36-2-.89a53,53,0,0,1-2.88-4.46c-.77-1.23-1.47-1.16-2.1.11-.21.4-.36.82-.55,1.27,2.57.05,2.57,2.46,4.3,3.92C233.09,201,230.9,202.8,230.53,206.58Zm-7-15.2c1,1.1,1.71,1.93,2.5,2.65.28.26.78.26,1.18.37a4.47,4.47,0,0,0,.23-1.06c-.09-2.1-.22-4.2-.35-6.55l-1.93,3.33c-1.31-3-4.15,0-5.68-1.83a6.36,6.36,0,0,0-.94.93c-.57.82-1.08,1.69-1.71,2.69-.61-.7-1.1-1.67-1.47-1.62-1.93.23-1.23-1-1-2.23-1.56.58-1.87,3.43-3.7,1.86-.51-.43,0-2.07.08-3.4l-2.83.37c1.67,1.86,1.47,2.92-.49,3.87-.29.14-.46.52-.69.79.35.2.72.59,1.05.57.91-.08,1.8-.47,2.7-.46a17,17,0,0,1,2.87.49,10.28,10.28,0,0,1,1.84.23c1.38.43,2.81,1.48,4.08,1.3s2.08-.41,2.93,1.23Zm-3.41,76.45a31.8,31.8,0,0,0-2.52,4.88,3.53,3.53,0,0,0,1,2.72A29.43,29.43,0,0,0,222.5,279c1.29,1,2.7,1.93,4.05,2.89A108.08,108.08,0,0,1,220.15,267.83ZM186.59,211l-.09.64c.77.07,1.93.5,2.25.15,2.12-2.29,3.92-4.78,3.29-8.22-.23-1.31-.34-2.64-.51-4,1.4-.1,2.8-.3,4.2-.28,1.19,0,1.9-.25,1.76-1.78h-2.34c-.79,0-1.57,0-2.36-.05-2.36-.15-3.65,1.36-3,3.61,1,3.2.7,6.08-1.87,8.49C187.48,210,187,210.51,186.59,211Zm18.81-18L204,195.65l.58.47,1.85-1.91c1.47.07,2.6,0,3.71.2s2.27.47,3.4.71a21.83,21.83,0,0,1,4.65.46c2.48.62,4.88,1.12,7.27-.76l-1.07-1.24c-1,.71-1.81,1.68-2.65,1.73a11.47,11.47,0,0,1-3.62-.88c-1.59-.48-3.09-1.67-4.88-.53a.91.91,0,0,1-.82-.3c-.52-1.75-1.77-1.07-2.9-.95S207.05,192.84,205.4,193Zm20.95,11c-1.74,0-1.7-.79-1.07-1.85a28.42,28.42,0,0,0,1.6-2.69,5.31,5.31,0,0,0,.12-1.8,4.77,4.77,0,0,0-1.68,0c-1.42.5-2.78,1.88-4.08-.28-.41,1.74-.88,3.17-1.07,4.64a30.59,30.59,0,0,0,0,3.95l.86,0a23.31,23.31,0,0,1,.57-3.13,13.77,13.77,0,0,1,1.49-3.18c.18-.29,1-.18,1.53-.25a5.18,5.18,0,0,1,0,1.42c-.23.75-.71,1.42-.89,2.17a24.07,24.07,0,0,0-.38,2.83c.88-.42,1.77-.82,2.64-1.25C226,204.51,226.09,204.35,226.35,204Zm2.47,4.23c.44.78,1,2.3,2.43,1.75,2.83-1,5.52-2.46,8.38-3.77-1-1.81-1.69-2.77-3.62-1.56A73,73,0,0,1,228.82,208.2Zm14.57-7.6,0,.75c.95.26,2.12,1,2.81.67a22.26,22.26,0,0,0,5.08-3.3,4.86,4.86,0,0,0,1.72-4.63c-1.71,1.3-3.17,2.52-4.74,3.58S245,199.63,243.39,200.6Zm-59.13-8.71a5.85,5.85,0,0,0,.86-.22c2.92-1.64,5.5-.87,7.15,2,.15.28.9.22,1.37.32,0-.69.32-1.59,0-2a9.39,9.39,0,0,0-7.49-3.55,3.36,3.36,0,0,0-2.55.8C183.28,189.76,184,190.94,184.26,191.89Zm39.15,79.38a32.92,32.92,0,0,0,2.49-3.95,4,4,0,0,0,.22-2.84,2.48,2.48,0,0,0-2.26-.86,2,2,0,0,0-1.5,2.59C222.79,268,223.09,269.72,223.41,271.27Zm21.53-76.86-.39-.46-6.67,2.48c.92,2.44,1.39,2.63,3.56,1.21a19.5,19.5,0,0,0,2.23-1.58A11.47,11.47,0,0,0,244.94,194.41ZM248.26,216c1.21,1.7,1.33,1.75,2.57,1,2.66-1.64,2.95-2.75,1.77-5.25Zm-18.21,70c.7-2.33-.48-4.66-1.74-4.12-1.91.81-3.73,1.39-5.73.41-.09-.05-.32.17-.48.26a2.07,2.07,0,0,0,3.1,1.32,2.46,2.46,0,0,1,3.29.67C228.91,285.07,229.39,285.47,230.05,286.09Zm-3-28.63.76.05,1.46-1.59,2.42,3.39.43-.25c-.49-1.18-.89-2.4-1.49-3.52a8.69,8.69,0,0,0-1.74-2.13,1.62,1.62,0,0,0-1.2.61A32.6,32.6,0,0,0,227.06,257.46Zm-4.12-50.6-2.24,1.07,1,1.5.69-1.52c1.12.32,2.12.93,2.93.74s1.61-1.16,2.46-1.84l-1.12-1.42C225.17,205.86,224.15,208.11,222.94,206.86Zm1.19,36.84.52-.55c-.85-.74-1.67-1.53-2.58-2.19-.28-.2-1-.2-1.19,0a1.58,1.58,0,0,0-.21,1.36c1,1.63,2.12,3.19,3.45,5.15.57-2.59-1.51-3.59-1.81-5.37Zm3.72-37.93.89.09c.16-.74.34-1.47.47-2.21a24.22,24.22,0,0,1,.84-4.55c.53-1.35,0-1.82-1.21-2.51C228.49,199.81,228.17,202.79,227.85,205.77Zm-5.39,45.74-.29.38,3.41,2.93c1.21-2.64,1-3.52-1.32-5.33l.38,3.13ZM210,243.66l-.54.87c2.57,1.57,5.46,2.57,8.07,4.07l.26-.47Zm20.13-39.4,3.17-6.77C231,198.05,229.72,200.46,230.15,204.26Zm9.47,25.57.45.42,5.94-6.36-.57-.52ZM222,249.45l.79-.88-4.73-4.17-.51.53ZM209.91,202.5l.66.12a39.8,39.8,0,0,0,1.47-4.31,2,2,0,0,0-.85-1.57c-.41-.26-1.13-.05-1.72-.05l-.38.59c2.65-.14,2,1.1,1.53,2.36A27.15,27.15,0,0,0,209.91,202.5Zm23.25,36.38-.61-.45-3.3,4.11.53.43C231.74,242.28,232.28,240.44,233.16,238.88ZM245.41,193a7.09,7.09,0,0,0-7,2.42ZM235,236.59l.42.37,3.43-3.68C236.38,233.11,235.34,234.12,235,236.59Zm-49-45-.27,1.19,2.32,1,.42-1.93Zm27,43.26c.49,3.4.92,4.07,3,4.49C214.88,237.85,214,236.54,212.93,234.88Zm4.6-38.88-3.27-.33,1.1,2.13Z"/><path class="cls-1" d="M179.35,297.75l-1.29-.95,1.48-1.84c-.16-.24-.41-1-.93-1.33-1.48-1-.73-1.64.1-2.43s2.19-1.5,2.35-2.41c.38-2.13,1.79-2.76,3.42-3.46.25-.1.31-.95.25-1.42-.56-4-.95-8.11-1.83-12.07-1-4.41-.9-5.15,3-7.74,1.79-1.2,2.64-3.71,1.44-5.39a4.43,4.43,0,0,0-3.05-1.21c-2.91-.18-5.84,0-8.76-.14a11.35,11.35,0,0,1-2.71-.89c4.14-4,5.62-5.07,7.23-2.29a6.83,6.83,0,0,0-2.09,0c-.54.2-.94.81-1.76,1.56,3.82.38,7,.64,10.22,1.08a2.84,2.84,0,0,1,1.79,1.35,6.38,6.38,0,0,1-2,8.16l-1.12.8,2.84,2c.23-.33.66-.89,1-1.5,0,0-.51-.38-1.13-.84l4-1.89-.81-1.06c1.13.3,2.1.28,2.61.76.74.7,1.29,1,2.21.48.08,0,.9.93.83,1-1.81,2.51.7,3.67,1.44,5.36l.45-.16a7.31,7.31,0,0,1-.56-1.4,12.82,12.82,0,0,1-.4-3.29c.12-1.38-1.83-4.89-3.7-5.88l2.71-.32c.79,1.38,1.59,2.74,2.36,4.13a2.35,2.35,0,0,1,.36,1.1c0,5.08,2.7,9.27,4.33,13.83.4,1.1.06,2.48.06,3.73l-.59,0a11.78,11.78,0,0,0-.44-3.51c-.42-.93-1.5-1.55-2.39-2.41,1.07-1.55.7-3.14-1.9-5.09a44.85,44.85,0,0,0,.66,5.33,48.58,48.58,0,0,0,1.92,5.1l-2.46-2.19c-.49,3,2,3,3.69,3.84l-.28.44c-.88,0-1.76,0-2.63,0-.58,0-1.15.1-1.72.15.1.63,0,1.49.34,1.82s1.24.28,1.89.34a2.44,2.44,0,0,1,1-.21l-1.5,8.61a.71.71,0,0,1-.16.35c-2.64,2.58-2.48,6-2.92,9.27-.35,2.58-1.07,5.1-1.61,7.66a4.8,4.8,0,0,0,0,.93l.57.24,2.94-6.14c.75,1.26,2,1.74,3.82,1.29,1-.24,2.54,2.5,2.61,4.64-.47-.62-.78-1-1-1.35-1.1-1.82-1.89-1.87-3.35-.39-.29.29-1,.11-1.57.16s-1.23-.08-1.56.2c-.63.53-1,1.37-1.56,2a16.38,16.38,0,0,1-1.74,1.41l-2.52-1-.36-2.93c1.61.22,3.08.21,2.34-2.12,2.81-6.09,3-12.87,5-19.19a6,6,0,0,0-.1-2c-.54.22-1.07.66-1.6.65-2.54-.05-2.25,2.25-3.23,3.82l-.84-1.93-1.2.57.63-2.77c-2.37-.21-1.91,1.67-2.31,3l-1.27-.55-3.74,1.91.71.87c-.12-.38-.25-.77-.24-.75l-3.33-1.13.09-.94c1-.17,2-.39,3.05-.5.44,0,1,.31,1.33.18a3.28,3.28,0,0,0,1.29-1c.12-.14-.13-.84-.21-.84a9,9,0,0,0-1.52.26,2.22,2.22,0,0,0-.17-.62c-.36-.6-.76-1.17-1.14-1.76a12.38,12.38,0,0,0-2.12,1.45c-.74.78-1.11,2-2,2.58-1.66,1.07-1.34,2-.19,3.06.38.35.8.65,1.2,1l-2.05,2.82Zm11-27.13.71.07,3.19,7.55c1.92-1.74,2.94-4.89,2.16-6.87a31.23,31.23,0,0,0-1.87-3.19c-1.49-2.7-2.6-2.76-4.54-.29-.86,1.1-1.84,2.1-2.94,3.36l-.94-2.46-1.24,1,2.2,5.53Zm.31,1.5c-3.4,2.29-.46,4.64-.62,6.81-.1,1.37,1.61,3.55,3.72,4.07l.66-.36C193.21,279.21,192,275.77,190.68,272.12Zm6.57,15.25-2.18-1.46-1.18,2.39.43.31ZM192.06,285l-2.75-2.75C189.39,284.92,190,285.56,192.06,285Z"/><path class="cls-1" d="M224.19,295l-3,.76-.19.58a5.85,5.85,0,0,0,1.94,1,6,6,0,0,1,4.59,2.23,3.06,3.06,0,0,0,1.51,1.18c2.19.45,3.09,2.15,3.82,3.88.81,1.9,1.3,3.94,2,5.92a5.77,5.77,0,0,0,1.11,2.08l-.33-4.18.43-.2c.33.48.87.92,1,1.44.6,3.73,1.21,7.46,1.59,11.22.13,1.27-.33,2.67-2.33,2.32v-2.87c-1.19,1.68-.58,4.32-3.24,5.29.76-2.68,1.58-5.2,2.15-7.78a3.1,3.1,0,0,0-.6-2.55c-.65-.59-1.84-.58-3.11-.91.2,1.25.29,1.89.37,2.38-1.21.13-2.66-.11-3.51.49s-1.18,2.08-2,3.11A15.09,15.09,0,0,1,227,317c1.9-4.16.79-7.83-1.49-11.44a59.11,59.11,0,0,0-9-10.51c-1.59-1.55-2.12-4.2-3.06-6.38-.46-1.06-.19-2.69-2.2-2.27-.25.05-.75-.45-.92-.8a10.92,10.92,0,0,1-.92-2.44,2,2,0,0,1,.35-1.32,5.51,5.51,0,0,0,1.21-4c-.19-1.94,1.06-4.05,1.82-6,.14-.37.89-.51,1.15-.65-.6,2.79-1.18,5.52-1.77,8.25l.66.15.43-1.88.63.09a10.06,10.06,0,0,1-.55,2.48c-1.1,2.21-.58,3.44.48,5.55,2.11,4.19,6,6.09,9.56,8.52C223.62,294.49,223.8,294.69,224.19,295Zm9.12,16.2L234,311c-1.61-3-.77-7.17-4.56-9.32C230.78,304.94,232,308.08,233.31,311.22ZM230.05,310h.64c1.24-1.48.36-2.84-.87-4.18Zm-1.57-4.44-.86.16.54,3.17.94-.17Z"/><path class="cls-1" d="M161.9,208.34l-3.33-4.64.21-.34,4.73,2.54c-1.49-3.78-2.53-7.27-6-9.37l.38-.57,6,1.6-3.33-10.73.82-.41c.56.71,1.16,1.39,1.65,2.14.73,1.1,1.34,1.15,1.92-.11,0,0,0,0,0,0a13.18,13.18,0,0,1,.73,8.89c-.23.81,1.07,2,1.67,3.08l.54-.29-1.05-2a3,3,0,0,1,2,3.62c-.13.41-.49,1-.34,1.2,1.44,1.83,2.65,4.12,4.54,5.25,3,1.82,5.07,4.48,7.41,6.91.23.24.44.86.31,1.05-1.24,1.7.2,2.71,1.07,3.65a31.14,31.14,0,0,0,3.29,2.39,11.6,11.6,0,0,1,2.43,2.78c-3.21-1.92-6.71-3.22-9-6.45-1.13-1.56-3.33-2.38-5.1-3.43-2.84-1.67-5.72-3.26-8.59-4.88l-.29.46,3.31,2.34-.38.66a8.2,8.2,0,0,1-2.15-1.16c-1.25-1.31-2.34-2.78-3.5-4.19Zm2.25-8.46-.64.46,1.39,2.58-1.41-.44-.36.41c.78.87,1.6,1.71,2.35,2.62.43.52,1.17,1.27,1,1.7-.39,1.29.48,1.84,1,2.72,1.29,2.17,3.67,2.5,5.57,3.62,1,.57,2.06,1,3.24,1.54Zm-.26-9.2-.87.19,1,4.76.89-.19Zm10.5,19.57-.47.43,2.45,2.89.69-.64Z"/><path class="cls-1" d="M205.52,303.44c2,1.46,3.35.28,5.14-.58l-4.84-8.21c2.29.29,5.13,3.11,5.74,5.21.74,2.51,1.24,5.24,4.61,5.88l-.61,1.9c1.81-1,2.46-.09,3,1.1H217c.15.5.15,1.14.48,1.46a8.21,8.21,0,0,1,2.66,5.12,8,8,0,0,0,.46,1.52l.81-.6c-1.32,2.66-2.66,5.3-3.94,8-.86,1.77-2.45,1.88-4,1.72s-1.35-1.63-1.71-2.72c-.91-2.72-2-5.34-3-8-1.13-3.33-2.13-6.7-3.15-10.06A7.57,7.57,0,0,1,205.52,303.44Zm11.23,15.7.95-.31a11,11,0,0,0-.79-2.67,35.66,35.66,0,0,0-2.64-3.66c-1.09-1.41-1.76-2.76.36-3.83-2.65-3.25-3-3.34-5.09-1.44-1.12,1-.86,2.19.93,3.86l1-1.46Zm-2.89-8.58,5.06,6.85C219.08,314,217.37,310,213.86,310.56Zm1,12.81.49.24c.42-.61,1.08-1.18,1.2-1.85.35-1.95-1.46-2.54-2.63-3.56C214.19,319.93,214.51,321.65,214.82,323.37ZM209.21,312l-.32.11c.39,1.25.69,2.53,1.19,3.73.2.46.84.73,1.28,1.09.07-.64.42-1.43.16-1.88A25.74,25.74,0,0,0,209.21,312Zm1.5,5.57,2,5C213.94,319.89,213.5,318.78,210.71,317.54Z"/><path class="cls-1" d="M168.2,312.21l-1.09-1.51.46-.56c.48.37,1.24.65,1.42,1.13,1.51,4.08,5.09,4.93,8.71,5.61,2,.37,3.67.09,5-2.05,1-1.64,2.83-2.76,4.71-4.5l-3.51-.31a15.45,15.45,0,0,1,2.1-1.91c1.34-.82,1.9-1.74.72-3.17l4.24-3.28a13.84,13.84,0,0,0-.87,1.51c-.5,1.27-.88,2.59-1.48,3.82a12.33,12.33,0,0,1-1.69,2.07l2.34.81-3.32,3.52.3.35,1.95-1c-1.18,2.4-3.45,3.35-5.66,4.26a9.17,9.17,0,0,1-8.67-.35c-.12-.07-.26-.21-.34-.18-4.27,1.52-3.92-2-4.75-4.3a.4.4,0,0,0-.28-.21c-.07,0-.16.14-.25.22Z"/><path class="cls-1" d="M254.31,228.85l1.67-1.19c.91-1.5,1.59-3.26,2.8-4.48a64.13,64.13,0,0,1,7.34-6.05c-3.33,5.38-6.34,11-12.46,13.91l-.55-.37Z"/><path class="cls-1" d="M190.14,234.3c-.53.72-1,1.69-1.26,1.65a15.28,15.28,0,0,1-3-1l-.1-.78,1.36-.52-11.18-7c3.6-.51,8.38,1.14,8.76,3.19l-2.89-1-.29.59,7.72,4.11.46-.48-2-2.46.25-.26c1.26.95,2.54,1.88,3.77,2.88.15.12.09.81,0,.83A14.49,14.49,0,0,1,190.14,234.3Z"/><path class="cls-1" d="M192.94,254.65c-1.25-1.25-2.32-2.31-4-.59l-.29-.46,1.94-3,3,3c1.72,1.71-1.43,2-1,3.32,3.28,1.26,4.92-.37,5.64-3.38.28,1.23.82,2.32.65,3.27a2.76,2.76,0,0,1-1.82,1.83,19.66,19.66,0,0,1-5-.13,1.92,1.92,0,0,1-1.32-1.2c-.1-.44.42-1.1.8-1.55A9.39,9.39,0,0,1,192.94,254.65Z"/><path class="cls-1" d="M167,249.19l2.45,2.86a9.11,9.11,0,0,1,1.94-2.4,9.9,9.9,0,0,1,3.08-.88,43.9,43.9,0,0,1-3.46,3.51,3.35,3.35,0,0,1-2.29.47,15.18,15.18,0,0,1-3-1c0-.81-.3-2.22.23-2.78a44.8,44.8,0,0,1,5-4l.62.53-1.71,2.73,2-.51A4.45,4.45,0,0,1,167,249.19Z"/><path class="cls-1" d="M246.78,305.67c1.39,2.65,4.05,4.75,3.13,8.57,2.49-.54,3.64,1,5,2.85l-1.54.48c-1.09.36-2.71.22-1.59,2.31.27.49-.69,1.63-1.39,2.21a14.42,14.42,0,0,1-.16-3.33c.13-.75.9-1.38,1.39-2.06.23-.31.47-.61.7-.91a3.78,3.78,0,0,0-1-.29c-2.65,0-2.5,0-2.41-2.6a8.77,8.77,0,0,0-1.05-3.44c-.49-1.15-1.17-2.23-1.76-3.35Z"/><path class="cls-1" d="M261.59,232.86c4-3.31,6.18-7.72,8.58-12.07.78,1.19-.2,6-1.35,7.26C264.9,232.34,263.14,233.53,261.59,232.86Z"/><path class="cls-1" d="M244.67,255.56l.25-1.39-3.33-.53,0-.74a59.89,59.89,0,0,1,7.54-1.42c1.93-.12,3.07,1.33,3.43,3.72-1.19-.31-2.43-.34-3.28-.92-1.56-1.07-2.6-.76-3.63.62C245.53,255.12,245.2,255.23,244.67,255.56Z"/><path class="cls-1" d="M183.36,213.92l-2.89-2.38-.4.35,5.54,7.46-.36.32c-1.15-1.25-2.37-2.46-3.44-3.78-2.17-2.67-4.27-5.4-6.36-8.14a4.57,4.57,0,0,1-.47-1.27c.34,0,.79-.22,1-.06,2.3,1.82,4.6,3.66,6.83,5.58a5.61,5.61,0,0,1,.93,1.67Z"/><path class="cls-1" d="M204.93,272.53c1,0,1.64-.19,1.87.05A1.83,1.83,0,0,1,207,274c-.25,1.72-1.1,3.43.1,5.32l3.57-6.88.79.44c-2.14,2.65-1.76,6.58-4.72,9C204.17,279,207.21,275.59,204.93,272.53Z"/><path class="cls-1" d="M179.29,297.79c2.73.56,5.38,1.37,7.37,3.43,1.2,1.25-.22,1.82-.92,2.76-.25-2.5-1.44-3.52-3.8-3.52a10.13,10.13,0,0,1-1.56-.07c-2.55-.38-2.64-.64-1-2.64Z"/><path class="cls-1" d="M266.62,250.14c-4.31.12-8-2.57-11.85.07l-.13-.58c.2-.25.35-.58.61-.73,2.07-1.17,4.72-.45,6.7-2,.2-.16,1,.25,1.37.55C264.3,248.15,265.22,249,266.62,250.14Z"/><path class="cls-1" d="M220.68,301.35l-2.28,3.49c-1.3-1.69-1.6-1.71-2.52,0l-1.63-2.76a9.29,9.29,0,0,0,1.94.45,4.49,4.49,0,0,0,1.73-.38c.22-.11.25-.64.36-1l-1.63-.53-.4-1.7C218.55,298.18,219.72,299.53,220.68,301.35Z"/><path class="cls-1" d="M261.51,234.8c.48,2.17-1.81,2.21-2.85,3.33l.84,1.75-5.4.44a31.15,31.15,0,0,1,3.43-3.55A24.59,24.59,0,0,1,261.51,234.8Z"/><path class="cls-1" d="M251.52,230.28c1.76,2.19,2.46,2.35,4.61.79-.17.79-.09,1.7-.46,1.94-1.49,1-3.11,1.76-4.69,2.62l-.42-.61,2.21-1.2c-1.68-1.29-2.65-2.15-1.2-3.5Z"/><path class="cls-1" d="M257.38,242c-1.13,3.14-3.43,4.52-5.87,3.53C253.25,244.08,254.18,241.32,257.38,242Z"/><path class="cls-1" d="M165.38,313.06l2.65,3.55c-2.45-.75-3.22-3.25-5.74-3.74-1.86-.36-3.33-2.72-4.68-3.93,1.92,0,2.07.36,3.69,2.05,1,1.06,2.74,1.44,4.15,2.13Z"/><path class="cls-1" d="M180,224.28c2.84-1.16,3-1.06,6,3.62a7.3,7.3,0,0,1-1.5-.55c-1.51-1-3-2.08-4.48-3.13Z"/><path class="cls-1" d="M165.45,313.12c-.36-3.31-3.45-4-5.46-5.81,2.92.67,5.42,1.85,6.29,5l1.92-.1h0c-.44.56-.88,1.12-1.37,1.72l-1.44-.87Z"/><path class="cls-1" d="M240.66,290.74a2.49,2.49,0,0,1,3.59-.19c1.82,1.56,1.34,3.61.82,5.65C244.72,293.62,244.39,291.08,240.66,290.74Z"/><path class="cls-1" d="M221.41,325.34,223.6,319l.6.2c.61,2.56-.43,4.58-2.28,6.32Z"/><path class="cls-1" d="M161.85,208.29l3.7,7.66a5.25,5.25,0,0,1-3.68-4.43c-.07-1-1.48-2.15,0-3.17Z"/><path class="cls-1" d="M183.27,236.35c-2.11,2.14-2.56-1.42-4.24-.61,2.37-.76,2.18-2.13.95-3.79l.66-.23c.34.52,1.06,1.13,1,1.53C181.19,234.78,181.29,235.94,183.27,236.35Z"/><path class="cls-1" d="M209,290.57c2.67.68,2.06,3.32,3,5l-.44.28c-1-1.65-2.07-3.3-3.11-4.94Z"/><path class="cls-1" d="M234.79,304.41l-5.67-6.31C231.84,299.92,234,301.56,234.79,304.41Z"/><path class="cls-1" d="M180,224.22l-4.71-.65c2.42-2.06,3.64-1.82,4.66.71Z"/><path class="cls-1" d="M165.16,228.39l3.7.67-.14.95-3.75-.46Z"/><path class="cls-1" d="M245.82,302.34l-.46-3.71c1.26.7.29,3.05,3.2,2.07l-.51.72Z"/><path class="cls-1" d="M151.26,194.54l2.68,3.17C151.92,197.54,150.51,195.85,151.26,194.54Z"/><path class="cls-1" d="M181.4,247.19c-1.4.62-2-.31-2.42-1.18-.18-.37.17-1,.27-1.51a10.23,10.23,0,0,1,.94.92C180.57,245.9,180.9,246.44,181.4,247.19Z"/><path class="cls-1" d="M194.7,240a11.88,11.88,0,0,1-1.69,1.57,1.4,1.4,0,0,1-1.22-.17c-.23-.14-.43-.81-.31-1a1.82,1.82,0,0,1,1.12-.53,15.36,15.36,0,0,1,2.14.12Z"/><path class="cls-1" d="M171.54,221.66l-1.83-2.45a7.58,7.58,0,0,1,1.84-.2,14,14,0,0,1,.5,2.59Z"/><path class="cls-1" d="M193.75,301.51c.21,1.88.62,3.66-1.46,4.66Z"/><path class="cls-1" d="M223,259.06l-3.21-.88C221.27,256.9,221.66,257,223,259.06Z"/><path class="cls-1" d="M189.77,250l-1.27,1.89-2-1.72Z"/><path class="cls-1" d="M177.6,243.82l-3.29-2.23.32-.49,3.43,1.88Z"/><path class="cls-1" d="M203.15,194.88l-1.25.76-.48-.41,1.83-4.12.85.25c-.24,1-.47,2-.71,3.06Z"/><path class="cls-1" d="M187.89,202.66c.92,1.86.64,3.07-1.55,4.3l.92-4.4Z"/><path class="cls-1" d="M246,208.59l-6-5.93c3-.4,6.22,2.75,6.48,5.46Z"/><path class="cls-1" d="M236.23,202.14l-4,2.44A3,3,0,0,1,236.23,202.14Z"/><path class="cls-1" d="M252.71,220.86l-4.56,3.84a13.19,13.19,0,0,1,4.2-4.25Z"/><path class="cls-1" d="M219.94,190.35l-.28,2.28-1.14-.22.46-2.22Z"/></svg>