<svg xmlns="http://www.w3.org/2000/svg" viewBox="0 0 151.65 87.84"><defs><style>.cls-1{fill:#464542;}.cls-2{fill:#f08023;}</style></defs><g id="Layer_2" data-name="Layer 2"><g id="Layer_1-2" data-name="Layer 1"><path class="cls-1" d="M74.45,75.42l.42.38.57-.73ZM141,34c-.67.32-1.3.74-2.15,1.23-.12-1.22-.22-2.14-.33-3.18l-1.38.3c-1-.84-1.81-1.39-2.49-2a3,3,0,0,1-.82-1.39c-.28-1.18-.42-2.4-.68-4l.86-.6-3.38-.56a31.48,31.48,0,0,1,2.59-3.41c2.31-2.27,1.67-5.68-1.45-6.64-1-.3-2.18.19-3.23,0a7.18,7.18,0,0,1-2.62-1.21c-.24-.16-.22-1-.07-1.38.41-1.16,1-2.27,1.51-3.57l3.31-1.29c-.31-.85-.64-1.31-.61-1.76.15-2.76-1.68-4.13-4.17-3A4.49,4.49,0,0,1,122,1.9c-1.09-.4-3.85-.47-3.5,1.08.42,1.89-2.16,3.43-.21,5.1-.26.32-.49.82-.81.9a14.21,14.21,0,0,1-2.27.26c-.09-.17-.14-.42-.25-.46-3.62-1-5.26-3.41-4.91-7.26l-1.42.26-.09-.24L111,.27a5.9,5.9,0,0,0-5.91,1.51c-.72,1-1.57,1.65-2.74.49-1.57-1.56-3.49-1.62-4.68.21S93.94,5,93.07,7.28c-.32.85-1.29,1.46-1.89,2.11-1.33,0-2.77-.08-4.19,0s-2.51,2.2-4.41,1.43c-.07,0-.32.5-.54.7-1.82,1.69-3.44,3.73-6.25,3.78.29,2.38.29,2.31-2.12,2.5a3.78,3.78,0,0,0-2.2,1c-.21.21.25,1.27.59,1.83s1.08,1.14,1.49,1.79A3.46,3.46,0,0,1,74,24.05c0,.17-.68.58-.83.5A5.74,5.74,0,0,1,72,23.45a.4.4,0,0,1-.09-.22,11.73,11.73,0,0,1-1.69,0c-.64-.11-1.24-.42-1.87-.48-1-.08-1.94,0-3,0-.22-2.79-2.19-2.7-4.35-2.53a1.8,1.8,0,0,1-1-.25c.61.7,1.2,1.41,1.77,2.14,1.5,0,1.93.62,1.84,2.17a1.82,1.82,0,0,0,0,.33A56.59,56.59,0,0,1,68,32c1.48.36,2.82.51,4-1.69,1.27,2.62-.38,4.57-.53,7l-1.12-1.63v1.65a55.67,55.67,0,0,1,2,6.7.36.36,0,0,1,0-.1c1.65,2.68,3.22,5.25,4.69,7.63-1,.07-2.3-.21-3,.29a1.86,1.86,0,0,0-.42.46q.17,2,.18,4a7.23,7.23,0,0,1,2.4-2c-.34,2.21-.64,4.19-1,6.66a12.9,12.9,0,0,0,2.62-.89,1.36,1.36,0,0,1,2.22.71c.41,1.58,1.68,3.24-.09,4.91-.47.45-.35,1.51-.53,2.42L83,67.27c-1.35,1.42-3,2.48-4.36,3.85a37,37,0,0,0-3.17,3.95l.93-.34c.06.14.13.27.2.41L72.3,77.88a11.37,11.37,0,0,0,6.75-3.64c1.29-1.5,3-3.23,4.75-3.62,3.12-.67,4.78-3.27,7.41-4.53,1.82-.88,3.3-2.1,5.32-1,2.18,1.16,4.33,2.38,6.43,3.69,1.45.91,5.55,1.44,7,.57a19.42,19.42,0,0,1,8.33-2.55c2.46-.23,4.4-1.15,5.28-3.64a2.54,2.54,0,0,1,.54-1c1.57-1.46,3.18-2.9,4.79-4.32,1-.89,2.34-1.54,3-2.62,1.64-2.57,3-5.33,4.76-8.57l-3.37,1.68c.66-2.06.93-3.9,1.81-5.37.76-1.29,1.13-2.22.27-3.53s-.28-2.07,1.06-2.48l1.46-.46-1.78-.36c.07-.61.13-1.09.21-1.77l-2.52,2.45-.64-.46,1.42-4.21,2.78,1.22c.27.72.37,1.92.93,2.19s1.68-.15,2.46-.49A14.33,14.33,0,0,0,143,33.5,4.16,4.16,0,0,0,141,34ZM69.24,29.52c-1,0-2.5,1.08-2.88-1.25-.21-1.32-1.6-2.45-2.47-3.66l.43-.47h3.22c.38.84.77,1.73,1.17,2.61l.56-.28L68.48,25l.59-.36c.72,1.17,1.44,2.33,2.15,3.5C70.56,28.62,69.9,29.52,69.24,29.52Zm3.52-1.68c-.56,1.09-.91.77-1.5.31v0l0-.05,0,0c.12-1,.23-2,.38-3.27C72.74,25.83,73.5,26.37,72.76,27.84Zm56.5-23.9-3,2.27-.82-1.35C126.52,4.05,127.41,2.52,129.26,3.94Zm-7-.52.15.36-2.88,1.05-.76-2.26Zm-7.1,5.86L117.05,12l-.6.46L113.24,10ZM108.29,6.8a.72.72,0,0,1,.66-.09c1,1.31,2,2.65,3.15,4.3-3,0-3.15-2-3.94-3.36A1,1,0,0,1,108.29,6.8Zm-.87-5.32a21.51,21.51,0,0,1,.65,3.76c0,.37-.93.74-1.64,1.26.72,1.75,1.15,4.14,3.64,5.38l-4.9-.79s-.06.43-.11.86l-2.28.48C104.48,9,104.05,4.89,107.42,1.48Zm-3.87,2.94a11.12,11.12,0,0,0-1.13,2.12,8.58,8.58,0,0,0-.18,2.14,5.17,5.17,0,0,1-2-.43,8,8,0,0,1-1.38-1.77c-.41-.5-.87-1-1.42-1.56C99.14,2.51,99.46,2.08,103.55,4.42Zm-7.4,2.1,2.1,1.4L95,8.93c-.07-.17-.15-.34-.23-.51Zm-13,12.3c3.88-.24,6.69-3.06,10.4-3.22,1.53-.07,3.06,0,4.59,0l0,1c-.52,0-1,0-1.54-.11-.75-.12-1.61-.61-2.2-.38A91,91,0,0,0,85.7,20c-2.54,1.34-2.85,2.34-2.35,5.39l-3.49.26C79,22.29,80.16,19,83.17,18.82Zm-.6,42c-.46-1.59-.87-3.19-3-3.24-.22,0-.46-1.07-.6-1.66-.21-.85-.34-1.72-.58-3L85.7,60Zm2.1,8.33-.59-.29c.32-1.41.63-2.82.84-3.75l3.58.72Zm8.54-6.88-5,1-1.62-3.52c.2-.13.4-.26.59-.4l6,2.55C93.23,62.06,93.22,62.19,93.21,62.31Zm15.15,5c-1.86.68-3-.62-4.37-1.36a21.83,21.83,0,0,0-2.8-1.06c0-.08,0-.16,0-.24L112.05,66l.09.43A37.39,37.39,0,0,0,108.36,67.36Zm12.8-13.31c-.91,2.48-1.88,4.94-2.93,7.37a1.93,1.93,0,0,1-1.35,1c-3.58-.13-7.16-.32-10.72-.64-4.55-.4-8.78-2-13-3.67-6.6-2.63-12.45-6.43-16-12.61-3.71-6.44-3.39-11.7,2.35-16.47,2.69-2.24,6.15-2.47,9.55-1.35,1.22.4,2.41.9,3.63,1.31a10.32,10.32,0,0,0,1.39.33c1.42-3.2,2.35-6.27,4-8.86,2.93-4.54,10.21-7.39,15.64-4.37,4.24,2.36,6.78,6.2,8.37,10.69C125.37,36,124.43,45.08,121.16,54.05Zm-4.32-40c.11-.32.22-.65.34-1l3.59.56-2-2.4L121.57,9c-.35-.66-2.74-1.12-.89-3,.58,1,1.1,2,1.63,2.93l.52-.24c0-.66-.21-1.43.06-1.94s1-.77,1.57-1.14a4.46,4.46,0,0,1,.34,1.59c-.19,1.28-.54,2.53-.86,3.95l-1.19-.67c.19.69.44,1.45.61,2.23.45,2.19,3.16,4.49,5.37,4.41a6.31,6.31,0,0,0,1.78-.72l1.42,1.76L129,19q-.6,2.67-1.2,5.29h-.49c0-2-.4-3.8-2.86-4.42l.42-.4,2.31.18Zm8.29,45.14c1.07-1.91,1.44-4.3,3.87-5.8C129.65,57.05,126.32,57.32,125.13,59.15ZM130,55.06c.1-.76.22-1.69.35-2.64l2.59,1Zm3.52-14.16-2.38,4.23a.5.5,0,0,0,0,.12h-.07c-.23,1.81-.45,3.6-.68,5.4l-.32-.08c-.19-.81-.13-1.86-.63-2.36s-1.55-.47-2.69-.76c.52-2.29,1.08-4.79,1.65-7.29l.37.11c0-1.54.05-3.09,0-4.63-.08-2.25-.37-4.51-.3-6.75,0-.64,1-1.25,1.52-1.87.52.6,1.37,1.14,1.49,1.81a49.05,49.05,0,0,1,.44,5.44l-.9.14c-.42-1.69-.85-3.37-1.28-5.06l-.55.17,3.05,10.18c-2.37.8-2.15,3.66-3.14,5.94l2-.39s0,0,0-.07a.21.21,0,0,1,0-.06C130.61,42.64,131.2,41.5,133.54,40.9Z"/><path class="cls-1" d="M148.6,47.77a1.56,1.56,0,0,0-.92-.55c-.77-.19-1.57-.29-1.86-.34a29.14,29.14,0,0,0-2.53,1.66,19.5,19.5,0,0,0-1.75,1.77c-1.07,1.08-2.15,2.15-3.19,3.25a12,12,0,0,0-2.07,2.4c-1.15,2.21-2.11,4.51-3.28,7.06.19,0,.88.4,1.15.2,1.76-1.31,3.47-2.72,5.12-4.17.48-.42.62-1.23,1.12-1.59,2.13-1.54,4-3.22,4.89-5.83.09-.26.48-.41.73-.62.86-.72,1.76-1.4,2.56-2.19A1.13,1.13,0,0,0,148.6,47.77Zm-5.83,4.8c-.91-1.23-.81-1.28,1.38-3.21a4,4,0,0,1,3.49-.85Z"/><path class="cls-1" d="M151.65,50.67c0,2-2.81,4.62-4.32,4.41a1.54,1.54,0,0,1-1-1.09c-.09-.94,3.05-4.37,4-4.31C150.91,49.72,151.4,50.47,151.65,50.67Z"/><path class="cls-1" d="M122.56,35.35a28,28,0,0,0-4.7-13.94c-2.88-4.17-7.13-6.14-11.92-4.92-4.33,1.11-7.8,3.45-9.37,7.9-.18.53.18,1.25.28,1.88a12.39,12.39,0,0,0,1.36-1.11c1.27-1.36,2.28-3.09,3.78-4.07,4.81-3.15,10.18-2.46,13.08,2.5,4.89,8.38,5.77,17.47,4.51,26.88-.14,1-.54,1.9,1.18,2.28A46.45,46.45,0,0,0,122.56,35.35Zm-1.38,2.57c-.55-2.47-1.19-4.92-1.62-7.41-.65-3.76-2.91-6.67-4.83-9.78-2.48-1.8-5.07-3.28-8.35-2.76,3.48-1.06,6.71-.12,8.63,2.39,3,2.55,4.49,6,5.38,9.68a62.3,62.3,0,0,1,1,6.57A2.25,2.25,0,0,1,121.18,37.92Z"/><path class="cls-2" d="M72,23.22h0S72,23.18,72,23.22ZM73.18,53.3a8.22,8.22,0,0,1-.59,1.35c-1,1.54-2,3-3,4.53-1.53,2.41-3,4.87-4.55,7.27a5.76,5.76,0,0,1-1.5,1.12c-.14-.2-.27-.41-.41-.62l5.2-7.31-.52-.36-1.13,1.87-2.27-.34c1.61-3,2.76-6.53,5-9.08a10.08,10.08,0,0,0,2.12-4,52.59,52.59,0,0,1-1.23-7.6c-1.91-2.68-1.2-6.48-4.79-8.48,1.68-.1,3.3.94,4.71.5.07-1.12.18-2.22.32-3.32a2,2,0,0,1-1.19.71c-1,0-2.51,1.08-2.88-1.26-.21-1.31-1.61-2.44-2.47-3.65l.43-.47h3.21l1.18,2.61.55-.28L68.55,25l.59-.36c.54.87,1.07,1.74,1.6,2.61q.33-2,.81-4a7.54,7.54,0,0,1-1.27,0c-.63-.11-1.23-.42-1.87-.48-1-.08-1.93,0-3,0-.22-2.79-2.2-2.7-4.36-2.53a2.69,2.69,0,0,1-1.77-.83,18.57,18.57,0,0,1-1.53-2c-1.51-1.85-4.71-1.92-5.42,0-.61,1.72-1.6,1.56-2.86,1.33l.66-1.8-4.44.47c.52,1.5,3.15,1.88,2.29,4.29-2.79,0-5.62-.18-8.42.05-3.37.27-6.79.64-9.08,3.75-2.09,2.83-2,3.27,1.23,4.07,0,0,.07.1.14.23-2.57.58-5.48-.47-7.7,1.55,1.25.05,2.45-.15,3.66-.22C33,30.76,37.45,32.32,40.39,37c1,1.53,1.92.88,2.87.05s2.13-2,3.19-3l.35.34-2.32,2.82c.12.16.23.33.34.49a17.55,17.55,0,0,0,1.78-.37c1.48-.46,2.91-1.12,4.42-1.45,4-.86,8.15.57,9.59,4.71A18.66,18.66,0,0,1,60.73,53c-1.35,4-3.41,7.68-5.14,11.51a7.65,7.65,0,0,0-.32,1.46l2.63.37c-1.93,1.78-3.42,3.32-5.08,4.64-2.89,2.3-5.91,4.45-8.86,6.68-2.15,1.62-3.34,1.73-5.1.26-3.56-3-7.2-5.88-10.58-9-1.9-1.78-4.6-3-5.12-6,0-.18-.42-.29-.62-.46a9.47,9.47,0,0,1-1.92-1.74c-.77-1.18-1.27-2.53-2-3.77-2.07-3.71-3.84-7.56-3.6-11.89a17.06,17.06,0,0,1,3.37-10,10.35,10.35,0,0,0-2.49,2.86,31.81,31.81,0,0,0-1.49,3.58l-.83-1.6a4.83,4.83,0,0,0-1.31.71A33.76,33.76,0,0,0,8.5,44.8a17.51,17.51,0,0,1-6.15,5.52,2.41,2.41,0,0,0-1,2,12.28,12.28,0,0,0,1.13,2.92c.78-1,1.55-2.21.17-3.44,1.64-1.21,3.52-2.09,4.65-3.55,1.33-1.71,3.07-2.21,4.84-3,.2,1.1.4,2,.53,3a5.42,5.42,0,0,1,.12,2c-.68,2.38-1.49,4.72-.11,7.11l-1.58.47,2.33,2.34c-.91.37-2.22.81-3.44,1.44-.47.25-1.08,1.06-1,1.4a2.61,2.61,0,0,0,1.42,1.61,6.53,6.53,0,0,0,5.6-.93c.4-.3,1.08-.23,1.63-.32-.09.65-.14,1.31-.27,2-.07.31-.45.6-.41.87a12.33,12.33,0,0,1-1.56,7.23,3.75,3.75,0,0,0,0,1.5l.52,0c1.12-3.36,4.62-6,2.65-10.71a30,30,0,0,1,3.71,2.35c2.67,2.37,5.23,4.85,7.73,7.2-2.51-.13-2.82,0-2.55,1.42,2.91-1.16,4.3,1,6.25,2.5s3.94,2.92,4.11,5.64c.09-1,.18-2.06.28-3.17,2.86,1.86,3.32,1.81,6-.26C46.07,78.39,48,77,50,75.54l.41.39c-.76.91-1.51,1.83-2.28,2.73l-3.31,3.81.41.35,1.31-1.73.62,1.26A120.91,120.91,0,0,1,59.36,68.88l1.06,3.57a21.65,21.65,0,0,0,5.82-6.18c.68-1,1.61-1.78,2.37-2.7a40.6,40.6,0,0,0,3-3.75,27.13,27.13,0,0,1,2.62-4C73.82,55,73.49,54.17,73.18,53.3ZM11,62.68l3.48-1.52L16,62.68Zm6.76-3.32c-.83-1.66-1.66-3.33-2.48-5l.69-.33,2.29,5.05ZM39.6,29.42c.06-.19.11-.38.16-.57h3.65c.24.81.5,1.71.92,3.17ZM51.29,29c-.37-.05-.57,0-.62-.09-2.1-3.27-5.62-3-8.73-3.14a9.62,9.62,0,0,0-5.66,1.62c-1.58,1.11-2.84,1.55-4.58.94a6.41,6.41,0,0,0-1.53-.14c.32-2.23,2.28-4.48,4.23-4.55a22.41,22.41,0,0,1,4.17.64c3.29.5,6.6.88,9.86,1.54C49.92,26.17,51.67,26.69,51.29,29Zm2.5-9.89c-.16.49-.38,1.15-.65,2h-2c.62-1.51,1.42-2.81,2.83-2.9a3.57,3.57,0,0,1,2.86,1.41,4.33,4.33,0,0,0,4.52,2.44c1.93-.13,2.45.44,2.35,2.15a11.6,11.6,0,0,0,.14,1.62l-2.1-1.07c.22,1.28.19,2.44,1.79,2.85.43.11.6,1.21.89,1.86-.62-.1-1.24-.19-1.85-.32-1.25-.26-2.51-.53-3.76-.83-2.33-.55-3.09-2.14-1.68-4.6l-2,.92-.7-2.37,2.08,1.09.24-.21C55.79,21.9,54.86,20.63,53.79,19.15Zm7.9,18.5c-1.08-3.12-4-3.94-7-4.47A7.93,7.93,0,0,1,64,39c1.14,4.34.92,10.31-.58,13.07A48.64,48.64,0,0,0,63.41,46,42.45,42.45,0,0,0,61.69,37.65Z"/><path class="cls-2" d="M9.39,80.3l1,.33,4-5.36.67.46-3.48,5.63,1.5,1.26c-1.67,2.06-2.67-.9-4.23-.1Z"/><path class="cls-2" d="M23.79,82.53l-.72-1.39a32.45,32.45,0,0,1,2.64-4.28c.79-1,2.08-1.35,3.61-.24-2.4.47-3.27,2-3.81,4C25.28,81.4,24.28,82,23.79,82.53Z"/><path class="cls-2" d="M8.2,57.44c-.83,2.12-2.64.38-3.9,1a17,17,0,0,1-4.3,1c2.62-.81,4.8-3.07,7.91-2.24C8,57.17,8.09,57.32,8.2,57.44Z"/><path class="cls-2" d="M36.23,86.11a15.84,15.84,0,0,1-1.27-2c-.53-1.11-.93-2.27-1.35-3.3.74.09,2,.08,1.87,1.94,0,.23.66.44.79.75A22.3,22.3,0,0,1,37,85.84Z"/><path class="cls-2" d="M11.17,87.37l4.05-2.26.31.57-4.1,2.16Z"/></g></g></svg>