<svg id="Layer_1" data-name="Layer 1" xmlns="http://www.w3.org/2000/svg" xmlns:xlink="http://www.w3.org/1999/xlink" viewBox="0 0 500 500"><defs><style>.cls-1{fill:#ffc673;}.cls-2{font-size:12px;}.cls-11,.cls-14,.cls-2,.cls-27,.cls-31{font-family:MyriadPro-Regular, Myriad Pro;}.cls-3{letter-spacing:0.01em;}.cls-4{letter-spacing:0em;}.cls-5{letter-spacing:-0.01em;}.cls-6{letter-spacing:-0.01em;}.cls-7{letter-spacing:-0.01em;}.cls-8{letter-spacing:0em;}.cls-9{letter-spacing:-0.01em;}.cls-10{letter-spacing:0em;}.cls-11{font-size:8px;}.cls-12{letter-spacing:-0.01em;}.cls-13{letter-spacing:-0.02em;}.cls-14{font-size:10px;}.cls-15{letter-spacing:0em;}.cls-16{letter-spacing:0em;}.cls-17{letter-spacing:0em;}.cls-18{letter-spacing:-0.01em;}.cls-19{letter-spacing:0em;}.cls-20{letter-spacing:0.01em;}.cls-21{letter-spacing:0em;}.cls-22{letter-spacing:0.02em;}.cls-23{letter-spacing:-0.01em;}.cls-24{letter-spacing:0em;}.cls-25{letter-spacing:-0.01em;}.cls-26{letter-spacing:0em;}.cls-27{font-size:8.69px;}.cls-28{letter-spacing:-0.01em;}.cls-29{letter-spacing:-0.01em;}.cls-30{letter-spacing:0em;}.cls-31{font-size:9px;}</style></defs><path class="cls-1" d="M500,483.44s-36.4,13.43-36.9,13.6c-.58,0-18.64-41.63-18.64-41.63l-17.62-3s-37.1,11.24-38.28,11.92-18.12-58.42-18.12-58.42L486.6,367.45l13.4,42.3V384.4l-5.51-18.46,5.51-1.68s.19-9.07,0-8.9-8.2,2.52-9,3S483.58,330,483.58,330a41.58,41.58,0,0,1,6.38-4c4.36-2.35,9.23-3.86,10-3.86s0-7.05,0-7.05-1.82,1.51-6.35,2.52-14.1,2.85-14.1,2.85-16.45-43.3-16.45-44.82a61.19,61.19,0,0,1,1.51-7.38,27.06,27.06,0,0,0,6.88,2.35c2.85.33,8.23-1.18,8.23-1.18L500,262v-6.72s-26,8.23-26.5,8.23a37.39,37.39,0,0,1-8.22-1.85,7.4,7.4,0,0,1-4-4.19L451.68,232s-16.45-13.43-17.12-13.26,22.83-27,22.83-27,7.55-6.21,10.24-6.38,3.19,1.85,3.19,1.85L492,212.34,500,236v-18.3l-2.83-9.23L473.5,181l-4.7-2.35-3.19-7.72-14.1-16.29L407,101.21,397.8,98l-11.25,9.07.17,10.57,3.36,12.26-7.89,11.75a5.68,5.68,0,0,0,1.17,4c1.51,2,4,0,3.53,0s9.56-15.11,9.56-15.11l-3.69-14.1.5-7.56,5-4.19,5,2,25.34,31.06-11.24,9.9-32.9,41.63-15.11-9.9-1.51-2.69,6.54-13.59s.68-3-1.51-4a3.15,3.15,0,0,0-3.69.84l-8.56,17.12,5.37,8.22L381,194.88,364.56,216.7l-25.18-18.63-12.93-14.44L325.78,170l3-10.41L413.07,17.45,474.18,99.2l-16.62,12.25a9.62,9.62,0,0,0-1.18,3.7c-.17,2,3.19-1.18,3.19-1.18s16.28-12.25,17.12-12.42,2.69,1.68,2.69,1.68,19.64,25.68,20.62,26,.44-4.54.44-4.54L480.55,100l-3.69-1.51-9.57-13.1,2.19-2.35h3.69S499,62.94,500,62.94s0-8.56,0-8.56S468,76.09,468,76.7c.17.51-1.17,5-1.17,5l-1.51,1L415.59,15.1,427.68.83,409.74,0,319.66,150.46l-11,8-5.88-.77c-3.45-.11-4.13,1.32-6.83-.83l-1.72-1.28V123.77s-.17-2.56-2-2.56-1.25,3.58-1.25,3.58v28.42l-31-23.12a16.85,16.85,0,0,1-6.25-11.18l-5.36-28.34s12.26-8.34,1.31-16.59c-2.5-1.89-7.52-2.18-10.21-.57-1.92,1.14-5.22,2.92-8,2.39l-10.16-1a46.84,46.84,0,0,0-11.65.34L144.7,85.21,132.76,13.08,126.83,0h-9.7l9.4,25,16.85,102.39-30.2-.84a14.78,14.78,0,0,0-10.3,3.55L86.72,145.55a11.11,11.11,0,0,0-3.87,8.66l-1.21,54.32L73.06,259a24,24,0,0,1-1.07,4.1l-7.2,26.34-33.7,92.68L30.83,387l2.81,1.28c3.82.86,4.61-3,5.6-6.8l10.24-32.65,10.09,2.87,21.26-2.8,13.83-5.3L135,308.54l11.74-14,2.3-6.12,7.83.42-9.68,13.9-.54.55c-17,17.38-45.54,46.51-54.23,53.67C89.47,359.42,0,435.88,0,435.88v17.27l105.38-89.64,17.23-6.85,24.18-23.13,7.75,2.27,10.17,10.1,10.38,18.38,15.31,98.81-36.08,8.17-8.73-33.48c-.39-1.41-1.27-3.89-2.68-4.31l-2.72-.17c-1.69.28-1.31,3.42-1,5.1l8.68,34.22-45.28,15.32c-3.06,1.53-5.27,7.15,3.58,6.12l43.23-15.15,2.9,21.09h6.29L155,476.7s36.65-8.93,37.42-6.64S198.83,500,198.83,500h12l-9.32-50.31,75.19-13.33,11.75-3.15,75.9-24.78,18.41,57.43-72.49,23.9-19.44-55.27-15,3.74,5.59,19.25,10.84,5,5.7,25.8,1.45,1,2,1.34,1.68-.17,3.69-1.34.34,1.85L306,492.17l-10.41,4a26,26,0,0,0-2.69,3.8c-.33.95,10.91,0,10.91,0l122.88-40.73a35.6,35.6,0,0,1,8.56.5c4,.84,6.72,4.7,6.72,4.7s18.46,40.46,18.29,41.8,6.21-2.85,6.72-2.68S498.18,491,500,491,500,483.44,500,483.44ZM374.57,395.68s-17.19-53.28-18-53.28c.89-.55,57.7-18.38,57.7-18.38L427,323s9,8,9,8.51,13.28,39.15,13.28,39.15Zm-94.4-67.44-6.53-15.33s-.76-4.85,0-8,6.53-2.43,6.53-2.43L331.27,286l17.37,53-61.86,18.08-6.61-22.74.35-3.24ZM335.78,286,398,267.57l8.34,28,2.78,2,5.21,21.65-62.91,17.28Zm110.45-50.33,9.37,24.17,6.46,8.17s-2,8.51-1.87,9,17,48,17,48l-.85,2.56s8.34,32.85,8.34,33.53-28.76,7.66-28.76,7.66-14.3-41.19-14.3-41.7-9.7-9.71-9.7-9.71l-14.47-1.53-4.94-17.53.85-3.06-9.53-31-7.66-15.15,16.17-10,18.21-16.69Zm-24.51-82.06,10.47-10.08,28.65,32.11,2,4.84-9.88,7.31-19.86,23.9-24.69,22-16.6,9s-21.63-21.34-22-21.34S421.72,153.62,421.72,153.62Zm-99,34.57s4.14,4.45,4.14,4.64-7.31-2.32-7.31-2.32ZM308,169.7a8,8,0,1,1-8,8A8,8,0,0,1,308,169.7Zm-1.34,28.18,10.5-2c1.95.11,11.52,3.72,13.19,4.72l11.67,7-15.15,20.86a10.55,10.55,0,0,0-7.31-1c-3.68,1,0,3.82,0,3.82l16.2,13.9a29.26,29.26,0,0,0,4.52-.69c3.48-.7-1.39-4.87-1.39-4.87l-7.3-7,14.54-21.2s20.22,16.33,21.61,17S382,242.72,382,242.72l14.18,18.42-75,22.59h-1.61l-9.36-20.05-25.89-20.05.42-7.8-14.11-14.94,11.27-10.15ZM243.89,78.74a3.37,3.37,0,1,1-3.36,3.37A3.37,3.37,0,0,1,243.89,78.74ZM142.69,286a52.15,52.15,0,0,1-1.31,6.5s-7.21,10.13-8.19,9.55-41.94,36.46-41.94,36.46S79.12,342.6,78.14,343s-18.68.24-18.68.24L50,343l22.61-54,6.23-24.91L88,207.77V156.33l8.36-12.79,6.39-5.89,10.15-3.28H127v16.71l15.72,129.76Zm7.25-1L135.75,162.24,134.21,134l9.6-.21,21.11,119,.85,21.33L160,282.79a12.41,12.41,0,0,0,.18,3.22c.16,1.68.22,3.49-.6,4.24-.37.35-1.16,1.12-2.29,2.25l2.89-6.49Zm17.59,27.91V323.2h-3l-5.41,2.44-3.52-2.71ZM151.3,328.24l1.95-3.3c.37,0,3.78,3.3,3.78,3.3ZM159,330l5.12-3.36,4.88-.95s2.78,15.56,3.23,17.23C171.23,341.41,159,330,159,330Zm8.52-110.07-9.6-48.94L145.76,92.27l73.56-12.16,15,2.24s-.08,6.2,3.12,7.8a37,37,0,0,0,4.87,2.12l5.12,33.58,4.73,5.06,4.3,5.82,30.63,22.06,2.88,7.36s-2.88,7.67-3.2,10.87,3.2,7.36,3.2,7.36L279.12,193s-6.39,9-7.35,9.6S226.44,241.39,225.69,242c-26.05,20.56-39.08,25.13-39.08,25.13s-4.51,1.87-7.05-1.94c-3-4.52-7.17-17.57-7.17-17.57Zm10.13,72.57c-.26-.17-4.77-4.85-4.77-4.85s-.34-3.41,0-3.66,4.51-4.43,4.51-4.43h3.75L186,284v4.85s-3.75,3.66-4,3.58S177.89,292.62,177.64,292.45ZM248.4,432.62s-48.29,7.15-49.14,7.15S187,365.55,187,365.55l-2.21-23.66a119.11,119.11,0,0,1,0-13.65c.68-6.26,2.55-20.56,3.57-24.47s3.41-2.56,7.66-7,2.55-12.6,2.55-12.6,11.75-13.62,12.94-14.13,15-13.61,15.66-13.78,41.19-33.88,41.19-33.88l12.94,14.3L281,241l-8.34-6.64a8.85,8.85,0,0,0-4.26.85c-1.87,1,.17,3.74.17,3.74l36.94,28.66,7,18.15-37.11,11.07-17,16.51s-23,2.55-23.49,2.55-11.06-1-11.06-1L220,317c-3.74,2.22,1.36,4.6,1.36,4.6L233.13,323l26.72-4.09,7.83-6.8,6.47,22.12s2.89,1.88,2.89,1.2c.25.6,4.77,23.91,4.77,23.91L274.66,363l-8.17,15.83,10,48.68Zm35.11-6.81c-.68.68-9.87-45.79-9.87-45.79l4.42-8.85L286.4,364l56.86-17.36,15.23,43.57-5.36,13.28S284.19,425.13,283.51,425.81Zm73-23.66,5-12.43L346.15,345.3l7.15-2,17.53,53.95Zm-55.18,85.19L295,461l-11.26-6.89-3.42-14.38,8.91-2.22,17,49.79Z"/><polygon class="cls-1" points="268.15 84.02 257.13 84.02 254.75 110.75 256.79 123 282.17 119.89 282.29 117.16 290.37 115.31 292.55 82.09 268.64 81.39 268.15 84.02"/><rect class="cls-1" x="316.02" y="47.09" width="14.89" height="21.11"/><rect class="cls-1" x="339.51" y="75.26" width="4.34" height="6.85"/><path d="M266.78,97.5V93.18h.72V97.5Z"/><path d="M268.59,97.5V94.85a.8.8,0,0,1,.1-.41.93.93,0,0,1,.28-.31.7.7,0,0,1,.37-.11h1.77v.79h-1.74s0,0,0,0,0,0,0,0V97.5Z"/><path d="M272.38,97.39a.84.84,0,0,1-.28-.31.8.8,0,0,1-.1-.41V94.85a.8.8,0,0,1,.1-.41.84.84,0,0,1,.28-.31.7.7,0,0,1,.37-.11h1.71a.7.7,0,0,1,.38.11.89.89,0,0,1,.28.3.87.87,0,0,1,.1.42v1.82a.8.8,0,0,1-.1.41.91.91,0,0,1-.27.31.74.74,0,0,1-.39.11h-1.71A.7.7,0,0,1,272.38,97.39Zm.4-.68h1.66s0,0,0,0,0,0,0,0V94.88s0,0,0,0,0,0,0,0h-1.66a.06.06,0,0,0,0,0,.08.08,0,0,0,0,0v1.76a.08.08,0,0,0,0,0A.06.06,0,0,0,272.78,96.71Z"/><path d="M276.21,97.5V94h2.47a.76.76,0,0,1,.38.11.91.91,0,0,1,.27.31.8.8,0,0,1,.1.41V97.5h-.72V94.88a.07.07,0,0,0,0,0,.06.06,0,0,0-.05,0H277s0,0,0,0,0,0,0,0V97.5Z"/><path d="M259.62,104.7v-4.31h3.17a.7.7,0,0,1,.38.11.89.89,0,0,1,.28.3.88.88,0,0,1,.11.42v1.17a.88.88,0,0,1-.11.42.89.89,0,0,1-.28.3.7.7,0,0,1-.38.11h-2.45v1.47Zm.79-2.28h2.35a.06.06,0,0,0,.05,0,.06.06,0,0,0,0-.05v-1.1a.08.08,0,0,0,0,0l-.05,0h-2.35l-.05,0a.08.08,0,0,0,0,0v1.1a.06.06,0,0,0,0,.05S260.39,102.42,260.41,102.42Z"/><path d="M264.48,104.7v-4.62h.72v1.14H267a.73.73,0,0,1,.38.11.91.91,0,0,1,.27.31.8.8,0,0,1,.1.41v2.65H267v-2.62a.08.08,0,0,0,0,0,.06.06,0,0,0-.05,0h-1.66a0,0,0,0,0,0,0s0,0,0,0v2.62Z"/><path d="M269.05,104.59a.84.84,0,0,1-.28-.31.8.8,0,0,1-.1-.41v-1.82a.8.8,0,0,1,.1-.41.84.84,0,0,1,.28-.31.7.7,0,0,1,.37-.11h1.71a.7.7,0,0,1,.38.11.89.89,0,0,1,.28.3,1,1,0,0,1,.1.42v1.82a.92.92,0,0,1-.1.41.91.91,0,0,1-.27.31.77.77,0,0,1-.39.11h-1.71A.7.7,0,0,1,269.05,104.59Zm.4-.67h1.66a.05.05,0,0,0,0,0,.08.08,0,0,0,0,0v-1.76a.08.08,0,0,0,0,0,0,0,0,0,0,0,0h-1.66s0,0-.05,0a.08.08,0,0,0,0,0v1.76a.08.08,0,0,0,0,0A.05.05,0,0,0,269.45,103.92Z"/><path d="M273.38,104.59a.84.84,0,0,1-.28-.31.8.8,0,0,1-.1-.41v-1.82a.8.8,0,0,1,.1-.41.84.84,0,0,1,.28-.31.7.7,0,0,1,.37-.11h1.71a.7.7,0,0,1,.38.11.89.89,0,0,1,.28.3.87.87,0,0,1,.1.42v1.31h-2.51v.48a.08.08,0,0,0,0,0s0,0,0,0h2.44v.78h-2.47A.7.7,0,0,1,273.38,104.59Zm.33-1.94h1.79v-.57s0,0,0,0,0,0,0,0h-1.66a.06.06,0,0,0,0,0,.08.08,0,0,0,0,0Z"/><path d="M277.35,104.7v-3.48h2.46a.7.7,0,0,1,.38.11.84.84,0,0,1,.28.31.92.92,0,0,1,.1.41v2.65h-.72v-2.62a.08.08,0,0,0,0,0,0,0,0,0,0,0,0h-1.66s0,0-.05,0a.08.08,0,0,0,0,0v2.62Z"/><path d="M281.69,100.87v-.79h.72v.79Zm0,3.83v-3.48h.72v3.48Z"/><path d="M283.42,104.7v-.21l1.17-1.56-1.17-1.5v-.21h.78l.85,1.11.86-1.11h.77v.21l-1.16,1.5,1.16,1.56v.21h-.77l-.86-1.15-.85,1.15Z"/><path d="M259.2,111.9a.73.73,0,0,1-.38-.11.93.93,0,0,1-.28-.31.8.8,0,0,1-.1-.41v-2.65a.82.82,0,0,1,.1-.42.93.93,0,0,1,.28-.31.73.73,0,0,1,.38-.11h3.17v.8h-3a.22.22,0,0,0-.14.05.25.25,0,0,0,0,.16v2.3a.25.25,0,0,0,0,.16.22.22,0,0,0,.14,0h3v.8Z"/><path d="M263.46,111.9v-2.65a.88.88,0,0,1,.11-.42.86.86,0,0,1,.27-.3.73.73,0,0,1,.38-.11H266v.79h-1.74s0,0,0,0,0,0,0,0v2.62Z"/><path d="M267.25,111.79a.84.84,0,0,1-.28-.31.8.8,0,0,1-.1-.41v-1.82a.87.87,0,0,1,.1-.42.89.89,0,0,1,.28-.3.7.7,0,0,1,.37-.11h1.72a.76.76,0,0,1,.38.11,1,1,0,0,1,.27.3.87.87,0,0,1,.1.42v1.82a.8.8,0,0,1-.1.41.91.91,0,0,1-.27.31.7.7,0,0,1-.38.11h-1.72A.7.7,0,0,1,267.25,111.79Zm.4-.68h1.66s0,0,0,0,0,0,0,0v-1.76s0,0,0,0,0,0,0,0h-1.66a.06.06,0,0,0,0,0,.08.08,0,0,0,0,0V111a.08.08,0,0,0,0,0A.06.06,0,0,0,267.65,111.11Z"/><path d="M271.44,111.79a.91.91,0,0,1-.27-.31.81.81,0,0,1-.11-.41v-.13h.72v.1a.08.08,0,0,0,0,0s0,0,.05,0h1.65s0,0,.05,0a.08.08,0,0,0,0,0v-.41a.08.08,0,0,0,0,0s0,0-.05,0h-1.68a.66.66,0,0,1-.38-.12.79.79,0,0,1-.27-.3.84.84,0,0,1-.11-.41v-.48a.88.88,0,0,1,.11-.42,1,1,0,0,1,.27-.3.73.73,0,0,1,.38-.11h1.71a.7.7,0,0,1,.38.11.89.89,0,0,1,.28.3.87.87,0,0,1,.1.42v.13h-.72v-.1a.08.08,0,0,0,0,0s0,0-.05,0h-1.65s0,0-.05,0a.08.08,0,0,0,0,0v.41a.08.08,0,0,0,0,0s0,0,.05,0h1.68a.64.64,0,0,1,.38.12.89.89,0,0,1,.28.3.8.8,0,0,1,.1.41v.48a.8.8,0,0,1-.1.41.84.84,0,0,1-.28.31.7.7,0,0,1-.38.11h-1.71A.73.73,0,0,1,271.44,111.79Z"/><path d="M275.74,111.79a.91.91,0,0,1-.27-.31.81.81,0,0,1-.11-.41v-.13h.72v.1a.08.08,0,0,0,0,0s0,0,0,0h1.65s0,0,.05,0a.08.08,0,0,0,0,0v-.41a.08.08,0,0,0,0,0s0,0-.05,0h-1.68a.66.66,0,0,1-.38-.12.79.79,0,0,1-.27-.3.84.84,0,0,1-.11-.41v-.48a.88.88,0,0,1,.11-.42,1,1,0,0,1,.27-.3.73.73,0,0,1,.38-.11h1.71a.7.7,0,0,1,.38.11.89.89,0,0,1,.28.3.87.87,0,0,1,.1.42v.13h-.72v-.1a.08.08,0,0,0,0,0s0,0-.05,0h-1.65s0,0,0,0a.08.08,0,0,0,0,0v.41a.08.08,0,0,0,0,0s0,0,0,0h1.68a.64.64,0,0,1,.38.12.89.89,0,0,1,.28.3.8.8,0,0,1,.1.41v.48a.8.8,0,0,1-.1.41.84.84,0,0,1-.28.31.7.7,0,0,1-.38.11h-1.71A.73.73,0,0,1,275.74,111.79Z"/><path d="M279.72,111.9v-4.32h3.62v.8h-2.89v1h2.33v.8h-2.33v1.76Z"/><path d="M284.19,108.07v-.79h.71v.79Zm0,3.83v-3.48h.71v3.48Z"/><path d="M286.41,111.79a.84.84,0,0,1-.28-.31.8.8,0,0,1-.1-.41v-3.72h.72v1.07H288v.79h-1.23V111a.07.07,0,0,0,0,0,.06.06,0,0,0,.05,0H288v.79h-1.2A.7.7,0,0,1,286.41,111.79Z"/><path d="M298.33,135.13v-4.86h2.47a.73.73,0,0,1,.38.11,1,1,0,0,1,.27.3.87.87,0,0,1,.1.42v1.82a.8.8,0,0,1-.1.41.91.91,0,0,1-.27.31.73.73,0,0,1-.38.11h-1.75v1.38Zm.78-2.17h1.66a.06.06,0,0,0,.05,0,.08.08,0,0,0,0-.05v-1.76a.08.08,0,0,0,0,0,.06.06,0,0,0-.05,0h-1.66s0,0,0,0,0,0,0,0v1.76s0,0,0,.05S299.09,133,299.11,133Z"/><path d="M303.25,133.75a.73.73,0,0,1-.38-.11.91.91,0,0,1-.27-.31.8.8,0,0,1-.1-.41v-1.31H305v-.48s0,0,0,0,0,0,0,0H302.5v-.79H305a.77.77,0,0,1,.39.11,1,1,0,0,1,.27.3.87.87,0,0,1,.1.42v2.65Zm0-.79H305v-.64h-1.79v.57a.08.08,0,0,0,0,.05A.06.06,0,0,0,303.28,133Z"/><path d="M306.73,133.75V131.1a.88.88,0,0,1,.11-.42,1,1,0,0,1,.27-.3.73.73,0,0,1,.38-.11h1.76v.79h-1.74a0,0,0,0,0,0,0s0,0,0,0v2.62Z"/><path d="M310.14,133.75v-4.62h.72v2.48h.56l1.14-1.34h.76v.22L312.06,132l1.26,1.52v.22h-.76l-1.14-1.34h-.56v1.34Z"/><path d="M314.25,129.92v-.79H315v.79Zm0,3.83v-3.48H315v3.48Z"/><path d="M316.15,133.75v-3.48h2.47a.73.73,0,0,1,.38.11,1,1,0,0,1,.27.3.87.87,0,0,1,.1.42v2.65h-.71v-2.62a.08.08,0,0,0,0,0,.06.06,0,0,0-.05,0h-1.66a0,0,0,0,0,0,0s0,0,0,0v2.62Z"/><path d="M320.93,135.12v-.79h1.9s0,0,.05,0a.08.08,0,0,0,0-.05v-.51h-1.75a.73.73,0,0,1-.38-.11,1,1,0,0,1-.27-.3.87.87,0,0,1-.1-.42V131.1a.87.87,0,0,1,.1-.42.89.89,0,0,1,.28-.3.67.67,0,0,1,.37-.11h1.72a.73.73,0,0,1,.38.11,1,1,0,0,1,.27.3,1,1,0,0,1,.1.42v3.2a.92.92,0,0,1-.1.41.79.79,0,0,1-.27.3.65.65,0,0,1-.38.11Zm.25-2.16h1.65s0,0,.05,0a.08.08,0,0,0,0-.05v-1.76a.08.08,0,0,0,0,0s0,0-.05,0h-1.65s0,0-.05,0a.08.08,0,0,0,0,0v1.76a.08.08,0,0,0,0,.05S321.16,133,321.18,133Z"/><path d="M258,51V46.16h2.47a.76.76,0,0,1,.38.11,1,1,0,0,1,.27.3.84.84,0,0,1,.1.42v1.82a.8.8,0,0,1-.1.41.79.79,0,0,1-.27.3.68.68,0,0,1-.38.12h-1.75V51Zm.78-2.17h1.66a.06.06,0,0,0,.05,0,.07.07,0,0,0,0,0V47a.07.07,0,0,0,0-.05s0,0-.05,0h-1.66s0,0,0,0,0,0,0,.05v1.76s0,0,0,0S258.76,48.85,258.78,48.85Z"/><path d="M262.92,49.64a.66.66,0,0,1-.38-.12.79.79,0,0,1-.27-.3.8.8,0,0,1-.1-.41V47.5h2.5V47s0,0,0-.05a.05.05,0,0,0,0,0h-2.44v-.78h2.46a.7.7,0,0,1,.38.11.74.74,0,0,1,.28.3.84.84,0,0,1,.1.42v2.65Zm0-.79h1.72v-.64h-1.79v.57a.08.08,0,0,0,0,0A.06.06,0,0,0,263,48.85Z"/><path d="M266.4,49.64V47a1,1,0,0,1,.1-.42,1,1,0,0,1,.28-.3.73.73,0,0,1,.38-.11h1.76v.78h-1.74s0,0,0,0,0,0,0,.05v2.62Z"/><path d="M269.81,49.64V45h.72V47.5h.56l1.14-1.34H273v.21l-1.26,1.53L273,49.42v.22h-.76l-1.14-1.35h-.56v1.35Z"/><path d="M273.92,45.81V45h.72v.79Zm0,3.83V46.16h.72v3.48Z"/><path d="M275.82,49.64V46.16h2.47a.76.76,0,0,1,.38.11,1,1,0,0,1,.27.3.84.84,0,0,1,.1.42v2.65h-.71V47a.08.08,0,0,0,0-.05s0,0-.05,0H276.6s0,0,0,0,0,0,0,.05v2.62Z"/><path d="M280.59,51v-.79h1.91l.05,0a.08.08,0,0,0,0-.05v-.51h-1.75a.64.64,0,0,1-.38-.12.79.79,0,0,1-.27-.3.81.81,0,0,1-.11-.41V47a.85.85,0,0,1,.11-.42,1,1,0,0,1,.27-.3.73.73,0,0,1,.38-.11h1.72a.7.7,0,0,1,.37.11.77.77,0,0,1,.27.3.85.85,0,0,1,.11.42v3.19a.93.93,0,0,1-.1.42.79.79,0,0,1-.27.3.67.67,0,0,1-.38.11Zm.26-2.16h1.65s0,0,.05,0a.08.08,0,0,0,0,0V47a.08.08,0,0,0,0-.05.05.05,0,0,0-.05,0h-1.65a.05.05,0,0,0-.05,0,.08.08,0,0,0,0,.05v1.76a.08.08,0,0,0,0,0S280.83,48.85,280.85,48.85Z"/><image width="2249" height="3238" transform="translate(263.32 61.12) scale(0.01)" xlink:href="../../../../../../../../IronPhoenix-Photos/logo-images/phoenix.png"/><text class="cls-2" transform="translate(118.79 346.66) rotate(-39.94)">Noak <tspan class="cls-3" x="28.44" y="0">H</tspan><tspan x="36.38" y="0">ill </tspan><tspan class="cls-4" x="47.4" y="0">R</tspan><tspan x="53.9" y="0">d</tspan></text><text class="cls-2" transform="translate(10.79 439.77) rotate(-39.94)"><tspan class="cls-5">L</tspan><tspan class="cls-6" x="5.5" y="0">o</tspan><tspan class="cls-7" x="12" y="0">w</tspan><tspan x="20.71" y="0">er </tspan><tspan class="cls-4" x="33.19" y="0">B</tspan><tspan class="cls-8" x="39.74" y="0">ed</tspan><tspan class="cls-9" x="52.52" y="0">f</tspan><tspan class="cls-10" x="55.87" y="0">o</tspan><tspan class="cls-7" x="62.46" y="0">r</tspan><tspan x="66.26" y="0">ds </tspan><tspan class="cls-4" x="80.33" y="0">R</tspan><tspan x="86.83" y="0">d</tspan></text><text class="cls-11" transform="translate(346.4 210.61) rotate(37.75)"><tspan class="cls-12">L</tspan><tspan x="3.66" y="0">e Noke </tspan><tspan class="cls-13" x="28.48" y="0">A</tspan><tspan class="cls-7" x="33.21" y="0">v</tspan><tspan x="36.98" y="0">e</tspan></text><text class="cls-2" transform="matrix(0.53, -0.85, 0.85, 0.53, 330.92, 149.81)">Noak <tspan class="cls-3" x="28.44" y="0">H</tspan><tspan x="36.38" y="0">ill </tspan><tspan class="cls-4" x="47.4" y="0">R</tspan><tspan x="53.9" y="0">d</tspan></text><text class="cls-14" transform="translate(278.55 434.61) rotate(-16.01)">Hailsham <tspan class="cls-15" x="40.83" y="0">R</tspan><tspan class="cls-16" x="46.25" y="0">d</tspan></text><text class="cls-14" transform="translate(290 362.12) rotate(-16.01)"><tspan class="cls-17">A</tspan><tspan x="6.09" y="0">pple</tspan><tspan class="cls-18" x="24.84" y="0">b</tspan><tspan x="30.46" y="0">y Dr</tspan></text><text class="cls-14" transform="translate(280.3 302.06) rotate(-16.01)"><tspan class="cls-19">W</tspan><tspan x="8.41" y="0">hi</tspan><tspan class="cls-20" x="16.3" y="0">t</tspan><tspan class="cls-7" x="19.7" y="0">w</tspan><tspan class="cls-21" x="26.96" y="0">o</tspan><tspan class="cls-22" x="32.45" y="0">r</tspan><tspan x="35.96" y="0">th </tspan><tspan class="cls-13" x="46.94" y="0">A</tspan><tspan class="cls-23" x="52.85" y="0">v</tspan><tspan x="57.56" y="0">e</tspan></text><text class="cls-2" transform="translate(185.92 424.17) rotate(78.71)"><tspan class="cls-24">S</tspan><tspan class="cls-8" x="5.88" y="0">t</tspan><tspan class="cls-25" x="9.85" y="0">r</tspan><tspan x="13.72" y="0">aig</tspan><tspan class="cls-26" x="29.02" y="0">h</tspan><tspan x="35.63" y="0">t </tspan><tspan class="cls-4" x="42.14" y="0">R</tspan><tspan x="48.65" y="0">d</tspan></text><text class="cls-27" transform="matrix(0.17, 0.98, -0.98, 0.17, 154.95, 189.42)">B<tspan class="cls-28" x="4.71" y="0">r</tspan><tspan class="cls-29" x="7.46" y="0">o</tspan><tspan x="12.11" y="0">xhill </tspan><tspan class="cls-30" x="28.94" y="0">R</tspan><tspan x="33.65" y="0">d</tspan></text><text class="cls-31" transform="matrix(0.45, -0.8, 0.87, 0.49, 89.52, 151.36)">S</text><text class="cls-31" transform="matrix(0.55, -0.74, 0.8, 0.6, 91.41, 147.95)">u</text><text class="cls-31" transform="matrix(0.64, -0.66, 0.72, 0.69, 94.01, 144.45)">n</text><text class="cls-31" transform="matrix(0.71, -0.59, 0.64, 0.77, 97.13, 141.26)">s</text><text class="cls-31" transform="matrix(0.76, -0.52, 0.56, 0.83, 99.5, 139.25)">e</text><text class="cls-31" transform="matrix(0.81, -0.45, 0.48, 0.87, 102.84, 137.01)">t</text><text class="cls-31" transform="matrix(0.83, -0.4, 0.43, 0.9, 105.17, 135.73)"> </text><text class="cls-31" transform="matrix(0.86, -0.32, 0.35, 0.94, 106.58, 134.95)">D</text><text class="cls-31" transform="matrix(0.89, -0.23, 0.25, 0.97, 111.65, 133.14)">r</text></svg>