<svg xmlns="http://www.w3.org/2000/svg" viewBox="0 0 123.11 178.91"><defs><style>.cls-1{fill:#464542;}.cls-2{fill:#f08023;}</style></defs><g id="Layer_2" data-name="Layer 2"><g id="Layer_1-2" data-name="Layer 1"><path class="cls-1" d="M75.34,172.83a1.8,1.8,0,0,0,.2.19l.28-.36Zm32.54-20.29c-.33.16-.64.37-1.06.61,0-.6-.1-1.05-.16-1.56l-.67.15a15.61,15.61,0,0,1-1.22-1,1.47,1.47,0,0,1-.4-.68c-.14-.57-.21-1.17-.33-2l.42-.29-1.66-.28a15.55,15.55,0,0,1,1.27-1.66,1.86,1.86,0,0,0-.71-3.25c-.48-.15-1.07.09-1.58,0a3.47,3.47,0,0,1-1.28-.59c-.12-.08-.11-.47,0-.68.2-.57.47-1.11.74-1.75l1.62-.63a3,3,0,0,1-.3-.86c.08-1.35-.82-2-2-1.47a2.17,2.17,0,0,1-1.89.22c-.53-.19-1.88-.23-1.71.53.21.93-1,1.68-.1,2.5-.13.15-.24.4-.4.44a8,8,0,0,1-1.11.13c0-.09-.07-.21-.12-.23a3,3,0,0,1-2.4-3.55l-.7.13,0-.12,1.2-.62a2.87,2.87,0,0,0-2.89.74c-.35.46-.77.8-1.34.24a1.36,1.36,0,0,0-2.29.1c-.61.93-1.82,1.23-2.24,2.35-.16.41-.64.71-.93,1-.65,0-1.35,0-2,0s-1.23,1.07-2.16.7c0,0-.15.24-.26.34-.89.83-1.68,1.83-3.06,1.85.14,1.16.14,1.13-1,1.22a1.87,1.87,0,0,0-1.07.5c-.1.11.12.62.29.9s.52.56.73.87a1.89,1.89,0,0,1,.21.78c0,.08-.34.29-.41.25a3.23,3.23,0,0,1-.57-.54.21.21,0,0,1,0-.11,7.63,7.63,0,0,1-.83,0c-.31-.06-.61-.21-.91-.24-.47,0-.95,0-1.49,0-.11-1.36-1.07-1.32-2.13-1.24a.83.83,0,0,1-.47-.12c.29.34.58.69.86,1.05.74,0,.95.3.9,1.06V148a28.88,28.88,0,0,1,2.15,3.65,1.43,1.43,0,0,0,1.93-.83c.62,1.28-.19,2.23-.26,3.43l-.55-.79v.8a27.59,27.59,0,0,1,1,3.28.11.11,0,0,1,0-.05c.81,1.31,1.57,2.57,2.29,3.74-.5,0-1.12-.11-1.47.14a.7.7,0,0,0-.2.22c0,.64.08,1.29.08,1.94a3.48,3.48,0,0,1,1.18-1c-.17,1.08-.32,2-.5,3.25a6,6,0,0,0,1.28-.43.67.67,0,0,1,1.09.35c.2.77.82,1.58,0,2.4-.23.22-.17.74-.26,1.18l1.78-.42c-.66.69-1.46,1.21-2.13,1.88a18.18,18.18,0,0,0-1.55,1.93l.46-.16c0,.06.06.13.09.2L74.28,174a5.61,5.61,0,0,0,3.31-1.78,5,5,0,0,1,2.32-1.77c1.53-.33,2.34-1.6,3.63-2.22.89-.43,1.61-1,2.6-.5s2.12,1.16,3.14,1.8a4.64,4.64,0,0,0,3.42.28,9.57,9.57,0,0,1,4.08-1.25,2.68,2.68,0,0,0,2.58-1.78,1.21,1.21,0,0,1,.27-.5c.77-.72,1.55-1.42,2.34-2.12a7.11,7.11,0,0,0,1.48-1.28c.81-1.26,1.47-2.61,2.33-4.19l-1.65.82a13.67,13.67,0,0,1,.89-2.63c.37-.63.55-1.08.13-1.72s-.14-1,.52-1.22l.71-.22-.87-.18c0-.3.07-.53.11-.86l-1.24,1.19-.31-.22c.23-.7.47-1.39.69-2.06l1.36.6c.14.35.19.94.46,1.07s.82-.08,1.2-.24a7,7,0,0,0,1.07-.74A2.07,2.07,0,0,0,107.88,152.54Zm-35.09-2.16c-.47,0-1.23.53-1.41-.61-.11-.65-.79-1.2-1.21-1.79l.21-.23H72l.58,1.27.27-.13-.39-.73.29-.18c.36.57.71,1.14,1.06,1.71C73.43,149.94,73.11,150.38,72.79,150.38Zm1.72-.82c-.28.53-.45.37-.73.15h0l0,0h0c0-.49.11-1,.18-1.6C74.5,148.57,74.87,148.84,74.51,149.56Zm27.64-11.7L100.66,139l-.4-.66C100.81,137.92,101.25,137.17,102.15,137.86Zm-3.42-.25.08.17-1.41.52c-.12-.33-.21-.61-.38-1.11Zm-3.47,2.87c.31.44.61.89.92,1.34l-.3.22-1.57-1.21Zm-3.37-1.22c0-.06.29-.09.32,0,.49.64,1,1.29,1.55,2.1-1.48,0-1.55-1-1.93-1.64A.49.49,0,0,1,91.89,139.26Zm-.42-2.6a10.64,10.64,0,0,1,.31,1.84c0,.18-.45.36-.8.61.35.86.56,2,1.78,2.64l-2.39-.39-.06.42L89.2,142C90,140.36,89.82,138.33,91.47,136.66Zm-1.9,1.44a5.7,5.7,0,0,0-.55,1,4.68,4.68,0,0,0-.09,1.05,2.46,2.46,0,0,1-1-.21c-.29-.19-.45-.58-.68-.86s-.42-.47-.69-.77C87.42,137.16,87.57,137,89.57,138.1Zm-3.62,1,1,.69-1.6.49c0-.08-.07-.16-.11-.25Zm-6.35,6c1.9-.11,3.28-1.49,5.09-1.57.75,0,1.5,0,2.25,0l0,.5c-.25,0-.51,0-.75-.06s-.79-.3-1.08-.18a43.53,43.53,0,0,0-4.25,1.88c-1.24.66-1.39,1.14-1.15,2.64l-1.71.12C77.55,146.84,78.13,145.23,79.6,145.14Zm-.29,20.57c-.23-.78-.43-1.56-1.47-1.58-.11,0-.23-.53-.3-.82s-.16-.84-.28-1.46l3.58,3.45Zm1,4.08-.29-.15c.15-.69.31-1.38.41-1.83l1.75.35Zm4.17-3.37-2.44.49c-.23-.49-.51-1.11-.79-1.72l.28-.2,3,1.25A1.09,1.09,0,0,1,84.51,166.42Zm7.42,2.47c-.91.33-1.47-.3-2.14-.66a10.74,10.74,0,0,0-1.37-.52v-.12l5.31.62c0,.06,0,.14,0,.21A16.16,16.16,0,0,0,91.93,168.89Zm6.26-6.51c-.45,1.21-.92,2.42-1.43,3.6a1,1,0,0,1-.67.52c-1.75-.07-3.5-.16-5.24-.31a22.77,22.77,0,0,1-6.36-1.8c-3.23-1.29-6.09-3.15-7.83-6.17s-1.66-5.72,1.15-8.06a4.75,4.75,0,0,1,4.67-.66c.6.2,1.18.44,1.78.64a4.16,4.16,0,0,0,.68.16,31.65,31.65,0,0,1,2-4.33c1.43-2.22,5-3.62,7.65-2.14a9.15,9.15,0,0,1,4.1,5.23C100.25,153.56,99.79,158,98.19,162.38Zm-2.11-19.59c0-.16.1-.32.16-.48l1.76.28-1-1.18,1.39-1.06c-.17-.32-1.34-.55-.44-1.46.29.5.54,1,.8,1.43l.26-.11c0-.33-.11-.7,0-1s.5-.38.76-.56a2,2,0,0,1,.17.78c-.09.62-.26,1.23-.42,1.93l-.58-.33c.09.34.21.71.3,1.09a3,3,0,0,0,2.62,2.16,3.1,3.1,0,0,0,.87-.35l.7.86-1.43.39c-.19.87-.39,1.73-.58,2.58h-.24c0-1-.2-1.86-1.4-2.16l.2-.2,1.13.09Zm4,22.08c.52-.93.71-2.1,1.89-2.83C102.34,163.85,100.71,164,100.13,164.87Zm2.39-2c0-.37.11-.82.17-1.29l1.27.48Zm1.73-6.92L103.08,158s0,0,0,.06h0c-.12.88-.22,1.76-.34,2.64l-.15,0c-.1-.4-.07-.91-.31-1.15s-.76-.23-1.32-.38c.26-1.12.53-2.34.81-3.56l.18,0c0-.75,0-1.51,0-2.26,0-1.1-.18-2.21-.15-3.31,0-.31.48-.61.74-.91.26.29.67.56.73.88a23.83,23.83,0,0,1,.22,2.67l-.44.06-.63-2.47-.27.08c.49,1.62,1,3.23,1.49,5-1.16.39-1.05,1.79-1.53,2.91l1-.19v0l0,0C102.81,156.8,103.1,156.24,104.25,156Z"/><path class="cls-1" d="M111.61,159.31a.69.69,0,0,0-.45-.27c-.37-.1-.76-.14-.91-.17a14.55,14.55,0,0,0-1.23.81,8.83,8.83,0,0,0-.86.87c-.52.53-1,1-1.56,1.59a5.81,5.81,0,0,0-1,1.17c-.57,1.08-1,2.21-1.61,3.46.09,0,.43.19.56.1.87-.65,1.7-1.34,2.51-2,.23-.21.3-.61.55-.78a5.87,5.87,0,0,0,2.39-2.86c0-.12.23-.2.36-.3.42-.35.86-.68,1.25-1.07A.54.54,0,0,0,111.61,159.31Zm-2.85,2.34c-.44-.6-.39-.62.68-1.57a1.93,1.93,0,0,1,1.7-.41Z"/><path class="cls-1" d="M113.11,160.73c0,1-1.38,2.26-2.12,2.16a.77.77,0,0,1-.48-.54c0-.46,1.49-2.14,2-2.11C112.74,160.26,113,160.63,113.11,160.73Z"/><path class="cls-1" d="M98.87,153.23a13.62,13.62,0,0,0-2.3-6.82A5.27,5.27,0,0,0,90.74,144a6.06,6.06,0,0,0-4.58,3.87c-.09.26.09.61.13.92a5.17,5.17,0,0,0,.67-.55,12.15,12.15,0,0,1,1.85-2c2.35-1.54,5-1.2,6.4,1.23,2.39,4.1,2.82,8.54,2.21,13.15-.07.51-.27.93.57,1.11A22.62,22.62,0,0,0,98.87,153.23Zm-.67,1.26c-.27-1.21-.58-2.41-.79-3.63C97.09,149,96,147.6,95,146.08A5.34,5.34,0,0,0,91,144.73a3.73,3.73,0,0,1,4.22,1.17,8.43,8.43,0,0,1,2.63,4.73,31.24,31.24,0,0,1,.49,3.22A1.12,1.12,0,0,1,98.2,154.49Z"/><path class="cls-2" d="M74.12,147.3h0S74.12,147.28,74.12,147.3Zm.6,14.71a4.51,4.51,0,0,1-.29.67c-.47.75-1,1.46-1.48,2.21-.75,1.18-1.46,2.38-2.23,3.56A2.74,2.74,0,0,1,70,169l-.2-.31,2.54-3.57-.25-.18-.55.92-1.11-.17a21.89,21.89,0,0,1,2.44-4.44,4.9,4.9,0,0,0,1-2,27.87,27.87,0,0,1-.6-3.71c-.93-1.31-.58-3.17-2.34-4.15.82,0,1.61.46,2.3.24,0-.55.09-1.08.16-1.62-.2.18-.39.35-.58.35-.47,0-1.23.52-1.41-.62-.1-.64-.79-1.19-1.21-1.79l.21-.23H72c.19.41.38.85.58,1.28l.27-.14-.39-.73.29-.17.78,1.27c.11-.66.24-1.31.4-1.95a3.15,3.15,0,0,1-.62,0c-.31,0-.6-.2-.92-.23s-.94,0-1.48,0c-.11-1.37-1.08-1.32-2.13-1.24a1.29,1.29,0,0,1-.87-.41,9.51,9.51,0,0,1-.75-1c-.74-.9-2.3-.94-2.65,0s-.78.76-1.4.65l.32-.88-2.17.23c.26.73,1.54.92,1.12,2.1-1.36,0-2.75-.09-4.12,0-1.65.14-3.32.32-4.44,1.84s-1,1.6.6,2c0,0,0,.05.07.11-1.26.29-2.68-.23-3.77.76a15,15,0,0,0,1.79-.11c2.58-.15,4.74.61,6.17,2.89.47.74.94.43,1.41,0s1-1,1.56-1.45l.17.17c-.38.46-.75.92-1.14,1.38l.17.24c.29-.06.59-.1.87-.18.73-.23,1.43-.55,2.16-.71,2-.42,4,.28,4.7,2.3a9.17,9.17,0,0,1,.06,6c-.67,1.94-1.67,3.76-2.52,5.63a4.64,4.64,0,0,0-.16.71l1.29.18c-.94.88-1.67,1.63-2.48,2.27-1.42,1.13-2.9,2.18-4.34,3.27-1.05.8-1.63.85-2.49.13-1.75-1.46-3.53-2.88-5.18-4.43-.93-.87-2.25-1.47-2.51-2.94,0-.09-.2-.14-.3-.23a4.82,4.82,0,0,1-.94-.85c-.38-.58-.62-1.24-1-1.84a10.77,10.77,0,0,1-1.76-5.82,8.3,8.3,0,0,1,1.65-4.9,5,5,0,0,0-1.22,1.4,15.75,15.75,0,0,0-.73,1.75c-.13-.27-.27-.53-.4-.78a2.28,2.28,0,0,0-.64.34,17,17,0,0,0-1.87,2.12,8.67,8.67,0,0,1-3,2.7,1.17,1.17,0,0,0-.46.95,6,6,0,0,0,.55,1.43c.38-.49.76-1.08.08-1.68a11.21,11.21,0,0,0,2.28-1.74,5.19,5.19,0,0,1,2.37-1.46c.09.53.19,1,.26,1.47a2.57,2.57,0,0,1,0,1c-.33,1.17-.72,2.31,0,3.48l-.77.23,1.14,1.15a17.69,17.69,0,0,0-1.69.7c-.22.12-.52.52-.47.69s.41.72.7.78a3.18,3.18,0,0,0,2.73-.45c.2-.15.53-.11.8-.16,0,.32-.07.64-.13,1,0,.15-.22.29-.2.43a6,6,0,0,1-.76,3.53,1.82,1.82,0,0,0,0,.74h.26c.54-1.65,2.26-2.94,1.29-5.24a14.46,14.46,0,0,1,1.82,1.15c1.3,1.16,2.56,2.37,3.78,3.52-1.23-.06-1.38,0-1.25.69,1.43-.56,2.11.48,3.06,1.23s1.93,1.43,2,2.76c0-.51.09-1,.14-1.55,1.4.91,1.62.88,2.93-.13.94-.73,1.91-1.42,2.86-2.12l.2.19-1.11,1.33c-.54.62-1.09,1.24-1.62,1.87l.2.17.64-.85c.18.38.29.58.3.62a58.89,58.89,0,0,1,6-6.59l.52,1.74a10.37,10.37,0,0,0,2.85-3c.33-.48.79-.87,1.16-1.32a18.32,18.32,0,0,0,1.45-1.84,12.66,12.66,0,0,1,1.28-1.93C75,162.86,74.87,162.44,74.72,162ZM44.28,166.6l1.7-.74c.19.19.39.39.76.74Zm3.3-1.62-1.21-2.44.34-.16,1.12,2.47Zm10.71-14.65c0-.09.05-.18.08-.28h1.78c.12.4.25.84.45,1.55Zm5.72-.18c-.18,0-.28,0-.31-.05-1-1.6-2.75-1.45-4.27-1.53a4.69,4.69,0,0,0-2.77.79,2.23,2.23,0,0,1-2.24.46,3.08,3.08,0,0,0-.75-.07,2.62,2.62,0,0,1,2.07-2.23,11.09,11.09,0,0,1,2,.32c1.61.24,3.23.43,4.83.75C63.34,148.74,64.19,149,64,150.15Zm1.22-4.84c-.08.24-.19.56-.32,1h-1c.31-.74.7-1.37,1.39-1.42a1.76,1.76,0,0,1,1.4.69,2.13,2.13,0,0,0,2.21,1.2c.94-.07,1.2.21,1.15,1.05a4.42,4.42,0,0,0,.07.79l-1-.52c.11.62.09,1.19.88,1.39.21,0,.29.59.43.91-.3-.05-.61-.09-.9-.16-.62-.12-1.23-.26-1.84-.4-1.14-.27-1.52-1.05-.83-2.25l-1,.45c-.1-.34-.2-.65-.35-1.16l1,.53.12-.1C66.21,146.65,65.75,146,65.23,145.31Zm3.86,9.05c-.52-1.53-2-1.93-3.43-2.19A3.87,3.87,0,0,1,70.24,155c.56,2.12.45,5-.28,6.39a25.22,25.22,0,0,0,0-3A20.64,20.64,0,0,0,69.09,154.36Z"/><path class="cls-2" d="M43.5,175.23l.51.15,2-2.62.33.23-1.7,2.75.73.62c-.82,1-1.31-.44-2.07-.05Z"/><path class="cls-2" d="M50.55,176.31l-.35-.68a16.7,16.7,0,0,1,1.29-2.09,1.2,1.2,0,0,1,1.77-.12,2.29,2.29,0,0,0-1.87,1.94C51.28,175.76,50.79,176.05,50.55,176.31Z"/><path class="cls-2" d="M42.92,164c-.4,1-1.29.18-1.91.46a8,8,0,0,1-2.1.49c1.28-.4,2.35-1.51,3.87-1.1C42.83,163.91,42.87,164,42.92,164Z"/><path class="cls-2" d="M56.64,178.07a10,10,0,0,1-.63-1c-.25-.54-.45-1.11-.65-1.62.35.05,1,0,.91,1,0,.11.32.22.39.37.15.36.23.75.35,1.13Z"/><path class="cls-2" d="M44.38,178.68l2-1.1.15.28-2,1Z"/><path class="cls-1" d="M100.5,50.77l.65-1.39c-2.84.45-3.53,4.5-6.81,3.41l-3.53,3.85-.27-.24,1.1-2.54-.44-.37c-.91.55-2.65,0-2.3,2.23a1.15,1.15,0,0,1-.32.89c-1.28,1.24-2.61,2.44-3.92,3.66A57.5,57.5,0,0,0,79,65.66c-.61.75-.39,2.41-.15,3.57.38,1.8,1.13,3.51,1.66,5.29.62,2,1,4.18,1.8,6.17a5.26,5.26,0,0,0,2.17,2.11c.5-2.83-.47-5.11-1.8-7.45l5.7,2.07-3.1-4.55,1.31-.55-.69-1.58.4-.23c.73,1.4,1.57,2.76,2.17,4.21s1.24,2.5,3.34,1.58L88.91,79l-3.34-1.8v7.45a8,8,0,0,1-.88-.27c-.75-.42-1.49-.86-2.23-1.29a12.81,12.81,0,0,0-.21,2.67A6.3,6.3,0,0,1,80.92,91l-1-3c-.49,1-.8,1.65-1.23,2.54L77,87.5c-2.77,2.21-2.73,2.23-1.39,5.07,1.23,2.62,1.52,5.68,3.83,7.77,1.21,1.1,2.33,2.3,3.58,3.35a9.94,9.94,0,0,1,3.72,5.51c.08.38.65.67,1,.94s.63.32.8.71c-3.2.85-2.71-3-4.92-3.53l-6.87,4.59a5.48,5.48,0,0,0-.28-1.32c-.2-.42-.61-1.06-.9-1a9.94,9.94,0,0,1-6.39-1.75c-.61-.42-1.73-.07-2.8-.07.08-.54,0-1.39.31-1.74,1.7-1.68.65-3.23.07-4.92s-.84-3.49-1.3-5.23a10,10,0,0,0-.89-1.75c-.53.92-.89,1.55-1.26,2.17l-.38-.11c.17-.81.27-1.65.52-2.44.74-2.34.53-2.65-2-2.8a3.42,3.42,0,0,1-.56-.13l1.81-1.43L61,87.86c1-.12,1-.12,4.05,3.27l6.5-7.78L63.81,84.9l-.18-.72L66,83.57a7.35,7.35,0,0,0-1.64-.75c-2.66-.29-4.19-2-5.46-4.12-.61-1-1.37-1.92-2.06-2.87-.24-.32-.51-.6-.74-.92-.35-.49-.67-1-1-1.51l-1.36,1.44-.41,0,.44-2.11-.22.13a15.11,15.11,0,0,1-.61-3.53c.25-4-3.2-8.2-7.14-8.56-.72-.07-1.43-.21-2.14-.32l0,0-2.46-3,2.36-1.23,2.33,1.79-1.13,1.38a11.64,11.64,0,0,0,2.58.39,3.1,3.1,0,0,1,3.22,1.78c2.07,3.76,4,7.6,6.13,11.33a32.55,32.55,0,0,0,3,3.82,9.13,9.13,0,0,1,1.09,1.34c.88,1.73,2,3,4.33,2.85l-.26-1.61,11,4.42c-.15-.94-.29-1.74-.42-2.54l4.2,4.52.46-.47c-.74-2.26-2.55-3.33-4.71-4-.51-3.86-3.25-6-5.74-8.37l-.63.49L72.28,77l-.58.57c-.43-.32-.85-.66-1.29-1s-.88-.69-1.18-.59c-1.88.63-3.72,1.39-5.81,2.19L61.7,76.65c3-3.85-2.11-3.62-3-5.79l3-.7c-.23,2,.64,2.41,3.68,1.42l-3.74-1.37c-.07-1.54-1.26-1.56-2.34-1.71-.48-.07-1.14,0-1.39-.22A39.63,39.63,0,0,1,53.1,62.8C50.17,58.23,46.8,54,41.8,51.35A70.35,70.35,0,0,1,35.44,47c.84-.19,1.38-.49,1.62-.34,3.69,2.41,7.42,4.78,11,7.38,1.06.77,1.66,2.2,2.58,3.49l1.12-2.08c1,3.26,1.52,6.52,4.84,8.44a5.61,5.61,0,0,0-.19-1.27c-2-4.08-4-8.18-6-12.22a10.77,10.77,0,0,0-2.21-2.66c-2.92-2.75-5.89-5.44-8.79-8.09.23-.6.67-1.25.52-1.44-1.41-1.78-2.64-3.91-4.47-5.08a7.61,7.61,0,0,1-3.65-4.62,40,40,0,0,0-1.53-4l-.81.27L31,30l-.29,0L24.49,21l3.09-.27-8-9.49,1.58-.55a6.14,6.14,0,0,0-1.07-1.5c-.89-.65-2-1-2.84-1.7C15.57,6.21,14,4.82,12.43,3.57c.46,1.64,1,3.48,1.47,5.34h0c-.34-.2-.88-.33-1-.62C11.92,5.76,11,3.22,9.76,0l8.46,7.06c.07-1.24.07-1.74.14-2.23a2,2,0,0,1,.77-1.33A8.34,8.34,0,0,1,20,5.18a29.36,29.36,0,0,0,9.4,14.59,33.66,33.66,0,0,1,3.27,3.75c1.73-2.24,1.88-3.17.49-5.2a68.66,68.66,0,0,0-4.23-5.65c-3-3.55-2.24-6.55,2.14-8.12,5.82-2.08,13.45.32,18.12,5.86a5.81,5.81,0,0,0,1.06-1.27c1.22-2.9,3.58-3.49,6.4-3.35a24.53,24.53,0,0,0,3.92-.2c1.19-.13,2.14-.29,3.12.9.55.68,2.05.88,3.08.8,1.73-.13,3.45.23,5.14.23,2.26,0,3.25-1.69,5-2.13,2.15-.54,2.54-.35,2.55,1.88-1.45-.53-2.08.5-2.49,1.5a4.18,4.18,0,0,0,0,3.49c.89-1.87,1.64-3.46,2.39-5,0,.54.3,1.35,0,1.58-2.11,1.93-.86,3.27.86,4.77C82.84,11,84.51,12.49,86,15.29c.22-2.67,1.27-4.25,3.59-5.15C92.88,8.86,96.24,8.05,99.73,9c2.69.71,3.63,3.21,2.93,6.81a6.56,6.56,0,0,1-3.35,5A32.15,32.15,0,0,0,96,23.09l5.36,6.59,4.56-4.06-.56-.73L103,26.49c0-.23-.07-.45,0-.52,2.08-1.81,4.08-3.72,6.3-5.33.85-.62,1.43-1,1.25-2.1a25.6,25.6,0,0,1-.29-2.91c0-1,0-1.91,0-3.29a21.79,21.79,0,0,0,2.6,2.08c3.42,1.89,4.36,5.37,5.36,8.65.48,1.58-.07,3.47-.13,5.21,0,.44,0,.88.07,1.55,2.32-1.26,3-3.33,3.57-5.69,2,1.72,1.52,3.54.88,5.21a22.06,22.06,0,0,1-2,3.1c-.84,1.39-2.32,1-3.53,1.42a3,3,0,0,0-1.62,1c-1.74,3-4.62,4.7-7.24,6.71a13,13,0,0,0-3.41,3.13c-.48.81.09,2.24.2,3.39l-1.67,1.18-2.79,1.43Zm4.76-8.61-1.69.85,1.72-5.82a1.67,1.67,0,0,1,0-.32s.16-.08.17-.07c.24.42.67.84.67,1.26a7.49,7.49,0,0,1-.5,1.85l.48.17c1.5-2.78,3.06-5.55,4.47-8.38.26-.53,0-1.33-.07-2,2.5,0,5.67-5.1,4.62-7.77l-1.51,1.4c.08-1.59.92-3,.81-4.24s-1.22-2.27-1.9-3.4l-.59.23c0,1.06-.44,2.51.08,3.11,1.76,2,.43,3.24-.84,5l.63-3.29-.5-.16-7.87,10.32.47.47h1.15c-.62,1.52-1.27,2.94-1.75,4.41a5.72,5.72,0,0,0,0,1.84l1.93-.37c-.46,1-1.19,2.23-2.28,1.45-2.11-1.53-2.35.2-3,1.36a9.42,9.42,0,0,1-.89,1.47C95.72,45.29,92.31,49.08,89,52.78c3.64.41,6.33-1.15,7.31-5.46l.46.35L96.55,51a.86.86,0,0,0,.43-.15c2.52-2.37,5-4.73,7.53-7.15a5.39,5.39,0,0,0,.71-1.55c1.08-.8,2.17-1.59,3.23-2.42.34-.26.8-.94.85-.9,1.46.95,2.07-.47,2.83-1.08,3-2.4,3.79-5.78,4-9.38,0-.34-.39-.71-.6-1.06a4.59,4.59,0,0,0-.91.84c-.59.94-1.05,1.95-1.65,2.87q-1.91,3-3.88,5.83C107.84,38.63,106.53,40.39,105.26,42.16ZM52.09,15.33l.24-.45c1.35-1.76,2.47-3.59,1.9-5.94a5.89,5.89,0,0,0-.64-1.28c-.37.22-.86.35-1.1.67C51.2,10,49.8,11.63,50,14.08c.11,1.94-.67,2.47-2.09,2,1.12-2.86.82-4.15-1.56-6.46a12.06,12.06,0,0,0-1.5-1.26c-4.11-2.79-8.57-3.89-13.43-2.44-2.1.63-3.2,2.29-2.32,3.81,1.51,2.6,3.4,5,5.14,7.43l.73-.37a9.47,9.47,0,0,0-.73-2.14c-.61-1-1.48-1.84-2.12-2.82C30.71,9.7,31.43,8.23,33.91,8a11.5,11.5,0,0,1,8.51,2.91A4.93,4.93,0,0,1,43.81,13c.46,1.3-.25,2.15-1.47,2.54s-2,.1-2.14-1.39c-.05-.51-.59-1-.8-1.31L37,16.39l1.16,1L35.68,18c-.33,1.69-.58,3.15-.88,4.61a25.2,25.2,0,0,0-.63,2.67c-.15,1.72-.35,3.5,1,4.95,3.09-2,3.93-4.58,2.8-8.44-.84-2.84.57-4.69,3.53-4.67,1.31,0,2.62,0,3.93,0,2-.1,2.33.26,1.73,2.2-.73,2.38-1.49,4.75-2.09,7.16a7.57,7.57,0,0,0,.21,2.38l.71,0c.19-.66.37-1.32.56-2q.91-3.1,1.84-6.19a3.19,3.19,0,0,1,3.33-2.25,3,3,0,0,1,2,.89c.27.31.08,1.25-.17,1.77-.49,1-1.26,1.85-1.74,2.84a11.78,11.78,0,0,0-.6,2.39,10.38,10.38,0,0,0,2.51-.15,41.69,41.69,0,0,0,3.91-1.61l.59,1.89a18.56,18.56,0,0,0,2.07-.82,22.47,22.47,0,0,0,2-1.39c.86,2.4,1.47,2.57,2.92,1.14-.48-.41-1.45-1-1.37-1.2A27.34,27.34,0,0,1,66,20a11,11,0,0,1,2,.68l.43-2.49c-.82.11-1.91-.06-2.42.41A22.64,22.64,0,0,0,63.29,22c-.39.54-.73,1.12-1.09,1.67l-.4-.25.83-4.87-.5-.08a30,30,0,0,1-1.3,4.26c-.27.57-1.25.8-1.9,1.18a7,7,0,0,1-.66-2.19A12.16,12.16,0,0,1,59,19.06l-.79-.26A30.81,30.81,0,0,0,57,22.38c-.34,1.68-1,2.12-3.05,1.53.55-1.11,1.1-2.18,1.6-3.28,1.22-2.63.67-3.46-2.22-3.37C51.34,17.32,51.26,17.18,52.09,15.33Zm4.33,13.24a7.58,7.58,0,0,1,.67-.59c1.51,1.3,2.93.94,4.37-.11a.75.75,0,0,1,.71.06c.84.88,1.64,1.41,2.82.48.87-.67,1.9-1.14,2.78-1.8.25-.19.23-.75.38-1.31-2.35.27-4.23,3.7-6.48.43a4.75,4.75,0,0,0-.75.51c-1.25,1.36-2.53,1.78-4,.32a1.41,1.41,0,0,0-1.22-.31c-1.24.47-2.43,1.07-3.65,1.62,1.38,2.28,3,.79,4.45.65-3.18,3.15-4.81-.2-7.09-2l-1.09,5-.62-.17c.66-2.49,1.27-5,2-7.47.32-1.09.58-2.29,2.22-2.33.37,0,.72-1.05,1.07-1.62-.49-.2-1.13-.69-1.47-.54-.88.4-2.11.92-2.37,1.67-1.19,3.57-2.1,7.22-3,10.6-4.29-2.94-1.88-6.95-1-10.85A6.84,6.84,0,0,0,44,20.3c-2.88-.8-3.42-.25-2.7,2.68a8.8,8.8,0,0,1-1.56,7.81,2.92,2.92,0,0,0,0,4c1.11,1.44,2.27,2.82,3.38,4.25a5.27,5.27,0,0,1,.54,1.09,6.16,6.16,0,0,0,.73,1.6c2,2.29,4.13,4.56,6.27,6.76a33.46,33.46,0,0,0,2.8,2.35c-.3,5.45,3,11.19,7.08,12.29l-4-5.55L57.2,57l3,2.73.39-.36c-.93-1.09-1.83-2.21-2.79-3.28-.6-.68-1.34-1.24-1.93-1.93-.89-1-1.7-2.14-2.54-3.22L52.1,48a29.71,29.71,0,0,1,3.66,3.79C56.85,53,58,54.21,59.11,55.42l.43-.39c-.49-2-1.68-4,.74-5.86A40,40,0,0,0,71,58.77l-5.42-5.32c2-.12,3.85-.21,4.33,2a1.2,1.2,0,0,0,.48.62c2.49,1.85,5,3.69,7.6,5.61l.92-1.54-1.55-.34c1.78-1.94,3.4-3.72,5-5.48,3.08-3.29,6.2-6.54,9.27-9.84,1.71-1.84,3.37-3.74,5-5.68a1.72,1.72,0,0,0,.15-1.62q-3.64-4.76-7.49-9.33c-.25-.3-1.18-.3-1.65-.1-2,.84-3.94,1.74-5.84,2.76s-3.31.94-4.38-1.1c-.22-.4-.76-.63-1.15-.94l0,.56c-1.33.24-3,.09-3.91.82-2.23,1.72-2.71-.57-3.84-1.33-.29-.19-.43-.58-.67-.93-2.11.93-3.86,3.66-6.4.83C59.75,30.66,58.08,29.52,56.42,28.57ZM79.48,27a54.68,54.68,0,0,0,5.35-2.88c1.58-1.09,2.57-.65,3.66.63,2.46,2.9,5,5.75,7.52,8.58.61.68,1,2,2.48.93,1.27-.9,2-1.65,1.22-3.36a18.44,18.44,0,0,0-7.13-8.17c-.69-.44-1.36-.9-2.33-1.55,1-.62,1.76-1,2.45-1.48,2.4-1.58,4.87-3.07,7.15-4.81.75-.58,1.58-2,1.33-2.7a4,4,0,0,0-2.62-2c-3.64-.83-7,.18-10.09,2.16-.31.2-.45.64-.66,1a20.83,20.83,0,0,0,3.64-.91c1.3-.31,2.89-.91,3.78.56a2.93,2.93,0,0,1-.91,3.88,36.69,36.69,0,0,1-5.6,3.54c-.42.21-1.59-.37-2-.9a52.86,52.86,0,0,1-2.88-4.45c-.77-1.23-1.47-1.16-2.1.1-.2.41-.36.83-.55,1.28,2.57,0,2.57,2.46,4.3,3.91C82,21.47,79.84,23.26,79.48,27Zm-7-15.19c1,1.09,1.71,1.92,2.51,2.65.27.25.78.25,1.18.37a5.22,5.22,0,0,0,.22-1.07c-.09-2.1-.22-4.2-.35-6.55l-1.92,3.34c-1.32-3-4.15,0-5.69-1.84a6.35,6.35,0,0,0-.93.94c-.58.82-1.09,1.68-1.72,2.69-.61-.7-1.09-1.67-1.46-1.63-1.94.24-1.24-1-1-2.22-1.57.58-1.88,3.43-3.71,1.85-.5-.43,0-2.06.08-3.39l-2.83.36c1.67,1.86,1.48,2.93-.49,3.87-.29.14-.46.53-.69.8.36.2.72.59,1.05.56.91-.07,1.81-.46,2.7-.45a16.86,16.86,0,0,1,2.87.48,11.26,11.26,0,0,1,1.85.23c1.38.44,2.8,1.48,4.07,1.3s2.08-.41,2.93,1.23C71.67,14.07,72,13.2,72.5,11.84ZM69.09,88.29a31.77,31.77,0,0,0-2.52,4.88,3.51,3.51,0,0,0,1,2.71,30.78,30.78,0,0,0,3.91,3.56c1.3,1,2.7,1.92,4.06,2.88A108.6,108.6,0,0,1,69.09,88.29ZM35.53,31.44l-.09.64c.77.07,1.93.49,2.25.15,2.12-2.29,3.92-4.79,3.3-8.23-.24-1.31-.35-2.64-.51-4,1.4-.1,2.8-.29,4.19-.28,1.2,0,1.91-.25,1.77-1.78H44.09c-.78,0-1.57,0-2.35,0-2.37-.15-3.65,1.35-3,3.61,1,3.19.7,6.08-1.86,8.48C36.42,30.48,36,31,35.53,31.44Zm18.81-18L53,16.1l.58.48,1.85-1.91c1.47.07,2.6.05,3.72.19s2.26.47,3.4.72a21.12,21.12,0,0,1,4.64.46c2.48.62,4.88,1.12,7.27-.77L73.34,14c-1,.71-1.81,1.68-2.65,1.72a11.13,11.13,0,0,1-3.61-.87c-1.6-.48-3.1-1.67-4.89-.54a.9.9,0,0,1-.81-.29c-.53-1.75-1.78-1.08-2.9-1S56,13.3,54.34,13.42Zm21,11c-1.75,0-1.71-.79-1.08-1.85a27.21,27.21,0,0,0,1.6-2.69,5.25,5.25,0,0,0,.12-1.79,5,5,0,0,0-1.67,0c-1.43.5-2.79,1.88-4.08-.28a47,47,0,0,0-1.08,4.64,30.76,30.76,0,0,0,0,4l.86,0a23,23,0,0,1,.57-3.13A13.74,13.74,0,0,1,72,20.09c.19-.29,1-.18,1.53-.26a5.17,5.17,0,0,1,0,1.42c-.22.75-.7,1.43-.89,2.18a23.9,23.9,0,0,0-.38,2.82L74.88,25C75,25,75,24.81,75.3,24.42Zm2.46,4.24c.45.77.95,2.29,2.43,1.75,2.83-1.05,5.52-2.47,8.38-3.78-1-1.81-1.69-2.77-3.61-1.55A76.62,76.62,0,0,1,77.76,28.66Zm14.58-7.61,0,.76c1,.25,2.13,1,2.81.66a22.56,22.56,0,0,0,5.08-3.29,4.88,4.88,0,0,0,1.72-4.64c-1.71,1.31-3.17,2.53-4.73,3.59S94,20.08,92.34,21.05ZM33.21,12.34a5.48,5.48,0,0,0,.85-.22c2.92-1.63,5.5-.86,7.15,2,.16.28.9.22,1.37.32,0-.68.33-1.59,0-2A9.38,9.38,0,0,0,35.1,8.91c-.88,0-2.17.22-2.55.81S32.93,11.39,33.21,12.34ZM72.35,91.72a31.41,31.41,0,0,0,2.49-4,3.92,3.92,0,0,0,.22-2.84,2.48,2.48,0,0,0-2.26-.85,2,2,0,0,0-1.5,2.58C71.74,88.4,72,90.18,72.35,91.72ZM93.89,14.86l-.39-.45-6.67,2.48c.92,2.44,1.39,2.63,3.55,1.21a17,17,0,0,0,2.23-1.59A10.52,10.52,0,0,0,93.89,14.86ZM97.2,36.49c1.21,1.71,1.33,1.76,2.57,1,2.67-1.64,3-2.76,1.78-5.25ZM79,106.54c.7-2.32-.47-4.66-1.73-4.12-1.92.82-3.73,1.4-5.73.41-.1,0-.33.17-.49.27a2.08,2.08,0,0,0,3.1,1.31,2.47,2.47,0,0,1,3.29.67C77.85,105.53,78.33,105.93,79,106.54ZM76,77.92l.76,0,1.46-1.58,2.42,3.38.42-.24c-.49-1.18-.89-2.41-1.49-3.53a8.6,8.6,0,0,0-1.74-2.12c-.13-.12-1.1.29-1.19.61A27.83,27.83,0,0,0,76,77.92ZM71.88,27.31l-2.24,1.08,1,1.5.69-1.53c1.12.32,2.12.94,2.92.75s1.61-1.17,2.47-1.85l-1.13-1.41C74.11,26.32,73.1,28.56,71.88,27.31Zm1.19,36.85.52-.55c-.85-.74-1.67-1.54-2.58-2.2a1.26,1.26,0,0,0-1.18,0,1.53,1.53,0,0,0-.21,1.37c1,1.63,2.11,3.18,3.45,5.15.56-2.59-1.52-3.6-1.81-5.37Zm3.72-37.94.89.09c.16-.73.35-1.46.48-2.2A24.06,24.06,0,0,1,79,19.56c.53-1.36,0-1.83-1.2-2.51C77.44,20.26,77.12,23.24,76.79,26.22ZM71.4,72l-.28.39,3.4,2.93c1.22-2.64,1-3.52-1.31-5.33l.37,3.13ZM59,64.11l-.54.88c2.57,1.57,5.46,2.57,8.07,4.06l.27-.47ZM79.1,24.71,82.26,18C79.93,18.51,78.66,20.92,79.1,24.71Zm9.46,25.58.45.42L95,44.35l-.57-.52ZM71,69.9l.79-.88L67,64.86l-.51.53ZM58.85,23l.67.12A43.11,43.11,0,0,0,61,18.76a2,2,0,0,0-.86-1.56c-.4-.27-1.13-.06-1.71-.06l-.38.6c2.65-.14,2,1.1,1.52,2.35A27.33,27.33,0,0,0,58.85,23ZM82.1,59.33l-.61-.45L78.19,63l.54.43C80.68,62.74,81.22,60.89,82.1,59.33ZM94.35,13.42a7.09,7.09,0,0,0-7,2.43ZM83.89,57.05l.42.37,3.43-3.68C85.32,53.56,84.28,54.58,83.89,57.05Zm-49-45-.26,1.2,2.31,1,.43-1.93ZM61.87,55.34c.5,3.4.93,4.07,3,4.49C63.83,58.3,63,57,61.87,55.34Zm4.61-38.88-3.27-.33c.44.86.73,1.43,1.09,2.12Z"/><path class="cls-1" d="M28.29,118.2,27,117.26l1.48-1.84a3.62,3.62,0,0,0-.93-1.34c-1.48-1-.73-1.64.11-2.42s2.18-1.5,2.34-2.42c.38-2.13,1.79-2.75,3.42-3.45.25-.11.32-1,.25-1.42-.56-4-.94-8.11-1.83-12.08-1-4.41-.9-5.14,3-7.74,1.79-1.19,2.64-3.71,1.44-5.39a4.45,4.45,0,0,0-3-1.21c-2.91-.17-5.84,0-8.75-.14a11.34,11.34,0,0,1-2.72-.88c4.14-4,5.62-5.08,7.23-2.3a6.44,6.44,0,0,0-2.08.05c-.55.2-.94.8-1.76,1.56,3.81.38,7,.63,10.21,1.07a2.88,2.88,0,0,1,1.8,1.36,6.38,6.38,0,0,1-2,8.16L34,87.62l2.83,2c.24-.32.66-.89,1-1.49,0,0-.51-.38-1.13-.85l4-1.88-.81-1.07c1.13.3,2.11.29,2.61.77.74.7,1.29,1,2.22.48.07,0,.89.92.82,1-1.81,2.5.7,3.66,1.44,5.36l.46-.16a7.23,7.23,0,0,1-.57-1.4,12.81,12.81,0,0,1-.39-3.29c.12-1.39-1.84-4.89-3.71-5.89l2.71-.32c.79,1.38,1.59,2.75,2.36,4.13a2.4,2.4,0,0,1,.37,1.1c0,5.09,2.7,9.28,4.33,13.83.39,1.11.06,2.48.06,3.73l-.6,0a11.46,11.46,0,0,0-.44-3.51c-.41-.92-1.5-1.55-2.39-2.41,1.08-1.55.71-3.14-1.9-5.08A44.59,44.59,0,0,0,48,98a43.79,43.79,0,0,0,1.92,5.1L47.43,101c-.49,3,2,3,3.69,3.84l-.28.44c-.88,0-1.75,0-2.63,0-.57,0-1.14.1-1.72.16.1.63,0,1.48.35,1.82s1.23.28,1.88.33a2.61,2.61,0,0,1,1-.2l-1.5,8.6a.69.69,0,0,1-.15.36c-2.64,2.57-2.48,6-2.93,9.27-.35,2.57-1.07,5.1-1.61,7.65a4.81,4.81,0,0,0,0,.93l.57.25L47,128.25c.75,1.27,2,1.75,3.83,1.3,1-.25,2.54,2.49,2.6,4.64-.47-.62-.77-1-1-1.35-1.09-1.82-1.88-1.87-3.35-.4-.29.29-1,.11-1.57.16s-1.22-.08-1.56.21c-.62.53-1,1.36-1.56,2a15.66,15.66,0,0,1-1.73,1.42l-2.53-1-.35-2.93c1.6.22,3.08.2,2.34-2.12,2.81-6.1,3-12.88,5-19.19a6.29,6.29,0,0,0-.11-2,4.54,4.54,0,0,1-1.59.65c-2.55,0-2.26,2.26-3.23,3.82l-.85-1.93-1.2.57.63-2.76c-2.37-.21-1.91,1.66-2.3,3l-1.28-.55-3.73,1.91.71.87c-.13-.38-.25-.76-.25-.74l-3.32-1.14.09-.94c1-.17,2-.38,3.05-.49.43-.05.95.31,1.32.17a3.38,3.38,0,0,0,1.3-1c.11-.13-.14-.83-.22-.83a9,9,0,0,0-1.52.25,2.16,2.16,0,0,0-.17-.61c-.36-.6-.76-1.18-1.14-1.76a11.26,11.26,0,0,0-2.11,1.45c-.75.78-1.12,2-2,2.57-1.65,1.07-1.33,2-.19,3.06.38.36.81.66,1.2,1l-2,2.82Zm11-27.13.7.08,3.19,7.55c1.92-1.75,2.94-4.89,2.16-6.87a30.19,30.19,0,0,0-1.87-3.19c-1.48-2.7-2.6-2.77-4.54-.29-.86,1.1-1.83,2.1-2.94,3.35l-.94-2.45-1.24,1,2.21,5.53Zm.3,1.51c-3.4,2.29-.45,4.63-.62,6.8-.1,1.38,1.61,3.55,3.73,4.07l.66-.35Zm6.58,15.24L44,106.37l-1.17,2.38.42.32ZM41,105.44l-2.76-2.75C38.33,105.37,38.92,106,41,105.44Z"/><path class="cls-1" d="M73.13,115.48l-3,.76-.18.58a6.11,6.11,0,0,0,1.93,1A5.93,5.93,0,0,1,76.49,120,3,3,0,0,0,78,121.18c2.18.45,3.09,2.15,3.82,3.88.8,1.91,1.3,3.95,1.94,5.92a5.61,5.61,0,0,0,1.12,2.09l-.33-4.18.42-.21c.33.48.87.92,1,1.44.6,3.73,1.21,7.47,1.59,11.23.13,1.26-.33,2.67-2.34,2.31v-2.87c-1.19,1.68-.58,4.33-3.24,5.3.77-2.69,1.58-5.21,2.15-7.78a3.1,3.1,0,0,0-.59-2.55c-.66-.59-1.85-.58-3.12-.92.2,1.26.3,1.9.37,2.39-1.21.13-2.66-.11-3.51.49s-1.18,2.07-2,3.1a14,14,0,0,1,.66-3.33c1.89-4.17.78-7.83-1.5-11.45a58.64,58.64,0,0,0-9-10.5c-1.59-1.56-2.12-4.2-3.06-6.39-.45-1.05-.18-2.68-2.2-2.26-.25,0-.74-.46-.92-.81a11.12,11.12,0,0,1-.91-2.43,2,2,0,0,1,.34-1.33,5.45,5.45,0,0,0,1.21-4c-.19-1.94,1.06-4,1.82-6,.14-.38.89-.52,1.15-.66-.6,2.79-1.18,5.52-1.77,8.25l.66.15.44-1.88.62.09a10.41,10.41,0,0,1-.54,2.48c-1.11,2.22-.59,3.44.48,5.55,2.11,4.2,6,6.09,9.55,8.52C72.56,115,72.74,115.14,73.13,115.48Zm9.12,16.19.72-.24c-1.61-3-.77-7.16-4.56-9.31C79.73,125.39,81,128.53,82.25,131.67ZM79,130.44h.63c1.25-1.48.37-2.84-.86-4.19ZM77.42,126l-.85.15.54,3.18.93-.17Z"/><path class="cls-1" d="M10.84,28.8,7.52,24.16l.2-.34,4.73,2.53C11,22.58,9.92,19.09,6.47,17l.38-.58,6,1.61L9.52,7.28l.83-.4C10.9,7.59,11.5,8.26,12,9c.73,1.11,1.33,1.15,1.92-.1h0a13.18,13.18,0,0,1,.73,8.89c-.23.8,1.08,2,1.68,3.07l.53-.28-1.05-2a3,3,0,0,1,2.05,3.62c-.14.4-.5,1-.34,1.2,1.43,1.83,2.65,4.11,4.53,5.24,3,1.82,5.07,4.49,7.41,6.92.24.24.45.86.31,1-1.24,1.7.21,2.72,1.07,3.65a29.86,29.86,0,0,0,3.29,2.4,11.21,11.21,0,0,1,2.43,2.78c-3.2-1.92-6.71-3.22-9-6.45-1.13-1.56-3.33-2.38-5.11-3.43-2.83-1.68-5.72-3.26-8.59-4.89l-.29.46,3.31,2.34-.37.66a7.61,7.61,0,0,1-2.15-1.15C13,31.63,12,30.16,10.8,28.75Zm2.25-8.46-.64.46,1.39,2.57-1.41-.43-.36.41c.79.86,1.6,1.71,2.35,2.61.43.53,1.17,1.28,1,1.71-.39,1.29.49,1.84,1,2.72C17.76,32.55,20.13,32.88,22,34c1,.58,2.05,1,3.23,1.54Zm-.26-9.21-.86.19,1,4.76.89-.19ZM23.34,30.71l-.48.43L25.31,34l.69-.63Z"/><path class="cls-1" d="M54.46,123.9c2,1.45,3.35.28,5.14-.58-1.59-2.71-3.16-5.36-4.83-8.22,2.28.3,5.12,3.12,5.74,5.22.73,2.5,1.23,5.23,4.6,5.87l-.6,1.91c1.8-1,2.46-.1,3,1.09H65.94c.15.5.15,1.14.47,1.47a8.14,8.14,0,0,1,2.66,5.11,7.83,7.83,0,0,0,.47,1.52l.8-.59c-1.32,2.65-2.66,5.3-3.94,8-.85,1.76-2.44,1.88-4,1.71s-1.35-1.62-1.72-2.72c-.9-2.71-2.05-5.34-3-8-1.12-3.33-2.13-6.7-3.14-10.07A6.91,6.91,0,0,1,54.46,123.9Zm11.23,15.69,1-.31a11.39,11.39,0,0,0-.78-2.66A35.1,35.1,0,0,0,63.21,133c-1.09-1.41-1.76-2.77.36-3.83-2.65-3.26-3-3.35-5.08-1.44-1.12,1-.87,2.18.92,3.86l1-1.47ZM62.8,131c1.76,2.37,3.33,4.49,5.06,6.84C68,134.49,66.32,130.5,62.8,131Zm1,12.81.49.23c.41-.61,1.07-1.18,1.19-1.84.35-2-1.46-2.55-2.63-3.56C63.14,140.38,63.45,142.1,63.77,143.83Zm-5.61-11.41-.33.11c.39,1.25.69,2.53,1.2,3.73.19.46.83.74,1.27,1.1.07-.64.42-1.43.17-1.88A28.2,28.2,0,0,0,58.16,132.42ZM59.65,138l2,5C62.88,140.35,62.44,139.23,59.65,138Z"/><path class="cls-1" d="M17.14,132.66l-1.09-1.51.46-.55c.49.37,1.24.64,1.42,1.13,1.51,4.08,5.09,4.93,8.71,5.61,2,.37,3.67.08,4.95-2.05,1-1.64,2.83-2.77,4.71-4.51l-3.5-.3a16.35,16.35,0,0,1,2.1-1.92c1.33-.81,1.89-1.74.71-3.17l4.24-3.27a15,15,0,0,0-.86,1.51c-.5,1.27-.89,2.59-1.48,3.81a12.08,12.08,0,0,1-1.7,2.08l2.35.81-3.33,3.51.31.36,2-1c-1.18,2.4-3.46,3.35-5.67,4.27a9.14,9.14,0,0,1-8.67-.36c-.11-.06-.26-.2-.34-.18-4.27,1.53-3.91-2-4.74-4.29a.37.37,0,0,0-.28-.21c-.08,0-.17.14-.25.21Z"/><path class="cls-1" d="M103.25,49.3l1.67-1.18c.91-1.51,1.59-3.26,2.8-4.48a64.21,64.21,0,0,1,7.34-6.06c-3.33,5.38-6.34,11.05-12.45,13.92l-.56-.37Z"/><path class="cls-1" d="M39.08,54.76c-.53.71-1,1.69-1.26,1.65a15.54,15.54,0,0,1-3-1l-.1-.77,1.37-.52-11.18-7c3.6-.5,8.38,1.15,8.76,3.2l-2.9-1-.29.6L38.21,54l.45-.48-2-2.46.25-.26c1.27,1,2.55,1.89,3.77,2.88.15.12.09.82,0,.83A14.39,14.39,0,0,1,39.08,54.76Z"/><path class="cls-1" d="M41.89,75.11c-1.26-1.25-2.33-2.31-4-.59l-.29-.47,1.94-3,3,3c1.72,1.71-1.43,2-1,3.31,3.27,1.27,4.92-.37,5.63-3.38.28,1.24.83,2.32.65,3.28A2.76,2.76,0,0,1,46,79.12,20.12,20.12,0,0,1,41,79a1.94,1.94,0,0,1-1.32-1.2c-.1-.45.42-1.1.8-1.56A8.9,8.9,0,0,1,41.89,75.11Z"/><path class="cls-1" d="M16,69.64l2.45,2.87a9.27,9.27,0,0,1,1.93-2.41,10.18,10.18,0,0,1,3.08-.88A42.29,42.29,0,0,1,20,72.73a3.35,3.35,0,0,1-2.29.48,16.21,16.21,0,0,1-3-1c.05-.81-.3-2.22.24-2.78a46.19,46.19,0,0,1,5-4l.62.54-1.72,2.73,2-.52A4.42,4.42,0,0,1,16,69.64Z"/><path class="cls-1" d="M95.72,126.12c1.39,2.66,4,4.76,3.13,8.58,2.5-.54,3.64,1,5,2.84l-1.54.49c-1.09.36-2.71.21-1.58,2.31.26.49-.7,1.63-1.39,2.21a14,14,0,0,1-.17-3.34c.13-.74.9-1.37,1.39-2.05.23-.31.47-.61.7-.91a3.1,3.1,0,0,0-1-.29c-2.65,0-2.51,0-2.42-2.61a8.71,8.71,0,0,0-1-3.43c-.5-1.16-1.17-2.24-1.77-3.35Z"/><path class="cls-1" d="M110.53,53.32c4-3.31,6.19-7.73,8.58-12.07.78,1.18-.2,6-1.35,7.26C113.84,52.8,112.08,54,110.53,53.32Z"/><path class="cls-1" d="M93.61,76l.25-1.39-3.32-.52,0-.75a58.43,58.43,0,0,1,7.54-1.41c1.94-.13,3.08,1.33,3.43,3.71-1.19-.31-2.42-.33-3.27-.91-1.56-1.08-2.61-.76-3.63.62C94.47,75.58,94.15,75.68,93.61,76Z"/><path class="cls-1" d="M32.3,34.38,29.41,32l-.4.34,5.54,7.46-.36.33c-1.15-1.26-2.36-2.46-3.43-3.78-2.17-2.68-4.27-5.41-6.37-8.14a4.76,4.76,0,0,1-.47-1.28c.34,0,.8-.21,1-.06,2.31,1.82,4.6,3.67,6.83,5.58a5.45,5.45,0,0,1,.93,1.68Z"/><path class="cls-1" d="M53.87,93c1,0,1.64-.18,1.88,0a1.87,1.87,0,0,1,.19,1.39c-.24,1.71-1.1,3.43.1,5.31l3.57-6.87.79.43c-2.13,2.66-1.75,6.58-4.71,9C53.11,99.45,56.15,96.05,53.87,93Z"/><path class="cls-1" d="M28.24,118.25c2.72.56,5.38,1.36,7.36,3.43,1.2,1.24-.22,1.81-.91,2.75-.25-2.49-1.44-3.52-3.8-3.51a10.26,10.26,0,0,1-1.57-.07c-2.55-.39-2.64-.64-1-2.65Z"/><path class="cls-1" d="M115.57,70.6c-4.31.11-8-2.57-11.85.07l-.14-.58c.2-.25.35-.58.61-.73,2.07-1.17,4.73-.46,6.71-2,.19-.15,1,.26,1.37.56C113.25,68.6,114.16,69.42,115.57,70.6Z"/><path class="cls-1" d="M69.63,121.81l-2.29,3.49c-1.29-1.69-1.6-1.71-2.52,0l-1.63-2.76a9.69,9.69,0,0,0,2,.46,4.24,4.24,0,0,0,1.72-.39c.22-.1.25-.63.37-1l-1.63-.53-.41-1.69C67.49,118.64,68.66,120,69.63,121.81Z"/><path class="cls-1" d="M110.45,55.25c.48,2.17-1.8,2.21-2.85,3.34l.84,1.75-5.39.43a29.36,29.36,0,0,1,3.43-3.54A24.1,24.1,0,0,1,110.45,55.25Z"/><path class="cls-1" d="M100.46,50.73c1.77,2.2,2.46,2.35,4.61.8-.16.78-.09,1.69-.46,1.93-1.49,1-3.11,1.77-4.69,2.62l-.42-.6,2.21-1.21c-1.67-1.28-2.64-2.14-1.2-3.49Z"/><path class="cls-1" d="M106.32,62.49c-1.13,3.14-3.43,4.53-5.86,3.54C102.19,64.53,103.12,61.78,106.32,62.49Z"/><path class="cls-1" d="M14.33,133.51,17,137.06c-2.45-.75-3.23-3.25-5.75-3.73-1.86-.36-3.33-2.73-4.68-3.94,1.93,0,2.07.37,3.69,2.05,1,1.07,2.75,1.45,4.15,2.14Z"/><path class="cls-1" d="M28.92,44.74c2.83-1.16,3-1.07,6,3.62a7.87,7.87,0,0,1-1.5-.56c-1.51-1-3-2.08-4.48-3.12Z"/><path class="cls-1" d="M14.39,133.58c-.35-3.32-3.45-4-5.46-5.81,2.92.66,5.42,1.85,6.3,5l1.91-.1h0l-1.38,1.73-1.43-.88Z"/><path class="cls-1" d="M89.6,111.19a2.48,2.48,0,0,1,3.59-.18c1.82,1.55,1.35,3.61.82,5.64C93.66,114.08,93.33,111.53,89.6,111.19Z"/><path class="cls-1" d="M70.35,145.79l2.2-6.36.6.21c.6,2.56-.43,4.57-2.29,6.32Z"/><path class="cls-1" d="M10.8,28.75l3.69,7.65A5.23,5.23,0,0,1,10.82,32c-.08-1-1.49-2.16,0-3.18Z"/><path class="cls-1" d="M32.21,56.81C30.1,59,29.65,55.39,28,56.2c2.37-.77,2.18-2.13,1-3.79l.66-.24c.34.52,1.07,1.14,1,1.54C30.13,55.24,30.23,56.4,32.21,56.81Z"/><path class="cls-1" d="M57.9,111c2.67.68,2.06,3.32,3,5l-.44.28-3.12-5Z"/><path class="cls-1" d="M83.73,124.87l-5.66-6.31C80.79,120.37,82.9,122,83.73,124.87Z"/><path class="cls-1" d="M29,44.68,24.25,44c2.42-2.06,3.64-1.82,4.67.71Z"/><path class="cls-1" d="M14.1,48.85l3.7.67-.13.94L13.91,50Z"/><path class="cls-1" d="M94.76,122.79l-.45-3.71c1.25.7.29,3,3.19,2.08l-.5.72Z"/><path class="cls-1" d="M.21,15l2.67,3.16C.86,18-.55,16.3.21,15Z"/><path class="cls-1" d="M30.35,67.64c-1.41.62-2-.31-2.43-1.18-.18-.37.17-1,.28-1.5a10,10,0,0,1,.93.91C29.52,66.36,29.84,66.89,30.35,67.64Z"/><path class="cls-1" d="M43.64,60.42A12.33,12.33,0,0,1,42,62a1.42,1.42,0,0,1-1.23-.16c-.23-.14-.43-.81-.3-1a1.71,1.71,0,0,1,1.12-.52,15.3,15.3,0,0,1,2.13.12Z"/><path class="cls-1" d="M20.48,42.11l-1.82-2.44c.68-.08,1.78-.34,1.83-.2a13.69,13.69,0,0,1,.5,2.58Z"/><path class="cls-1" d="M42.69,122c.21,1.88.62,3.66-1.45,4.65Z"/><path class="cls-1" d="M71.94,79.51l-3.22-.87C70.21,77.36,70.61,77.46,71.94,79.51Z"/><path class="cls-1" d="M38.71,70.48l-1.26,1.89-2-1.71Z"/><path class="cls-1" d="M26.54,64.27l-3.29-2.22.32-.5L27,63.44Z"/><path class="cls-1" d="M52.09,15.33l-1.25.77-.48-.41,1.83-4.13.85.26c-.23,1-.47,2-.7,3Z"/><path class="cls-1" d="M36.83,23.12c.92,1.85.64,3.07-1.54,4.3L36.2,23Z"/><path class="cls-1" d="M95,29.05l-6-5.94c3-.39,6.23,2.75,6.49,5.46Z"/><path class="cls-1" d="M85.18,22.6l-4,2.44A3,3,0,0,1,85.18,22.6Z"/><path class="cls-1" d="M101.65,41.32l-4.56,3.83a13.29,13.29,0,0,1,4.2-4.25Z"/><path class="cls-1" d="M68.88,10.81l-.28,2.27-1.13-.21.46-2.22Z"/></g></g></svg>