<svg xmlns="http://www.w3.org/2000/svg" xmlns:xlink="http://www.w3.org/1999/xlink" viewBox="0 0 1140 538"><defs><style>.cls-1,.cls-2{fill:none;}.cls-2{stroke:#f08023;stroke-width:0.54px;}.cls-2,.cls-3{stroke-miterlimit:10;}.cls-3{stroke-width:0.5px;fill:url(#New_Pattern_Swatch_3);stroke:url(#New_Pattern_Swatch_3);}</style><pattern id="New_Pattern_Swatch_3" data-name="New Pattern Swatch 3" width="1007.7" height="1073.34" patternTransform="translate(204.93 414.76) rotate(-25) scale(0.5)" patternUnits="userSpaceOnUse" viewBox="0 0 1007.7 1073.34"><rect class="cls-1" width="1007.7" height="1073.34"/><path class="cls-2" d="M652.11,875.9c1.32,7,1.33,14.13-1.5,20.91-3.62,8.66-7.44,17.24-10.93,26a50.6,50.6,0,0,0-2.52,9.6c-.6,3.29-.77,6.66-1.13,10l-.74.18c-2.27-4.43-4.5-8.89-6.81-13.29-5.18-9.85-3.47-20.58-3.81-31.92a12.41,12.41,0,0,0-1.92,2.07c-.75,1.48-1.22,3.12-2,4.56a35.71,35.71,0,0,0-4.46,19.32,80,80,0,0,0,2.51,17.48c2,7.43,4.76,14.64,7.31,21.91a45.6,45.6,0,0,1,2.39,18.56,40.22,40.22,0,0,1-1.23,5.56,10.13,10.13,0,0,1-1.57-1.36c-3.91-5.73-8.23-11.24-11.53-17.31-2.51-4.62-3.68-10-5.54-15-.25-.67-1-1.14-1.55-1.71-.38.62-1,1.19-1.1,1.84-.32,1.83-.31,3.71-.63,5.53a76.71,76.71,0,0,0-.36,24.7c1.41,9.74,3.84,19.28,9,27.84s10.46,17,17.57,24.08c5.27,5.23,10.95,10,16.46,15l-2.09-.51c-10.41-2.64-18.44-8.43-23.71-17.89-1.41-2.53-2.82-5.07-4.36-7.52-.36-.56-1.27-.77-2.21-1.3.56,6.44.68,12.23,1.65,17.86,1.42,8.2,3.35,16.31,5.26,24.41,2.83,12.06,9.6,22,17.52,31.18,6.89,8,16.34,12.09,26,15.73,10.36,3.92,21.32,5,32.1,7,14.43,2.61,26,9.46,33.54,22.37,1.65,2.84,3.07,6.06,2.17,9.34a33.49,33.49,0,0,1-4.21,9.86c-2.77,4.07-6.31,7.64-9.59,11.35a3,3,0,0,1-2.06.88c-2.2,0-4.4-.42-6.6-.46-6-.09-9.64,2.51-11.31,7.9a2.14,2.14,0,0,1-2.69,1.78,18.24,18.24,0,0,0-4.19-.5c-10.13.85-16.62,6.4-20,15.81-2.91,8-2.55,16.19-1.63,24.43A53.64,53.64,0,0,0,681,1247c4.67,6.72,9.91,13,14.66,19.7,1.54,2.15,2.79,2.37,5.19,1.52,12.1-4.31,24-9.07,34.15-16.84,1.87,2.81,3.54,5.59,5.48,8.18q6.51,8.67,13.29,17.13c.73.91,2.22,1.2,3.36,1.78a15.16,15.16,0,0,0-.77-3.81c-3.18-6.57-6.53-13.06-9.76-19.61-1.77-3.58-3.45-7.21-1.86-11.35,1.14-3,2.31-5.94,5.06-8.25,1.12,6.44,3,12.29,6.44,17.25,4.91,7.08,10.56,13.66,15.94,20.42,2.28,2.87,15.19,15.12,17.9,18.38-1.49-2.55,6.48-2.13,5.49-4.19a4.09,4.09,0,0,1,.13-2.64c.18-.63.92-1.07,1.24-1.68,2.36-4.39,4.65-8.83,7-13.2.3-.54,1.14-.78,1.73-1.16a9.71,9.71,0,0,1,.36,1.75,7.67,7.67,0,0,1-.33,1.52q-.75,3.61-1.48,7.23l1.09.43c2.71-2.45,3.2-6.36,5.28-9.06,4.5,1.28,9,2.56,13.41,3.82,1.69.48,3.22.25,4.23-1.33,4.83-7.64,10-15.09,14.35-23a58.13,58.13,0,0,0,7.16-31.65,51.67,51.67,0,0,0-2.77-15.54c-3.46-9.24-10.89-17.62-23.06-16.6-2,.17-3.22-.41-4-2.43a8,8,0,0,0-6.09-5c-1.55-.26-1.86-.94-2.46-2.13s-2.2-3.25-3.08-3.12c-3.77.58-5.92-1.93-7.7-4.07A180.49,180.49,0,0,1,790,1154.64c-5.36-7.93-4.59-16.52,3.54-21.94,5.56-3.71,10.8-7.91,16.5-11.38,4.38-2.66,9-5.3,13.93-6.61,10.07-2.68,20.38-4.44,30.58-6.62a37.1,37.1,0,0,0,19.82-10.86,70.52,70.52,0,0,0,16.75-30.46c3.32-12.17,6.18-24.46,9.18-36.71.69-2.8,1.14-5.65,1.71-8.48l-1-.56c-7.07,11.93-13.85,24.16-28.93,28.46,4.33-5.13,8.4-9.79,12.29-14.61,2.87-3.55,6-7,8.15-11a168.84,168.84,0,0,0,8.1-17.67c4.94-12.14,8.3-24.59,6.14-37.91q-.71-4.32-1.39-8.65l-.85-.19c-6.21,13.18-10.19,27.8-23.42,37a17.92,17.92,0,0,1-.63-4c.4-4.3.86-8.6,1.57-12.86.84-5.1,1.53-10.29,3.06-15.2,3.3-10.55,6.93-20.92,8.38-32,1.15-8.74-1.15-16.18-5.58-23.33-.34-.55-1.14-.83-1.73-1.24l-.75.27c3.31,16.17-1.48,30-11.7,42.83a12,12,0,0,1-1.35-2.93c-.63-5-1.1-10-1.68-15-.39-3.33-.49-6.76-1.38-10-2.7-9.61-5.63-19.16-8.67-28.67-1.53-4.8-2.46-9.53-1.29-14.55,1.23-5.3,2.33-10.63,3.42-16a8.25,8.25,0,0,0-.48-2.39c-3.45,3.38-6.88,5.9-9.17,9.19a27.25,27.25,0,0,0-4.46,15.25c-.13,7.35,0,14.71-.06,22.07a29.36,29.36,0,0,1-.62,4.23l-.71.41c-16.24-29.54-40.8-46.23-74.36-49a3.73,3.73,0,0,0,1.84,1.72c2.54,1.21,5.13,2.3,7.65,3.54,9.73,4.76,18.26,11.33,26.36,18.37a86.38,86.38,0,0,1,23.49,33c2.81,6.9,3.16,14.14,3.3,21.31s-1.1,14.13-1.4,21.21A38.71,38.71,0,0,1,829,980.88c-1.89-4.45-4-8.56-9-11.2.33,3.51.71,6.31.83,9.11a52.39,52.39,0,0,1-.05,9.29c-.86,6.32-4.25,11.69-7.42,17a38.71,38.71,0,0,1-13.16,13.61c-6.8,4.13-13.6,8.28-19,14.34-6.51,7.37-11.33,15.57-12.52,25.73-4-8.21-3.76-16.46-1.22-24.8.55-1.79,1.63-1.57,2.67-.3.81,1,1.59,2,2.39,3l.67-.21q.3-6.27.61-12.53c4.86.68,4.54,5.57,7.1,8.82,1.85-5.29-.59-9.86-.54-14.76l6.65,4.41c.71-5-2.13-8.12-4.11-11.69a23.3,23.3,0,0,1,4.48.85c1.26.29,2.56.46,3.83.69a22.4,22.4,0,0,0-1.51-4.14,9.42,9.42,0,0,0-2.65-2.65c-1.57-1.13-3.27-2.07-4.92-3.09,4.81.39,8.39-1.19,10.48-5.51a14.85,14.85,0,0,0,.76-3.38,14.93,14.93,0,0,0-3.43.21c-5.38,1.59-10.9,2.41-16-.06s-10-5.85-14.92-8.8c-2.18-1.3-4.31-3.41-6.6-3.6-3.48-.3-4.86-2.45-6.51-4.73-1-1.35-1.79-3-3.07-3.92-7.69-5.87-22.34-1.89-22.79,7.9,0,.14.16.28.31.55l2.21-.24c.21,1.06.39,2.1.63,3.12,1,4,2.6,7.43,6.6,9.64a58,58,0,0,1,11.38,8.06,12.15,12.15,0,0,1,3.28,13.8A58.24,58.24,0,0,1,735,1032c-4.25,5.21-4.36,5.28-7.93-.41a67.27,67.27,0,0,0-15.72-17.71,147.16,147.16,0,0,1-16.49-14.42c-5-5.24-8.08-11.61-7.73-19.35.26-5.68-.24-11.41-.5-17.11,0-.64-.67-1.24-1-1.86a6.4,6.4,0,0,0-1,1.6c-.46,1.51-.68,3.09-1.15,4.59-.85,2.73-1.86,5.41-4.45,7.38-1.12-4-2.16-7.64-3.21-11.32-2-7.14-3.69-14.43-3.48-21.84a110.32,110.32,0,0,1,2.24-18.9c1.23-6.06,2.75-12.17,6.37-17.44,5.47-8,12.23-14.72,19.43-21.12,8.94-8,19.21-13.58,30.26-18a33.31,33.31,0,0,0,3.92-2.15l-.19-.72a21,21,0,0,0-2.51-.19c-3.91.14-7.82.44-11.73.49a40.08,40.08,0,0,0-16.71,4.34c-5.84,2.77-11.44,5.9-16.12,10.47-4.09,4-8.35,7.81-12.29,11.94-4.58,4.82-8.9,9.88-13.55,15.09.38-4,1-7.59,1-11.19-.09-5.76-.59-11.52-1-17.28-.31-4.17-1.21-8.35-4-11.53-3-3.45-6.6-6.35-9.92-9.52C649,860.74,651.18,871,652.11,875.9Zm188.6,163.76c-3.1,6.13-6.2,12.28-8.88,18.59-1.11,2.6-1.2,5.66-1.6,8.52-.35,2.56,1.39,3.82,3.49,3.66a22.56,22.56,0,0,0,8.41-1.84,32.42,32.42,0,0,1,15.08-3.54c4.75,0,9.7-.19,14.19-1.53s8.38-4.21,12.64-6.46c-3.08,6.45-6,13.37-9.63,19.87A43.33,43.33,0,0,1,854,1095.66a64.58,64.58,0,0,1-14.67,4.13c-7.72,1.4-15.53,2.42-23.33,3.24-5.49.57-10.88,1.26-15.81,3.86-2.79,1.48-5.48,3.17-8.47,4.92a8.91,8.91,0,0,1-.5-2.32c.6-11.68-2.71-22.41-8.14-32.53-1.93-3.6-1.73-7.25-1.51-10.92.55-8.76,4.74-16,11-21.74a44.85,44.85,0,0,1,12.93-8.09c8-3.33,14.64-7.7,18.09-16a50.68,50.68,0,0,1,4.47-8.16c-1.14,3.06-2.38,6.08-3.4,9.18a80.47,80.47,0,0,0-2.39,8.63c-.5,2.39-.46,5,1.78,6.56s5.11,2.13,7.54.63c4.8-3,9.38-6.28,14-9.47.85-.58,1.65-1.23,2.77-2.06C845.67,1030.5,843.06,1035,840.71,1039.66Zm-206.44,18.73c5.69,4,11.66,7.32,18.68,8.24,8.25,1.07,16.43.85,24.33-2.07a5.29,5.29,0,0,0,3.58-4.84,32.9,32.9,0,0,0-2.26-14.86,118.51,118.51,0,0,0-13.43-24.92c2.83,1.5,6,3.25,9.3,4.89a10.28,10.28,0,0,0,3.27,1c7,.9,9-3.06,7.53-9.32a32.33,32.33,0,0,0-3.74-8.11c-2.28-4-3-8-1.42-12.36,1,3.71,1.79,7.4,2.94,11,1.62,5,5.42,8.52,9.28,11.79,9,7.64,18.65,14.59,26.56,23.5,1,1.06,1.15,1.7.11,2.88a48.71,48.71,0,0,0-12,27.7c-.45,4.32-.88,8.65-1.05,13-.33,8.23,1.81,15.92,5.49,23.23.51,1,1,2,1.49,3.09a3.28,3.28,0,0,1,.07.89c-4.52-1.09-8.93-2.18-13.36-3.2a134.63,134.63,0,0,1-31.1-10.9c-6.87-3.52-13.15-8.26-19.42-12.82A50.23,50.23,0,0,1,634.14,1068c-2.14-4.19-3.87-8.58-5.79-12.88l.65-.46C630.76,1055.9,632.5,1057.16,634.27,1058.39Zm114,84.48c-8.41-15.19-15.84-30.79-19-48.08-2.34-12.76-1.27-25,4.87-36.68a52.43,52.43,0,0,1,15.22-17.61c-1,1.54-1.94,3.07-2.88,4.63s-2,3.36-2.93,5c-3.48,6-6.51,12.31-5.85,19.51.9,9.64,2.7,19.07,9,27,1.91,2.4,4,2.75,5.81.28a43.9,43.9,0,0,0,3.45-6.7c1.48,6.42.5,16.65-3,24.44-.61,1.35-.44,3-.64,4.58,1.55-.8,3.53-1.23,4.56-2.46,5-6,7.32-8.71,6.91-18.24,2.42,8.67,1.88,15.32-1.87,23.41a5.33,5.33,0,0,0-.58,1.74,10.46,10.46,0,0,0,.21,2.07,5.81,5.81,0,0,0,1.75-.77,28.66,28.66,0,0,0,9.1-18.63c.18-2.09.49-4.18.8-6.84.6,3,1.21,5.41,1.56,7.9.48,3.32,1.22,6.71,1,10a87.68,87.68,0,0,1-2.12,14.12,151,151,0,0,1-14.47,38.55c-.13.23-.22.49-.52,1.16C757.48,1160.48,753.12,1151.61,748.27,1142.87Zm8.47-66.33c-.4-1-1.88-2.31-2.6-2.16a4.28,4.28,0,0,0-2.75,2.52c-1,3.52-1.56,7.16-2.24,10.5-8.68-14.58-5.63-27.33,2.92-39.25-2.55,7.51.68,13.36,4.23,19.3a101.09,101.09,0,0,1,5.62,11.9c1.41,3.25-.53,6.08-1,8.72C759.52,1084.18,758.28,1080.3,756.74,1076.54ZM645.12,981.71c0,5.81,2.82,10.34,4.83,15.56a28.16,28.16,0,0,1-11-15.48c-2-7-3.33-14.19-5-21.3-.14-.58-.3-1.16-.65-2.48,2,3.7,3.41,6.9,5.34,9.75s4.1,5.76,8.07,7.7a18.44,18.44,0,0,0,0-3.47c-.76-3.25-2.06-6.43-2.41-9.71-.59-5.56-.61-11.17-.65-16.78,2.26,10.9,3.64,22,8.67,31.86l-4-1.51c.16,1.48,0,3.11.56,4.39,1.43,3.14,3.22,6.11,4.8,9C650.27,987.92,649.75,982.72,645.12,981.71Zm143.17,293.1c-2.76-6.81-5.58-13.59-8.35-20.3,4.43,2,5.82,4.12,6.81,10.35a25.36,25.36,0,0,0,1.64,5.89c2.91-2.54.72-6.15,1.92-9.19l3.3,1.87c-.84,5.58-1.66,11.29-2.63,17a2.41,2.41,0,0,1-1.64,1.54c-2.39.3-4.31.13-5.78-2.67-3.76-7.14-8.57-13.75-12-21-3-6.25-4.62-13.12-6.39-19.9a165.53,165.53,0,0,0,22.43,38.74l.94,0A8.19,8.19,0,0,0,788.29,1274.81Zm75.65-281.14c.21-.91-.33-2-.53-3a12.35,12.35,0,0,0-2.29,1.72,33.68,33.68,0,0,1-3.71,4.19c1.05-2.84,2.25-5.63,3.09-8.53a6,6,0,0,0-.58-3.51c-.08-.22-1.62.13-2.7.24,5.78-7.63,6-17,8.35-25.78-.73,5.65-1.44,11.3-2.18,16.94-.17,1.31-.53,2.6-.58,3.91a19.55,19.55,0,0,0,.39,3.2c1.26-.18,2.91.07,3.69-.64a64.12,64.12,0,0,0,5.41-6c-.6,10.29-4.92,19.64-11.49,28.72C862,1000.91,863.08,997.31,863.94,993.67Zm-221.78,34.46c-2.06-1.68-4.13-3.36-6.15-5.08-5.28-4.52-9-10.24-12.39-16.22-4-7.14-8.06-14.28-9.77-21.59l16.52,20.31c-4.16-3.49-6.92-8.44-11.5-11.45l-.76.53a8.67,8.67,0,0,0,.6,1.78c8.6,14.67,20.12,26.9,32.53,38.34,1.3,1.21,2.65,4,5.49,2.2.11-.07.64.31.83.58,1,1.43,1.87,2.88,2.8,4.33l-.58.56Zm80.49,167.59-5.76,4.07-6.9-12,3.27-3.61c.85,4.46-1.5,9.57,5.13,10.72,0-2.1-.11-4,0-5.94.18-2.7,1.4-3.21,3-2.15C721.86,1190,722.23,1192.67,722.65,1195.72Zm-71.19-167.31c-2.58-4.3-5.21-8.57-7.7-12.91-1.28-2.23-2.22-4.64-3.48-6.88-.36-.66-1.27-1-1.92-1.51l-.6.56c-.44-3.14-.88-6.27-1.31-9.41l.85-.16C639.92,1009.23,646.56,1018.36,651.46,1028.41Zm77.23-49.07c5.24,1.11,9,3.61,10.76,9.26C735.14,986.09,730.76,984.28,728.69,979.34Zm51.83,198.79,9.68,3.31C785,1184.85,783.19,1184.29,780.52,1178.13ZM862,1036.71l4.9-8.48,2.34,1.48Zm-62.85,158.56,1.33-1.87-1.55,1.57,5.34,4,.41-.27Zm-160.1-182.76c.44,1.27.86,2.52,1.29,3.76l-.27.18-2.33-3Z"/><path class="cls-2" d="M148.26,875.9c1.32,7,1.33,14.13-1.5,20.91-3.62,8.66-7.44,17.24-10.93,26a50.6,50.6,0,0,0-2.52,9.6c-.6,3.29-.77,6.66-1.13,10l-.74.18c-2.27-4.43-4.5-8.89-6.82-13.29-5.17-9.85-3.46-20.58-3.81-31.92a12.67,12.67,0,0,0-1.91,2.07c-.75,1.48-1.22,3.12-2,4.56a35.62,35.62,0,0,0-4.46,19.32,80,80,0,0,0,2.51,17.48c2,7.43,4.76,14.64,7.31,21.91a45.6,45.6,0,0,1,2.38,18.56,38.68,38.68,0,0,1-1.22,5.56,10.13,10.13,0,0,1-1.57-1.36c-3.91-5.73-8.23-11.24-11.53-17.31-2.51-4.62-3.69-10-5.54-15-.25-.67-1-1.14-1.56-1.71a6.19,6.19,0,0,0-1.09,1.84c-.32,1.83-.31,3.71-.64,5.53a77,77,0,0,0-.35,24.7c1.41,9.74,3.84,19.28,9.05,27.84s10.46,17,17.57,24.08c5.26,5.23,10.95,10,16.46,15l-2.09-.51c-10.41-2.64-18.44-8.43-23.71-17.89-1.41-2.53-2.82-5.07-4.36-7.52-.36-.56-1.28-.77-2.21-1.3.56,6.44.67,12.23,1.65,17.86,1.42,8.2,3.35,16.31,5.26,24.41,2.83,12.06,9.6,22,17.52,31.18,6.89,8,16.34,12.09,26,15.73,10.35,3.92,21.32,5,32.1,7,14.43,2.61,26,9.46,33.54,22.37,1.65,2.84,3.07,6.06,2.16,9.34a33.21,33.21,0,0,1-4.2,9.86c-2.78,4.07-6.31,7.64-9.6,11.35a3,3,0,0,1-2.05.88c-2.21,0-4.4-.42-6.6-.46-6-.09-9.64,2.51-11.31,7.9a2.14,2.14,0,0,1-2.69,1.78,18.3,18.3,0,0,0-4.19-.5c-10.13.85-16.62,6.4-20,15.81-2.91,8-2.55,16.19-1.63,24.43a53.53,53.53,0,0,0,9.48,24.85c4.67,6.72,9.9,13,14.66,19.7,1.53,2.15,2.79,2.37,5.19,1.52,12.1-4.31,23.95-9.07,34.15-16.84,1.87,2.81,3.54,5.59,5.48,8.18q6.51,8.67,13.29,17.13c.73.91,2.22,1.2,3.36,1.78a15.16,15.16,0,0,0-.77-3.81c-3.19-6.57-6.53-13.06-9.77-19.61-1.76-3.58-3.45-7.21-1.86-11.35,1.15-3,2.32-5.94,5.07-8.25,1.12,6.44,3,12.29,6.44,17.25,4.91,7.08,10.56,13.66,15.94,20.42,2.28,2.87,15.18,15.12,17.9,18.38-1.49-2.55,6.48-2.13,5.49-4.19a4.15,4.15,0,0,1,.12-2.64c.19-.63.92-1.07,1.25-1.68,2.36-4.39,4.65-8.83,7.05-13.2.3-.54,1.14-.78,1.72-1.16a8.92,8.92,0,0,1,.36,1.75,7.64,7.64,0,0,1-.32,1.52q-.75,3.61-1.48,7.23l1.09.43c2.71-2.45,3.2-6.36,5.28-9.06l13.4,3.82c1.7.48,3.23.25,4.24-1.33,4.83-7.64,10-15.09,14.35-23a58,58,0,0,0,7.15-31.65,51.36,51.36,0,0,0-2.77-15.54c-3.45-9.24-10.88-17.62-23.05-16.6-2,.17-3.22-.41-4.05-2.43a8,8,0,0,0-6.1-5c-1.54-.26-1.85-.94-2.46-2.13s-2.19-3.25-3.07-3.12c-3.77.58-5.92-1.93-7.7-4.07a180.49,180.49,0,0,1-10.62-14.77c-5.36-7.93-4.59-16.52,3.54-21.94,5.55-3.71,10.8-7.91,16.49-11.38,4.38-2.66,9-5.3,13.94-6.61,10.06-2.68,20.38-4.44,30.58-6.62a37.1,37.1,0,0,0,19.82-10.86,70.63,70.63,0,0,0,16.75-30.46c3.32-12.17,6.18-24.46,9.18-36.71.69-2.8,1.14-5.65,1.7-8.48l-1-.56c-7.07,11.93-13.85,24.16-28.93,28.46,4.32-5.13,8.4-9.79,12.29-14.61,2.87-3.55,6-7,8.15-11a170.92,170.92,0,0,0,8.1-17.67c4.94-12.14,8.3-24.59,6.14-37.91q-.71-4.32-1.39-8.65l-.85-.19c-6.22,13.18-10.2,27.8-23.42,37a17.92,17.92,0,0,1-.63-4c.4-4.3.86-8.6,1.57-12.86.84-5.1,1.53-10.29,3.06-15.2,3.29-10.55,6.93-20.92,8.38-32,1.14-8.74-1.15-16.18-5.58-23.33-.35-.55-1.14-.83-1.73-1.24l-.75.27c3.3,16.17-1.49,30-11.7,42.83a12.13,12.13,0,0,1-1.36-2.93c-.62-5-1.09-10-1.67-15-.39-3.33-.49-6.76-1.39-10-2.7-9.61-5.62-19.16-8.66-28.67-1.54-4.8-2.47-9.53-1.3-14.55,1.24-5.3,2.33-10.63,3.43-16a8.25,8.25,0,0,0-.48-2.39c-3.45,3.38-6.88,5.9-9.17,9.19a27.25,27.25,0,0,0-4.46,15.25c-.13,7.35,0,14.71-.06,22.07a30.82,30.82,0,0,1-.62,4.23l-.71.41c-16.24-29.54-40.8-46.23-74.37-49a3.81,3.81,0,0,0,1.84,1.72c2.54,1.21,5.14,2.3,7.66,3.54,9.73,4.76,18.25,11.33,26.35,18.37a86.27,86.27,0,0,1,23.49,33c2.82,6.9,3.17,14.14,3.31,21.31s-1.1,14.13-1.4,21.21a38.71,38.71,0,0,1-5.18,18.25c-1.89-4.45-4-8.56-8.95-11.2.33,3.51.71,6.31.83,9.11a53.36,53.36,0,0,1-.05,9.29c-.86,6.32-4.26,11.69-7.42,17a38.71,38.71,0,0,1-13.16,13.61c-6.81,4.13-13.6,8.28-18.95,14.34-6.52,7.37-11.33,15.57-12.52,25.73-4-8.21-3.76-16.46-1.22-24.8.55-1.79,1.63-1.57,2.67-.3.8,1,1.59,2,2.39,3l.67-.21.6-12.53c4.87.68,4.54,5.57,7.11,8.82,1.85-5.29-.59-9.86-.55-14.76l6.66,4.41c.71-5-2.13-8.12-4.11-11.69a23.3,23.3,0,0,1,4.48.85c1.26.29,2.55.46,3.83.69a22.4,22.4,0,0,0-1.51-4.14,9.42,9.42,0,0,0-2.65-2.65c-1.57-1.13-3.27-2.07-4.92-3.09,4.81.39,8.39-1.19,10.48-5.51a14.33,14.33,0,0,0,.75-3.38,14.88,14.88,0,0,0-3.42.21c-5.38,1.59-10.91,2.41-16.05-.06s-9.95-5.85-14.91-8.8c-2.18-1.3-4.31-3.41-6.6-3.6-3.49-.3-4.86-2.45-6.51-4.73-1-1.35-1.79-3-3.07-3.92-7.7-5.87-22.34-1.89-22.79,7.9,0,.14.16.28.31.55l2.21-.24c.21,1.06.39,2.1.63,3.12,1,4,2.6,7.43,6.6,9.64a58,58,0,0,1,11.38,8.06,12.15,12.15,0,0,1,3.28,13.8A58.24,58.24,0,0,1,231.1,1032c-4.26,5.21-4.36,5.28-7.94-.41a67.1,67.1,0,0,0-15.72-17.71A148,148,0,0,1,191,999.49c-5-5.24-8.08-11.61-7.73-19.35.26-5.68-.24-11.41-.5-17.11,0-.64-.67-1.24-1-1.86a6.73,6.73,0,0,0-1.06,1.6c-.45,1.51-.67,3.09-1.14,4.59-.85,2.73-1.87,5.41-4.45,7.38-1.13-4-2.17-7.64-3.22-11.32-2-7.14-3.68-14.43-3.48-21.84a111.32,111.32,0,0,1,2.24-18.9c1.24-6.06,2.76-12.17,6.37-17.44,5.47-8,12.24-14.72,19.44-21.12,8.94-8,19.21-13.58,30.25-18a32.65,32.65,0,0,0,3.93-2.15l-.19-.72a21.36,21.36,0,0,0-2.51-.19c-3.91.14-7.82.44-11.74.49a40.08,40.08,0,0,0-16.7,4.34c-5.84,2.77-11.44,5.9-16.12,10.47-4.09,4-8.35,7.81-12.29,11.94-4.59,4.82-8.9,9.88-13.55,15.09.38-4,1-7.59,1-11.19-.08-5.76-.58-11.52-1-17.28-.31-4.17-1.21-8.35-4-11.53-3-3.45-6.6-6.35-9.92-9.52C145.1,860.74,147.32,871,148.26,875.9Zm188.6,163.76c-3.1,6.13-6.2,12.28-8.89,18.59-1.1,2.6-1.19,5.66-1.59,8.52-.35,2.56,1.39,3.82,3.49,3.66a22.56,22.56,0,0,0,8.41-1.84,32.42,32.42,0,0,1,15.08-3.54c4.75,0,9.7-.19,14.19-1.53s8.38-4.21,12.64-6.46c-3.09,6.45-6,13.37-9.63,19.87a43.33,43.33,0,0,1-20.42,18.73,64.58,64.58,0,0,1-14.67,4.13c-7.72,1.4-15.53,2.42-23.33,3.24-5.49.57-10.88,1.26-15.81,3.86-2.8,1.48-5.48,3.17-8.48,4.92a8.89,8.89,0,0,1-.49-2.32c.6-11.68-2.71-22.41-8.14-32.53-1.94-3.6-1.74-7.25-1.51-10.92.55-8.76,4.74-16,11-21.74a45,45,0,0,1,12.94-8.09c8-3.33,14.64-7.7,18.09-16a51.41,51.41,0,0,1,4.46-8.16c-1.14,3.06-2.37,6.08-3.39,9.18a80.47,80.47,0,0,0-2.39,8.63c-.5,2.39-.46,5,1.78,6.56s5.11,2.13,7.54.63c4.8-3,9.38-6.28,14-9.47.86-.58,1.66-1.23,2.78-2.06C341.82,1030.5,339.21,1035,336.86,1039.66Zm-206.44,18.73c5.68,4,11.66,7.32,18.68,8.24,8.25,1.07,16.43.85,24.33-2.07a5.27,5.27,0,0,0,3.57-4.84,33,33,0,0,0-2.25-14.86,118.51,118.51,0,0,0-13.43-24.92c2.83,1.5,6,3.25,9.3,4.89a10.28,10.28,0,0,0,3.27,1c7,.9,9-3.06,7.53-9.32a32.33,32.33,0,0,0-3.74-8.11c-2.28-4-3-8-1.42-12.36,1,3.71,1.79,7.4,2.94,11,1.62,5,5.42,8.52,9.27,11.79,9,7.64,18.66,14.59,26.57,23.5,1,1.06,1.15,1.7.11,2.88a48.71,48.71,0,0,0-12,27.7c-.45,4.32-.88,8.65-1.06,13a47,47,0,0,0,5.49,23.23q.78,1.53,1.5,3.09a3.8,3.8,0,0,1,.07.89c-4.52-1.09-8.94-2.18-13.36-3.2a134.63,134.63,0,0,1-31.1-10.9c-6.87-3.52-13.15-8.26-19.43-12.82A50.2,50.2,0,0,1,130.29,1068c-2.14-4.19-3.87-8.58-5.79-12.88l.65-.46C126.91,1055.9,128.65,1057.16,130.42,1058.39Zm114,84.48c-8.42-15.19-15.84-30.79-19-48.08-2.34-12.76-1.27-25,4.87-36.68a52.32,52.32,0,0,1,15.22-17.61c-1,1.54-2,3.07-2.88,4.63s-2,3.36-2.93,5c-3.48,6-6.51,12.31-5.85,19.51.9,9.64,2.69,19.07,9,27,1.92,2.4,4,2.75,5.82.28a43.9,43.9,0,0,0,3.45-6.7c1.48,6.42.49,16.65-3,24.44-.61,1.35-.45,3-.64,4.58,1.54-.8,3.53-1.23,4.55-2.46,5-6,7.33-8.71,6.92-18.24,2.41,8.67,1.87,15.32-1.88,23.41a5.56,5.56,0,0,0-.57,1.74,10.44,10.44,0,0,0,.2,2.07,5.76,5.76,0,0,0,1.76-.77,28.61,28.61,0,0,0,9.09-18.63c.19-2.09.49-4.18.81-6.84.6,3,1.21,5.41,1.56,7.9.48,3.32,1.22,6.71,1,10a87.68,87.68,0,0,1-2.12,14.12,150.6,150.6,0,0,1-14.48,38.55c-.12.23-.21.49-.51,1.16C253.63,1160.48,249.27,1151.61,244.42,1142.87Zm8.47-66.33c-.4-1-1.88-2.31-2.61-2.16a4.24,4.24,0,0,0-2.74,2.52c-1,3.52-1.56,7.16-2.24,10.5-8.68-14.58-5.63-27.33,2.92-39.25-2.55,7.51.68,13.36,4.23,19.3a101.09,101.09,0,0,1,5.62,11.9c1.41,3.25-.53,6.08-1,8.72C255.67,1084.18,254.43,1080.3,252.89,1076.54ZM141.26,981.71c0,5.81,2.83,10.34,4.84,15.56a28.16,28.16,0,0,1-11-15.48c-2-7-3.33-14.19-5-21.3-.14-.58-.31-1.16-.65-2.48,2,3.7,3.41,6.9,5.34,9.75s4.09,5.76,8.07,7.7a17.5,17.5,0,0,0,0-3.47c-.75-3.25-2-6.43-2.4-9.71-.59-5.56-.61-11.17-.65-16.78,2.26,10.9,3.63,22,8.67,31.86l-4-1.51c.17,1.48,0,3.11.57,4.39,1.43,3.14,3.21,6.11,4.8,9C146.42,987.92,145.9,982.72,141.26,981.71Zm143.18,293.1c-2.76-6.81-5.58-13.59-8.35-20.3,4.43,2,5.82,4.12,6.81,10.35a25.36,25.36,0,0,0,1.64,5.89c2.91-2.54.72-6.15,1.92-9.19l3.3,1.87c-.84,5.58-1.66,11.29-2.63,17a2.43,2.43,0,0,1-1.64,1.54c-2.4.3-4.31.13-5.78-2.67-3.76-7.14-8.57-13.75-12-21-3-6.25-4.62-13.12-6.39-19.9a165.18,165.18,0,0,0,22.43,38.74l.93,0A8.2,8.2,0,0,0,284.44,1274.81Zm75.65-281.14c.21-.91-.33-2-.53-3a12.43,12.43,0,0,0-2.3,1.72,32.13,32.13,0,0,1-3.71,4.19c1.06-2.84,2.26-5.63,3.09-8.53a6,6,0,0,0-.57-3.51c-.08-.22-1.62.13-2.7.24,5.78-7.63,6-17,8.35-25.78-.73,5.65-1.44,11.3-2.18,16.94-.17,1.31-.53,2.6-.58,3.91a19.55,19.55,0,0,0,.39,3.2c1.26-.18,2.9.07,3.69-.64a64.12,64.12,0,0,0,5.41-6c-.6,10.29-4.92,19.64-11.49,28.72C358.13,1000.91,359.22,997.31,360.09,993.67Zm-221.78,34.46c-2.07-1.68-4.13-3.36-6.15-5.08-5.29-4.52-9-10.24-12.39-16.22-4-7.14-8.06-14.28-9.77-21.59l16.52,20.31c-4.16-3.49-6.92-8.44-11.51-11.45l-.75.53a9.29,9.29,0,0,0,.59,1.78c8.61,14.67,20.13,26.9,32.53,38.34,1.31,1.21,2.66,4,5.5,2.2.11-.07.64.31.83.58,1,1.43,1.87,2.88,2.79,4.33l-.57.56Zm80.49,167.59-5.76,4.07-6.9-12,3.27-3.61c.85,4.46-1.51,9.57,5.13,10.72,0-2.1-.11-4,0-5.94.19-2.7,1.41-3.21,3-2.15C218,1190,218.38,1192.67,218.8,1195.72Zm-71.19-167.31c-2.58-4.3-5.21-8.57-7.71-12.91-1.27-2.23-2.22-4.64-3.47-6.88-.36-.66-1.27-1-1.93-1.51l-.59.56c-.44-3.14-.88-6.27-1.31-9.41l.85-.16C136.07,1009.23,142.71,1018.36,147.61,1028.41Zm77.23-49.07c5.23,1.11,9,3.61,10.76,9.26C231.29,986.09,226.91,984.28,224.84,979.34Zm51.83,198.79,9.68,3.31C281.15,1184.85,279.34,1184.29,276.67,1178.13Zm81.48-141.42,4.9-8.48,2.34,1.48ZM295.3,1195.27l1.33-1.87-1.55,1.57,5.34,4,.4-.27ZM135.2,1012.51c.43,1.27.86,2.52,1.29,3.76l-.27.18-2.33-3Z"/><path class="cls-2" d="M904,339.23c1.33,7,1.34,14.13-1.5,20.91-3.61,8.66-7.43,17.24-10.92,25.95a49.87,49.87,0,0,0-2.52,9.6c-.6,3.29-.77,6.66-1.13,10l-.74.17c-2.27-4.43-4.5-8.88-6.82-13.29-5.18-9.85-3.47-20.58-3.81-31.92a13.87,13.87,0,0,0-1.92,2.07c-.74,1.49-1.21,3.12-2,4.56a35.72,35.72,0,0,0-4.45,19.33,80.47,80.47,0,0,0,2.5,17.47c2,7.43,4.76,14.64,7.32,21.91a45.62,45.62,0,0,1,2.38,18.57,38.57,38.57,0,0,1-1.22,5.55,10.13,10.13,0,0,1-1.57-1.36c-3.91-5.73-8.23-11.24-11.53-17.31-2.52-4.62-3.69-10-5.55-15-.25-.67-1-1.15-1.55-1.71a6.2,6.2,0,0,0-1.1,1.84c-.31,1.82-.3,3.7-.63,5.52a77,77,0,0,0-.36,24.71c1.42,9.73,3.84,19.28,9.06,27.84s10.46,17,17.57,24.07c5.26,5.23,11,10,16.46,15l-2.09-.51c-10.41-2.63-18.44-8.43-23.71-17.89-1.42-2.53-2.82-5.07-4.36-7.52-.36-.56-1.28-.77-2.22-1.3.57,6.44.68,12.23,1.66,17.87,1.42,8.19,3.35,16.3,5.25,24.41,2.83,12.06,9.61,22,17.53,31.17,6.89,8,16.33,12.09,26,15.73,10.35,3.92,21.32,5,32.09,7,14.44,2.61,26,9.47,33.55,22.38,1.65,2.83,3.07,6,2.16,9.33a33.1,33.1,0,0,1-4.2,9.86c-2.78,4.08-6.31,7.64-9.6,11.35a3,3,0,0,1-2.06.88c-2.2,0-4.39-.42-6.6-.45-6-.1-9.64,2.5-11.3,7.89-.45,1.46-1.23,2-2.69,1.78a19,19,0,0,0-4.19-.5c-10.13.85-16.62,6.4-20,15.81-2.9,8-2.54,16.19-1.62,24.43A53.53,53.53,0,0,0,933,710.33c4.66,6.72,9.9,13,14.65,19.7,1.54,2.16,2.8,2.37,5.2,1.52,12.1-4.31,24-9.07,34.15-16.84,1.87,2.81,3.54,5.6,5.48,8.18,4.34,5.78,8.75,11.5,13.29,17.13.73.91,2.22,1.21,3.36,1.78a15.25,15.25,0,0,0-.77-3.81c-3.19-6.57-6.53-13.06-9.77-19.6-1.77-3.58-3.45-7.22-1.86-11.36,1.15-3,2.32-5.94,5.07-8.25,1.11,6.44,3,12.3,6.43,17.25,4.92,7.08,10.57,13.66,16,20.42,2.28,2.87,15.18,15.12,17.89,18.38-1.48-2.55,6.48-2.12,5.5-4.19a4.16,4.16,0,0,1,.12-2.64c.19-.63.92-1.07,1.25-1.68,2.36-4.39,4.65-8.83,7-13.2.29-.54,1.13-.78,1.72-1.15a8.83,8.83,0,0,1,.36,1.74,7,7,0,0,1-.33,1.52q-.73,3.62-1.48,7.24l1.1.42c2.71-2.45,3.2-6.36,5.28-9.06l13.4,3.82c1.7.48,3.23.26,4.24-1.33,4.83-7.64,10-15.09,14.35-23a58,58,0,0,0,7.15-31.65,51.42,51.42,0,0,0-2.77-15.54c-3.45-9.23-10.89-17.62-23-16.6-2,.17-3.22-.41-4.06-2.43a8,8,0,0,0-6.09-5c-1.54-.26-1.86-.94-2.46-2.14s-2.19-3.25-3.07-3.11c-3.77.58-5.92-1.93-7.71-4.08-3.86-4.65-7.23-9.74-10.62-14.76-5.35-7.94-4.58-16.53,3.54-22,5.56-3.7,10.81-7.9,16.5-11.37,4.38-2.67,9-5.31,13.94-6.61,10.06-2.69,20.37-4.44,30.57-6.63a37.09,37.09,0,0,0,19.83-10.86A70.73,70.73,0,0,0,1143,530.1c3.32-12.16,6.17-24.46,9.18-36.71.68-2.8,1.14-5.65,1.7-8.47l-1-.57c-7.07,11.93-13.85,24.16-28.93,28.46,4.32-5.12,8.39-9.79,12.28-14.6,2.88-3.56,6-7.06,8.15-11a171.15,171.15,0,0,0,8.11-17.68c4.93-12.14,8.29-24.59,6.13-37.9q-.69-4.34-1.39-8.65l-.85-.2c-6.21,13.18-10.19,27.8-23.41,36.95a17.84,17.84,0,0,1-.63-4.05c.4-4.3.86-8.6,1.56-12.86.85-5.1,1.54-10.29,3.07-15.2,3.29-10.54,6.93-20.91,8.38-32,1.14-8.74-1.15-16.18-5.58-23.32-.35-.56-1.14-.84-1.73-1.25l-.76.27c3.31,16.18-1.48,30-11.69,42.83a12.13,12.13,0,0,1-1.36-2.93c-.63-5-1.1-10-1.68-15-.38-3.33-.48-6.75-1.38-9.95-2.7-9.61-5.63-19.15-8.66-28.66-1.54-4.8-2.47-9.54-1.3-14.56,1.23-5.3,2.33-10.63,3.42-15.95.12-.55-.21-1.18-.47-2.4-3.46,3.39-6.88,5.9-9.17,9.2a27.12,27.12,0,0,0-4.46,15.24c-.13,7.35,0,14.71-.06,22.07a30.63,30.63,0,0,1-.63,4.23l-.7.42c-16.24-29.54-40.8-46.24-74.37-49a3.81,3.81,0,0,0,1.84,1.72c2.54,1.21,5.14,2.3,7.66,3.54,9.73,4.76,18.25,11.33,26.35,18.38a86.34,86.34,0,0,1,23.49,33c2.82,6.9,3.16,14.14,3.31,21.31s-1.11,14.13-1.4,21.21a38.57,38.57,0,0,1-5.19,18.25c-1.88-4.45-4-8.56-9-11.2.34,3.52.71,6.31.83,9.11a52.38,52.38,0,0,1,0,9.29c-.87,6.32-4.26,11.69-7.43,17a38.45,38.45,0,0,1-13.16,13.61c-6.8,4.13-13.59,8.28-19,14.34-6.51,7.37-11.32,15.57-12.52,25.73-4-8.21-3.75-16.46-1.21-24.8.54-1.79,1.63-1.57,2.67-.3.8,1,1.59,2,2.38,3l.68-.21.6-12.53c4.86.68,4.54,5.57,7.11,8.83,1.85-5.3-.59-9.87-.55-14.77l6.66,4.41c.71-5-2.13-8.11-4.11-11.68a23.46,23.46,0,0,1,4.48.84c1.26.29,2.55.46,3.83.69a23,23,0,0,0-1.52-4.14,9.38,9.38,0,0,0-2.64-2.65c-1.57-1.13-3.28-2.07-4.92-3.09,4.81.39,8.39-1.19,10.48-5.51a14.84,14.84,0,0,0,.75-3.38,15.46,15.46,0,0,0-3.42.21c-5.38,1.6-10.91,2.41-16-.06s-10-5.84-14.91-8.8c-2.18-1.3-4.32-3.41-6.6-3.6-3.49-.3-4.86-2.44-6.51-4.73-1-1.35-1.79-2.95-3.07-3.92-7.7-5.87-22.34-1.89-22.79,7.9,0,.14.16.29.31.55l2.2-.24c.22,1.06.39,2.1.64,3.12,1,4.05,2.59,7.43,6.6,9.65A57.11,57.11,0,0,1,993.14,465a12.15,12.15,0,0,1,3.29,13.79,58.48,58.48,0,0,1-9.55,16.62c-4.26,5.21-4.37,5.28-7.94-.4a67.14,67.14,0,0,0-15.72-17.72,146.94,146.94,0,0,1-16.48-14.42c-5-5.24-8.08-11.6-7.73-19.35.26-5.68-.24-11.41-.5-17.11,0-.63-.67-1.24-1-1.86a6.89,6.89,0,0,0-1.05,1.6c-.45,1.51-.67,3.09-1.14,4.59-.86,2.74-1.87,5.41-4.46,7.38-1.12-4-2.16-7.64-3.21-11.32-2-7.14-3.68-14.42-3.48-21.84A111.21,111.21,0,0,1,926.38,386c1.24-6.07,2.76-12.18,6.37-17.45,5.47-8,12.24-14.71,19.43-21.12,9-8,19.22-13.57,30.26-17.95a33.44,33.44,0,0,0,3.93-2.15l-.19-.71a21.39,21.39,0,0,0-2.51-.2c-3.92.14-7.82.44-11.74.5a39.93,39.93,0,0,0-16.7,4.34c-5.84,2.76-11.44,5.9-16.12,10.46-4.1,4-8.35,7.81-12.29,11.95-4.59,4.81-8.9,9.88-13.55,15.08.38-4,1-7.59,1-11.18-.08-5.77-.59-11.53-1-17.29-.31-4.17-1.21-8.35-4-11.53-3-3.45-6.61-6.35-9.93-9.52C900.87,324.08,903.1,334.29,904,339.23ZM1092.64,503c-3.1,6.12-6.21,12.27-8.89,18.59-1.1,2.6-1.19,5.65-1.59,8.52-.36,2.55,1.38,3.81,3.48,3.65a22.42,22.42,0,0,0,8.42-1.84,32.39,32.39,0,0,1,15.08-3.54c4.75,0,9.7-.19,14.19-1.53s8.38-4.2,12.64-6.45c-3.09,6.44-6,13.36-9.63,19.86A43.32,43.32,0,0,1,1105.92,559a64.21,64.21,0,0,1-14.67,4.13c-7.72,1.4-15.53,2.42-23.34,3.24-5.48.57-10.87,1.26-15.8,3.87-2.8,1.48-5.48,3.17-8.48,4.91a8.89,8.89,0,0,1-.49-2.32c.6-11.68-2.71-22.41-8.14-32.53-1.94-3.6-1.74-7.25-1.51-10.92.54-8.76,4.74-16,11-21.74a44.9,44.9,0,0,1,12.94-8.09c8-3.32,14.64-7.69,18.08-16a52.74,52.74,0,0,1,4.47-8.16c-1.14,3.06-2.37,6.08-3.39,9.18a81.78,81.78,0,0,0-2.39,8.63c-.5,2.4-.46,5,1.78,6.56s5.1,2.14,7.54.63c4.8-3,9.38-6.28,14-9.46.85-.59,1.66-1.23,2.78-2.07C1097.6,493.83,1095,498.35,1092.64,503ZM886.2,521.72c5.68,4,11.65,7.33,18.68,8.24,8.25,1.07,16.43.85,24.33-2.07a5.27,5.27,0,0,0,3.57-4.84,33,33,0,0,0-2.25-14.86,119.22,119.22,0,0,0-13.43-24.92c2.83,1.5,6,3.26,9.3,4.89a10.58,10.58,0,0,0,3.26,1c7,.9,9-3.06,7.53-9.33a31.76,31.76,0,0,0-3.74-8.1c-2.27-4-3-8-1.41-12.37,1,3.71,1.79,7.4,2.94,11,1.62,5,5.42,8.51,9.27,11.78,9,7.64,18.65,14.59,26.57,23.5.95,1.07,1.15,1.7.11,2.88a48.71,48.71,0,0,0-12,27.7c-.45,4.32-.89,8.65-1.06,13-.33,8.22,1.81,15.92,5.49,23.22.52,1,1,2,1.5,3.09a3.8,3.8,0,0,1,.07.89c-4.53-1.09-8.94-2.18-13.36-3.2a134.55,134.55,0,0,1-31.11-10.9c-6.86-3.51-13.15-8.26-19.42-12.82a50,50,0,0,1-14.93-18.12c-2.14-4.19-3.87-8.58-5.79-12.88l.65-.46C882.68,519.23,884.43,520.49,886.2,521.72Zm114,84.48c-8.42-15.18-15.85-30.79-19-48.07-2.35-12.77-1.27-25,4.86-36.69a52.55,52.55,0,0,1,15.23-17.61c-1,1.54-1.95,3.07-2.89,4.63s-2,3.36-2.93,5.05c-3.47,6-6.51,12.31-5.84,19.51.89,9.64,2.69,19.07,9,27,1.91,2.39,4,2.74,5.82.27a44.83,44.83,0,0,0,3.45-6.7c1.47,6.42.49,16.66-3,24.44-.61,1.35-.45,3-.64,4.59,1.54-.81,3.53-1.24,4.55-2.47,5-6,7.33-8.7,6.92-18.24,2.41,8.67,1.87,15.32-1.88,23.41a5.61,5.61,0,0,0-.57,1.75,10.42,10.42,0,0,0,.2,2.06,5.74,5.74,0,0,0,1.76-.77,28.58,28.58,0,0,0,9.09-18.63c.19-2.09.49-4.18.81-6.84.59,3,1.2,5.41,1.56,7.9.48,3.33,1.22,6.71,1,10a87.7,87.7,0,0,1-2.13,14.12,150.07,150.07,0,0,1-14.47,38.55c-.13.23-.21.49-.51,1.16C1009.41,623.81,1005.05,615,1000.2,606.2Zm8.47-66.33c-.4-1-1.89-2.3-2.61-2.16a4.24,4.24,0,0,0-2.74,2.52c-1,3.52-1.56,7.16-2.24,10.51-8.68-14.59-5.64-27.34,2.91-39.26-2.54,7.51.69,13.36,4.24,19.3a101.09,101.09,0,0,1,5.62,11.9c1.41,3.25-.53,6.09-1,8.72C1011.45,547.51,1010.21,543.63,1008.67,539.87ZM897,445c0,5.81,2.83,10.34,4.84,15.57a28.2,28.2,0,0,1-11-15.49c-2-7-3.32-14.19-5-21.3-.13-.58-.3-1.16-.64-2.48,2,3.7,3.41,6.9,5.34,9.76s4.09,5.75,8.07,7.69a17.51,17.51,0,0,0,0-3.47c-.75-3.25-2-6.43-2.4-9.71a167.39,167.39,0,0,1-.65-16.78c2.25,10.9,3.63,22,8.67,31.87l-4-1.52c.17,1.48,0,3.11.57,4.39,1.43,3.14,3.21,6.11,4.8,9.05C902.19,451.25,901.67,446.05,897,445Zm143.18,293.1c-2.76-6.81-5.58-13.59-8.35-20.3,4.43,2,5.82,4.12,6.81,10.35a24.88,24.88,0,0,0,1.64,5.89c2.91-2.53.72-6.14,1.92-9.19l3.3,1.87c-.85,5.58-1.67,11.3-2.63,17a2.43,2.43,0,0,1-1.64,1.54c-2.4.3-4.31.14-5.78-2.67-3.76-7.14-8.57-13.75-12-21-3-6.25-4.62-13.12-6.39-19.9a164.7,164.7,0,0,0,22.43,38.75l.93-.06A8.2,8.2,0,0,0,1040.22,738.14ZM1115.86,457c.22-.91-.33-2-.52-3a12.89,12.89,0,0,0-2.3,1.72,31.49,31.49,0,0,1-3.71,4.19c1.06-2.84,2.26-5.63,3.09-8.53a6.12,6.12,0,0,0-.57-3.51c-.08-.21-1.62.13-2.7.24,5.78-7.62,6-17,8.34-25.77q-1.08,8.46-2.17,16.93c-.17,1.31-.53,2.6-.58,3.91a18.52,18.52,0,0,0,.39,3.2c1.26-.18,2.9.07,3.69-.64a64.12,64.12,0,0,0,5.41-6c-.6,10.3-4.92,19.64-11.5,28.72C1113.9,464.24,1115,460.65,1115.86,457ZM894.09,491.46c-2.07-1.68-4.13-3.35-6.16-5.08-5.28-4.52-9-10.24-12.39-16.22-4-7.14-8-14.28-9.76-21.59l16.52,20.32c-4.16-3.5-6.92-8.45-11.51-11.46L870,458a8.76,8.76,0,0,0,.59,1.77c8.6,14.68,20.13,26.9,32.53,38.34,1.31,1.21,2.65,4.05,5.5,2.2.11-.07.64.31.82.58,1,1.43,1.87,2.89,2.8,4.34l-.58.55Q902.9,498.61,894.09,491.46Zm80.48,167.59-5.76,4.07c-2.23-3.89-4.38-7.66-6.9-12l3.28-3.62c.85,4.46-1.51,9.57,5.13,10.73,0-2.11-.11-4,0-6,.19-2.69,1.41-3.21,3-2.14C973.79,653.33,974.16,656,974.57,659.05ZM903.39,491.74c-2.58-4.3-5.22-8.56-7.71-12.91-1.27-2.23-2.22-4.64-3.47-6.88-.37-.66-1.27-1-1.93-1.51l-.6.56c-.43-3.13-.87-6.27-1.31-9.4l.85-.17C891.85,472.56,898.48,481.7,903.39,491.74Zm77.23-49.07c5.23,1.12,9,3.62,10.75,9.26C987.07,449.42,982.69,447.62,980.62,442.67Zm51.83,198.79,9.68,3.31C1036.93,648.18,1035.11,647.62,1032.45,641.46Zm81.48-141.41,4.9-8.49,2.33,1.48ZM1051.08,658.6l1.33-1.87c-.52.52-1,1-1.55,1.57l5.34,4,.4-.28ZM891,475.84l1.3,3.76-.28.18-2.32-2.95Z"/><path class="cls-2" d="M400.18,339.23c1.33,7,1.33,14.13-1.5,20.91-3.61,8.66-7.43,17.24-10.92,25.95a49.87,49.87,0,0,0-2.52,9.6c-.6,3.29-.77,6.66-1.13,10l-.74.17c-2.27-4.43-4.5-8.88-6.82-13.29-5.18-9.85-3.47-20.58-3.81-31.92a13.33,13.33,0,0,0-1.92,2.07c-.74,1.49-1.21,3.12-2,4.56a35.63,35.63,0,0,0-4.45,19.33,80.47,80.47,0,0,0,2.5,17.47c1.95,7.43,4.76,14.64,7.31,21.91a45.63,45.63,0,0,1,2.39,18.57,40,40,0,0,1-1.22,5.55,10.13,10.13,0,0,1-1.57-1.36c-3.91-5.73-8.24-11.24-11.53-17.31-2.52-4.62-3.69-10-5.55-15-.25-.67-1-1.15-1.55-1.71a6,6,0,0,0-1.1,1.84c-.31,1.82-.3,3.7-.63,5.52a77,77,0,0,0-.36,24.71c1.41,9.73,3.84,19.28,9.06,27.84s10.46,17,17.57,24.07c5.26,5.23,11,10,16.46,15l-2.09-.51c-10.41-2.63-18.44-8.43-23.72-17.89-1.41-2.53-2.81-5.07-4.36-7.52-.35-.56-1.27-.77-2.21-1.3.56,6.44.68,12.23,1.66,17.87,1.41,8.19,3.35,16.3,5.25,24.41,2.83,12.06,9.61,22,17.53,31.17,6.88,8,16.33,12.09,26,15.73,10.36,3.92,21.32,5,32.1,7,14.43,2.61,26,9.47,33.54,22.38,1.65,2.83,3.08,6,2.17,9.33a33.35,33.35,0,0,1-4.2,9.86c-2.78,4.08-6.31,7.64-9.6,11.35a3,3,0,0,1-2.06.88c-2.2,0-4.4-.42-6.6-.45-6-.1-9.64,2.5-11.3,7.89-.45,1.46-1.23,2-2.69,1.78a19,19,0,0,0-4.19-.5c-10.13.85-16.63,6.4-20.05,15.81-2.9,8-2.55,16.19-1.63,24.43a53.55,53.55,0,0,0,9.49,24.85c4.66,6.72,9.9,13,14.65,19.7,1.54,2.16,2.8,2.37,5.2,1.52,12.1-4.31,24-9.07,34.14-16.84,1.88,2.81,3.55,5.6,5.49,8.18q6.51,8.67,13.28,17.13c.74.91,2.23,1.21,3.37,1.78a16.2,16.2,0,0,0-.77-3.81c-3.19-6.57-6.54-13.06-9.77-19.6-1.77-3.58-3.45-7.22-1.86-11.36,1.14-3,2.32-5.94,5.06-8.25,1.12,6.44,3,12.3,6.44,17.25,4.92,7.08,10.57,13.66,15.95,20.42,2.28,2.87,15.18,15.12,17.89,18.38-1.48-2.55,6.48-2.12,5.5-4.19a4.09,4.09,0,0,1,.12-2.64c.19-.63.92-1.07,1.25-1.68,2.36-4.39,4.64-8.83,7.05-13.2.29-.54,1.13-.78,1.72-1.15a8.83,8.83,0,0,1,.36,1.74,7,7,0,0,1-.33,1.52q-.74,3.62-1.48,7.24l1.09.42c2.71-2.45,3.21-6.36,5.29-9.06l13.4,3.82c1.69.48,3.23.26,4.23-1.33,4.84-7.64,10-15.09,14.36-23a58.12,58.12,0,0,0,7.15-31.65,51.42,51.42,0,0,0-2.77-15.54c-3.45-9.23-10.89-17.62-23.06-16.6a3.45,3.45,0,0,1-4-2.43,8,8,0,0,0-6.09-5c-1.54-.26-1.86-.94-2.46-2.14s-2.2-3.25-3.08-3.11c-3.76.58-5.91-1.93-7.7-4.08-3.86-4.65-7.23-9.74-10.62-14.76-5.35-7.94-4.59-16.53,3.54-22,5.56-3.7,10.8-7.9,16.5-11.37,4.38-2.67,9-5.31,13.93-6.61,10.07-2.69,20.38-4.44,30.58-6.63a37.13,37.13,0,0,0,19.83-10.86,70.61,70.61,0,0,0,16.74-30.46c3.33-12.16,6.18-24.46,9.19-36.71.68-2.8,1.14-5.65,1.7-8.47l-1-.57c-7.07,11.93-13.84,24.16-28.92,28.46,4.32-5.12,8.39-9.79,12.28-14.6,2.88-3.56,6-7.06,8.15-11a169,169,0,0,0,8.1-17.68c4.94-12.14,8.3-24.59,6.14-37.9q-.71-4.34-1.39-8.65l-.85-.2c-6.21,13.18-10.19,27.8-23.41,36.95a17.84,17.84,0,0,1-.63-4.05c.4-4.3.86-8.6,1.56-12.86.85-5.1,1.54-10.29,3.07-15.2,3.29-10.54,6.92-20.91,8.38-32,1.14-8.74-1.16-16.18-5.59-23.32-.34-.56-1.14-.84-1.72-1.25l-.76.27c3.31,16.18-1.48,30-11.69,42.83a11.75,11.75,0,0,1-1.36-2.93c-.63-5-1.1-10-1.68-15-.38-3.33-.48-6.75-1.38-9.95-2.7-9.61-5.63-19.15-8.67-28.66-1.53-4.8-2.46-9.54-1.29-14.56,1.23-5.3,2.33-10.63,3.42-15.95a8.13,8.13,0,0,0-.47-2.4c-3.46,3.39-6.88,5.9-9.17,9.2a27.12,27.12,0,0,0-4.46,15.24c-.13,7.35,0,14.71-.07,22.07a29.16,29.16,0,0,1-.62,4.23l-.7.42c-16.24-29.54-40.8-46.24-74.37-49a3.77,3.77,0,0,0,1.84,1.72c2.54,1.21,5.13,2.3,7.66,3.54,9.73,4.76,18.25,11.33,26.35,18.38a86.34,86.34,0,0,1,23.49,33c2.82,6.9,3.16,14.14,3.31,21.31s-1.11,14.13-1.4,21.21a38.69,38.69,0,0,1-5.19,18.25c-1.88-4.45-4-8.56-8.95-11.2.33,3.52.71,6.31.83,9.11a52.38,52.38,0,0,1,0,9.29c-.86,6.32-4.25,11.69-7.42,17a38.45,38.45,0,0,1-13.16,13.61c-6.8,4.13-13.6,8.28-18.95,14.34-6.51,7.37-11.33,15.57-12.52,25.73-4-8.21-3.75-16.46-1.21-24.8.54-1.79,1.63-1.57,2.67-.3.8,1,1.59,2,2.38,3l.68-.21.6-12.53c4.86.68,4.54,5.57,7.11,8.83,1.85-5.3-.59-9.87-.55-14.77l6.65,4.41c.71-5-2.13-8.11-4.1-11.68a23.35,23.35,0,0,1,4.47.84c1.27.29,2.56.46,3.84.69a23.75,23.75,0,0,0-1.52-4.14,9.38,9.38,0,0,0-2.64-2.65c-1.57-1.13-3.28-2.07-4.92-3.09,4.81.39,8.39-1.19,10.48-5.51a14.84,14.84,0,0,0,.75-3.38,15.52,15.52,0,0,0-3.43.21c-5.37,1.6-10.9,2.41-16-.06s-9.95-5.84-14.92-8.8c-2.17-1.3-4.31-3.41-6.59-3.6-3.49-.3-4.87-2.44-6.52-4.73-1-1.35-1.79-2.95-3.06-3.92-7.7-5.87-22.34-1.89-22.79,7.9,0,.14.15.29.31.55l2.2-.24c.22,1.06.39,2.1.64,3.12,1,4.05,2.59,7.43,6.6,9.65A57.11,57.11,0,0,1,489.29,465a12.15,12.15,0,0,1,3.29,13.79A58.48,58.48,0,0,1,483,495.36c-4.26,5.21-4.37,5.28-7.94-.4a67.14,67.14,0,0,0-15.72-17.72,146.94,146.94,0,0,1-16.48-14.42c-5-5.24-8.09-11.6-7.73-19.35.26-5.68-.25-11.41-.5-17.11,0-.63-.67-1.24-1-1.86a6.89,6.89,0,0,0-1.05,1.6c-.45,1.51-.67,3.09-1.14,4.59-.86,2.74-1.87,5.41-4.46,7.38-1.12-4-2.16-7.64-3.21-11.32-2-7.14-3.68-14.42-3.48-21.84A110.2,110.2,0,0,1,422.53,386c1.23-6.07,2.75-12.18,6.37-17.45,5.47-8,12.24-14.71,19.43-21.12,8.95-8,19.21-13.57,30.26-17.95a33.44,33.44,0,0,0,3.93-2.15l-.19-.71a21.39,21.39,0,0,0-2.51-.2c-3.92.14-7.83.44-11.74.5a40,40,0,0,0-16.71,4.34c-5.83,2.76-11.43,5.9-16.11,10.46-4.1,4-8.36,7.81-12.3,11.95-4.58,4.81-8.9,9.88-13.55,15.08.38-4,1-7.59,1-11.18-.08-5.77-.59-11.53-1-17.29-.32-4.17-1.21-8.35-4-11.53-3-3.45-6.6-6.35-9.92-9.52C397,324.08,399.25,334.29,400.18,339.23ZM588.79,503c-3.1,6.12-6.21,12.27-8.89,18.59-1.1,2.6-1.2,5.65-1.59,8.52-.36,2.55,1.38,3.81,3.48,3.65a22.46,22.46,0,0,0,8.42-1.84,32.39,32.39,0,0,1,15.08-3.54c4.75,0,9.7-.19,14.19-1.53s8.38-4.2,12.64-6.45c-3.09,6.44-6,13.36-9.63,19.86A43.35,43.35,0,0,1,602.06,559a64.13,64.13,0,0,1-14.66,4.13c-7.73,1.4-15.53,2.42-23.34,3.24-5.48.57-10.87,1.26-15.8,3.87-2.8,1.48-5.49,3.17-8.48,4.91a8.91,8.91,0,0,1-.5-2.32c.61-11.68-2.7-22.41-8.14-32.53-1.93-3.6-1.73-7.25-1.5-10.92.54-8.76,4.73-16,11-21.74a44.9,44.9,0,0,1,12.94-8.09c8-3.32,14.64-7.69,18.08-16a52.74,52.74,0,0,1,4.47-8.16c-1.14,3.06-2.37,6.08-3.39,9.18a79.45,79.45,0,0,0-2.39,8.63c-.5,2.4-.46,5,1.78,6.56s5.1,2.14,7.54.63c4.8-3,9.38-6.28,14-9.46.85-.59,1.66-1.23,2.78-2.07C593.75,493.83,591.14,498.35,588.79,503ZM382.34,521.72c5.69,4,11.66,7.33,18.68,8.24,8.26,1.07,16.44.85,24.34-2.07a5.28,5.28,0,0,0,3.57-4.84,32.9,32.9,0,0,0-2.26-14.86,119.19,119.19,0,0,0-13.42-24.92c2.82,1.5,6,3.26,9.3,4.89a10.58,10.58,0,0,0,3.26,1c7,.9,9-3.06,7.53-9.33a31.76,31.76,0,0,0-3.74-8.1c-2.28-4-3-8-1.41-12.37,1,3.71,1.78,7.4,2.94,11,1.62,5,5.41,8.51,9.27,11.78,9,7.64,18.65,14.59,26.57,23.5.94,1.07,1.14,1.7.1,2.88a48.78,48.78,0,0,0-12,27.7c-.44,4.32-.88,8.65-1,13-.33,8.22,1.81,15.92,5.49,23.22q.76,1.53,1.5,3.09a3.8,3.8,0,0,1,.07.89c-4.53-1.09-8.94-2.18-13.37-3.2a134.63,134.63,0,0,1-31.1-10.9c-6.87-3.51-13.15-8.26-19.42-12.82a50,50,0,0,1-14.93-18.12c-2.14-4.19-3.88-8.58-5.79-12.88l.65-.46C378.83,519.23,380.58,520.49,382.34,521.72Zm114,84.48c-8.42-15.18-15.85-30.79-19-48.07-2.35-12.77-1.27-25,4.86-36.69a52.55,52.55,0,0,1,15.23-17.61c-1,1.54-1.95,3.07-2.89,4.63s-2,3.36-2.93,5.05c-3.47,6-6.51,12.31-5.84,19.51.89,9.64,2.69,19.07,9,27,1.91,2.39,4,2.74,5.82.27a44.83,44.83,0,0,0,3.45-6.7c1.47,6.42.49,16.66-3,24.44-.61,1.35-.45,3-.64,4.59,1.54-.81,3.53-1.24,4.55-2.47,5-6,7.33-8.7,6.92-18.24,2.41,8.67,1.87,15.32-1.88,23.41a5.39,5.39,0,0,0-.58,1.75,11.25,11.25,0,0,0,.21,2.06,5.57,5.57,0,0,0,1.75-.77,28.6,28.6,0,0,0,9.1-18.63c.19-2.09.49-4.18.81-6.84.59,3,1.2,5.41,1.56,7.9.47,3.33,1.21,6.71,1,10a87.7,87.7,0,0,1-2.13,14.12,150.44,150.44,0,0,1-14.47,38.55c-.13.23-.22.49-.51,1.16C505.55,623.81,501.2,615,496.35,606.2Zm8.47-66.33c-.4-1-1.89-2.3-2.61-2.16a4.24,4.24,0,0,0-2.74,2.52c-1,3.52-1.56,7.16-2.24,10.51-8.68-14.59-5.64-27.34,2.91-39.26-2.55,7.51.68,13.36,4.24,19.3a101.09,101.09,0,0,1,5.62,11.9c1.4,3.25-.53,6.09-1,8.72C507.59,547.51,506.35,543.63,504.82,539.87ZM393.19,445c0,5.81,2.83,10.34,4.84,15.57a28.2,28.2,0,0,1-11-15.49c-2-7-3.32-14.19-4.95-21.3-.13-.58-.3-1.16-.65-2.48,2,3.7,3.41,6.9,5.35,9.76s4.09,5.75,8.06,7.69a17.64,17.64,0,0,0,0-3.47c-.76-3.25-2.05-6.43-2.4-9.71a167.39,167.39,0,0,1-.65-16.78c2.25,10.9,3.63,22,8.66,31.87l-4-1.52c.17,1.48,0,3.11.57,4.39,1.42,3.14,3.21,6.11,4.8,9.05C398.34,451.25,397.82,446.05,393.19,445Zm143.17,293.1c-2.75-6.81-5.57-13.59-8.34-20.3,4.43,2,5.81,4.12,6.81,10.35a24.88,24.88,0,0,0,1.64,5.89c2.91-2.53.71-6.14,1.92-9.19l3.3,1.87c-.85,5.58-1.67,11.3-2.64,17a2.4,2.4,0,0,1-1.63,1.54c-2.4.3-4.31.14-5.79-2.67-3.75-7.14-8.56-13.75-12-21-3-6.25-4.61-13.12-6.38-19.9a165,165,0,0,0,22.42,38.75l.94-.06A8.19,8.19,0,0,0,536.36,738.14ZM612,457c.22-.91-.33-2-.52-3a12.89,12.89,0,0,0-2.3,1.72,32.22,32.22,0,0,1-3.71,4.19c1-2.84,2.26-5.63,3.09-8.53a6.12,6.12,0,0,0-.57-3.51c-.09-.21-1.63.13-2.71.24,5.79-7.62,6-17,8.35-25.77q-1.08,8.46-2.18,16.93c-.17,1.31-.53,2.6-.58,3.91a18.54,18.54,0,0,0,.4,3.2c1.25-.18,2.9.07,3.69-.64a67,67,0,0,0,5.41-6c-.6,10.3-4.93,19.64-11.5,28.72C610.05,464.24,611.15,460.65,612,457ZM390.23,491.46c-2.06-1.68-4.13-3.35-6.15-5.08-5.28-4.52-9-10.24-12.39-16.22-4-7.14-8.05-14.28-9.76-21.59l16.51,20.32c-4.15-3.5-6.91-8.45-11.5-11.46l-.75.54a8.76,8.76,0,0,0,.59,1.77c8.6,14.68,20.13,26.9,32.53,38.34,1.31,1.21,2.65,4.05,5.5,2.2.11-.07.64.31.82.58,1,1.43,1.87,2.89,2.8,4.34l-.58.55Zm80.49,167.59L465,663.12l-6.9-12c.66-.74,1.79-2,3.28-3.62.85,4.46-1.51,9.57,5.12,10.73,0-2.11-.1-4,0-6,.18-2.69,1.41-3.21,3-2.14C469.94,653.33,470.3,656,470.72,659.05ZM399.53,491.74c-2.57-4.3-5.21-8.56-7.7-12.91-1.27-2.23-2.22-4.64-3.47-6.88-.37-.66-1.27-1-1.93-1.51l-.6.56c-.44-3.13-.87-6.27-1.31-9.4l.85-.17C388,472.56,394.63,481.7,399.53,491.74Zm77.24-49.07c5.23,1.12,9,3.62,10.75,9.26C483.22,449.42,478.83,447.62,476.77,442.67Zm51.82,198.79,9.68,3.31C533.07,648.18,531.26,647.62,528.59,641.46Zm81.49-141.41c1.45-2.51,3.23-5.61,4.9-8.49l2.33,1.48ZM547.22,658.6l1.33-1.87c-.51.52-1,1-1.54,1.57l5.34,4,.4-.28ZM387.12,475.84l1.3,3.76-.28.18-2.33-2.95Z"/><path class="cls-2" d="M-103.67,339.23c1.32,7,1.33,14.13-1.5,20.91-3.62,8.66-7.43,17.24-10.92,25.95a49.15,49.15,0,0,0-2.52,9.6c-.6,3.29-.77,6.66-1.13,10l-.74.17c-2.27-4.43-4.51-8.88-6.82-13.29-5.18-9.85-3.47-20.58-3.81-31.92a13.33,13.33,0,0,0-1.92,2.07c-.75,1.49-1.21,3.12-2,4.56a35.63,35.63,0,0,0-4.45,19.33,79.86,79.86,0,0,0,2.5,17.47c2,7.43,4.76,14.64,7.31,21.91a45.63,45.63,0,0,1,2.39,18.57,41.48,41.48,0,0,1-1.22,5.55,9.85,9.85,0,0,1-1.58-1.36c-3.9-5.73-8.23-11.24-11.53-17.31-2.51-4.62-3.68-10-5.54-15-.25-.67-1-1.15-1.55-1.71a6,6,0,0,0-1.1,1.84c-.31,1.82-.3,3.7-.63,5.52a76.76,76.76,0,0,0-.36,24.71c1.41,9.73,3.84,19.28,9.06,27.84s10.45,17,17.57,24.07c5.26,5.23,10.94,10,16.45,15l-2.08-.51c-10.42-2.63-18.44-8.43-23.72-17.89-1.41-2.53-2.81-5.07-4.36-7.52-.35-.56-1.27-.77-2.21-1.3.56,6.44.68,12.23,1.65,17.87,1.42,8.19,3.36,16.3,5.26,24.41,2.83,12.06,9.6,22,17.52,31.17,6.89,8,16.34,12.09,26,15.73,10.36,3.92,21.32,5,32.1,7,14.43,2.61,26,9.47,33.54,22.38,1.65,2.83,3.07,6,2.17,9.33a33.35,33.35,0,0,1-4.2,9.86c-2.78,4.08-6.31,7.64-9.6,11.35a3,3,0,0,1-2.06.88c-2.2,0-4.4-.42-6.6-.45-6-.1-9.64,2.5-11.3,7.89a2.14,2.14,0,0,1-2.7,1.78,18.81,18.81,0,0,0-4.19-.5c-10.12.85-16.62,6.4-20,15.81-2.9,8-2.55,16.19-1.63,24.43a53.64,53.64,0,0,0,9.48,24.85c4.67,6.72,9.91,13,14.66,19.7,1.54,2.16,2.79,2.37,5.19,1.52,12.11-4.31,24-9.07,34.15-16.84,1.87,2.81,3.55,5.6,5.49,8.18Q-8.76,731.56-2,740c.73.91,2.23,1.21,3.37,1.78A15.71,15.71,0,0,0,.61,738c-3.18-6.57-6.53-13.06-9.76-19.6-1.77-3.58-3.45-7.22-1.86-11.36,1.14-3,2.31-5.94,5.06-8.25,1.12,6.44,3,12.3,6.44,17.25,4.92,7.08,10.56,13.66,16,20.42,2.28,2.87,15.18,15.12,17.89,18.38-1.48-2.55,6.48-2.12,5.5-4.19A4.09,4.09,0,0,1,40,748c.18-.63.92-1.07,1.25-1.68,2.35-4.39,4.64-8.83,7-13.2.3-.54,1.14-.78,1.73-1.15a9.61,9.61,0,0,1,.36,1.74,7,7,0,0,1-.33,1.52q-.75,3.62-1.48,7.24l1.09.42c2.71-2.45,3.21-6.36,5.28-9.06l13.41,3.82c1.69.48,3.23.26,4.23-1.33,4.84-7.64,10-15.09,14.36-23A58.12,58.12,0,0,0,94,681.67a51.72,51.72,0,0,0-2.77-15.54c-3.46-9.23-10.89-17.62-23.06-16.6-2,.17-3.22-.41-4-2.43a8,8,0,0,0-6.09-5c-1.54-.26-1.86-.94-2.46-2.14s-2.2-3.25-3.08-3.11c-3.77.58-5.91-1.93-7.7-4.08C41,628.09,37.6,623,34.21,618c-5.35-7.94-4.59-16.53,3.54-22,5.56-3.7,10.8-7.9,16.5-11.37,4.38-2.67,9-5.31,13.93-6.61,10.07-2.69,20.38-4.44,30.58-6.63a37.13,37.13,0,0,0,19.83-10.86,70.61,70.61,0,0,0,16.74-30.46c3.33-12.16,6.18-24.46,9.18-36.71.69-2.8,1.15-5.65,1.71-8.47l-1-.57c-7.07,11.93-13.85,24.16-28.93,28.46,4.33-5.12,8.4-9.79,12.29-14.6,2.88-3.56,6-7.06,8.15-11a169,169,0,0,0,8.1-17.68c4.94-12.14,8.3-24.59,6.14-37.9q-.7-4.34-1.39-8.65l-.85-.2c-6.21,13.18-10.19,27.8-23.42,36.95a17.23,17.23,0,0,1-.62-4.05c.4-4.3.85-8.6,1.56-12.86.85-5.1,1.53-10.29,3.07-15.2,3.29-10.54,6.92-20.91,8.37-32,1.15-8.74-1.15-16.18-5.58-23.32-.34-.56-1.14-.84-1.72-1.25l-.76.27c3.31,16.18-1.48,30-11.69,42.83a11.75,11.75,0,0,1-1.36-2.93c-.63-5-1.1-10-1.68-15-.39-3.33-.49-6.75-1.38-9.95-2.7-9.61-5.63-19.15-8.67-28.66-1.53-4.8-2.46-9.54-1.29-14.56,1.23-5.3,2.33-10.63,3.42-15.95a8.48,8.48,0,0,0-.47-2.4c-3.46,3.39-6.88,5.9-9.18,9.2a27.28,27.28,0,0,0-4.46,15.24c-.12,7.35,0,14.71-.06,22.07a29.16,29.16,0,0,1-.62,4.23l-.7.42c-16.25-29.54-40.8-46.24-74.37-49A3.77,3.77,0,0,0,19,328.53c2.54,1.21,5.13,2.3,7.66,3.54,9.72,4.76,18.25,11.33,26.35,18.38a86.34,86.34,0,0,1,23.49,33c2.81,6.9,3.16,14.14,3.3,21.31s-1.1,14.13-1.4,21.21a38.56,38.56,0,0,1-5.18,18.25c-1.89-4.45-4-8.56-9-11.2.33,3.52.71,6.31.83,9.11a52.38,52.38,0,0,1,0,9.29c-.86,6.32-4.25,11.69-7.42,17a38.62,38.62,0,0,1-13.16,13.61c-6.8,4.13-13.6,8.28-19,14.34C19,503.76,14.17,512,13,522.12c-4-8.21-3.75-16.46-1.21-24.8.54-1.79,1.62-1.57,2.66-.3.81,1,1.6,2,2.39,3l.68-.21.6-12.53c4.86.68,4.54,5.57,7.1,8.83,1.86-5.3-.59-9.87-.54-14.77l6.65,4.41c.71-5-2.13-8.11-4.1-11.68a23.35,23.35,0,0,1,4.47.84c1.27.29,2.56.46,3.84.69A23.75,23.75,0,0,0,34,471.44a9.29,9.29,0,0,0-2.65-2.65c-1.56-1.13-3.27-2.07-4.92-3.09,4.81.39,8.39-1.19,10.48-5.51a14.85,14.85,0,0,0,.76-3.38,15.52,15.52,0,0,0-3.43.21c-5.37,1.6-10.9,2.41-16-.06s-9.95-5.84-14.92-8.8c-2.17-1.3-4.31-3.41-6.6-3.6-3.48-.3-4.86-2.44-6.51-4.73-1-1.35-1.79-2.95-3.07-3.92-7.69-5.87-22.33-1.89-22.79,7.9,0,.14.16.29.32.55l2.2-.24c.22,1.06.39,2.1.64,3.12,1,4.05,2.59,7.43,6.6,9.65A57.11,57.11,0,0,1-14.56,465a12.13,12.13,0,0,1,3.28,13.79,58.21,58.21,0,0,1-9.54,16.62c-4.26,5.21-4.37,5.28-7.94-.4a67.14,67.14,0,0,0-15.72-17.72A147.93,147.93,0,0,1-61,462.82c-5-5.24-8.08-11.6-7.73-19.35.26-5.68-.24-11.41-.49-17.11,0-.63-.67-1.24-1-1.86a6.58,6.58,0,0,0-1,1.6c-.46,1.51-.67,3.09-1.14,4.59-.86,2.74-1.87,5.41-4.46,7.38-1.12-4-2.16-7.64-3.21-11.32-2-7.14-3.69-14.42-3.48-21.84A110.2,110.2,0,0,1-81.32,386c1.23-6.07,2.75-12.18,6.37-17.45,5.47-8,12.23-14.71,19.43-21.12,9-8,19.21-13.57,30.26-17.95a34.25,34.25,0,0,0,3.93-2.15l-.19-.71a21.39,21.39,0,0,0-2.52-.2c-3.91.14-7.82.44-11.73.5a40,40,0,0,0-16.71,4.34c-5.83,2.76-11.44,5.9-16.12,10.46-4.09,4-8.35,7.81-12.29,11.95-4.58,4.81-8.9,9.88-13.55,15.08.38-4,1-7.59,1-11.18-.09-5.77-.59-11.53-1-17.29-.32-4.17-1.21-8.35-4-11.53-3-3.45-6.6-6.35-9.92-9.52C-106.83,324.08-104.6,334.29-103.67,339.23ZM84.93,503c-3.1,6.12-6.2,12.27-8.88,18.59-1.1,2.6-1.2,5.65-1.6,8.52-.35,2.55,1.39,3.81,3.49,3.65,2.85-.21,5.93-.57,8.41-1.84a32.43,32.43,0,0,1,15.09-3.54c4.75,0,9.69-.19,14.19-1.53s8.37-4.2,12.64-6.45c-3.09,6.44-6,13.36-9.63,19.86A43.35,43.35,0,0,1,98.21,559a64.07,64.07,0,0,1-14.67,4.13c-7.72,1.4-15.52,2.42-23.33,3.24-5.48.57-10.87,1.26-15.81,3.87-2.79,1.48-5.48,3.17-8.47,4.91a8.91,8.91,0,0,1-.5-2.32c.6-11.68-2.71-22.41-8.14-32.53-1.93-3.6-1.73-7.25-1.5-10.92.54-8.76,4.73-16,11-21.74a44.77,44.77,0,0,1,12.94-8.09c8-3.32,14.64-7.69,18.08-16a51.91,51.91,0,0,1,4.47-8.16c-1.14,3.06-2.38,6.08-3.4,9.18a81.73,81.73,0,0,0-2.38,8.63c-.5,2.4-.47,5,1.77,6.56s5.11,2.14,7.55.63c4.79-3,9.38-6.28,14-9.46.85-.59,1.66-1.23,2.78-2.07C89.89,493.83,87.29,498.35,84.93,503Zm-206.44,18.72c5.69,4,11.66,7.33,18.68,8.24,8.26,1.07,16.44.85,24.34-2.07a5.3,5.3,0,0,0,3.57-4.84,32.9,32.9,0,0,0-2.26-14.86A119.19,119.19,0,0,0-90.6,483.27c2.82,1.5,6,3.26,9.29,4.89a10.72,10.72,0,0,0,3.27,1c7,.9,9-3.06,7.53-9.33a31.76,31.76,0,0,0-3.74-8.1c-2.28-4-3-8-1.41-12.37,1,3.71,1.78,7.4,2.93,11,1.62,5,5.42,8.51,9.28,11.78,9,7.64,18.65,14.59,26.57,23.5.94,1.07,1.14,1.7.1,2.88a48.71,48.71,0,0,0-12,27.7c-.45,4.32-.88,8.65-1,13-.33,8.22,1.81,15.92,5.49,23.22q.77,1.53,1.5,3.09a4.52,4.52,0,0,1,.07.89c-4.53-1.09-8.94-2.18-13.37-3.2a134.63,134.63,0,0,1-31.1-10.9c-6.87-3.51-13.15-8.26-19.42-12.82a50,50,0,0,1-14.93-18.12c-2.14-4.19-3.88-8.58-5.79-12.88l.65-.46C-125,519.23-123.27,520.49-121.51,521.72Zm114,84.48c-8.42-15.18-15.85-30.79-19-48.07-2.35-12.77-1.28-25,4.86-36.69A52.52,52.52,0,0,1-6.44,503.83c-1,1.54-1.94,3.07-2.88,4.63s-2,3.36-2.93,5.05c-3.47,6-6.51,12.31-5.84,19.51.89,9.64,2.69,19.07,9,27,1.91,2.39,4,2.74,5.82.27a45.8,45.8,0,0,0,3.45-6.7c1.47,6.42.49,16.66-3,24.44-.61,1.35-.44,3-.63,4.59,1.54-.81,3.52-1.24,4.55-2.47,5-6,7.32-8.7,6.91-18.24,2.42,8.67,1.88,15.32-1.87,23.41A5.39,5.39,0,0,0,5.52,587a11.25,11.25,0,0,0,.21,2.06,5.57,5.57,0,0,0,1.75-.77,28.6,28.6,0,0,0,9.1-18.63c.19-2.09.49-4.18.81-6.84.59,3,1.2,5.41,1.56,7.9.47,3.33,1.21,6.71,1,10a87.7,87.7,0,0,1-2.13,14.12A150.44,150.44,0,0,1,3.36,633.45c-.13.23-.22.49-.51,1.16C1.7,623.81-2.66,615-7.5,606.2ZM1,539.87c-.4-1-1.88-2.3-2.6-2.16a4.24,4.24,0,0,0-2.74,2.52c-1,3.52-1.57,7.16-2.25,10.51-8.68-14.59-5.63-27.34,2.92-39.26C-6.26,519-3,524.84.53,530.78a101.09,101.09,0,0,1,5.62,11.9c1.4,3.25-.54,6.09-1,8.72C3.74,547.51,2.5,543.63,1,539.87ZM-110.66,445c0,5.81,2.83,10.34,4.84,15.57a28.15,28.15,0,0,1-11-15.49c-2-7-3.33-14.19-5-21.3-.13-.58-.3-1.16-.65-2.48,2,3.7,3.41,6.9,5.35,9.76s4.09,5.75,8.06,7.69a17.64,17.64,0,0,0,0-3.47c-.76-3.25-2-6.43-2.4-9.71a164.47,164.47,0,0,1-.65-16.78c2.25,10.9,3.63,22,8.66,31.87l-4-1.52c.16,1.48,0,3.11.56,4.39,1.43,3.14,3.22,6.11,4.8,9.05C-105.51,451.25-106,446.05-110.66,445ZM32.51,738.14c-2.76-6.81-5.58-13.59-8.34-20.3,4.42,2,5.81,4.12,6.81,10.35a24.88,24.88,0,0,0,1.64,5.89c2.91-2.53.71-6.14,1.91-9.19l3.3,1.87c-.84,5.58-1.66,11.3-2.63,17a2.39,2.39,0,0,1-1.64,1.54c-2.39.3-4.3.14-5.78-2.67-3.76-7.14-8.56-13.75-12-21-3-6.25-4.62-13.12-6.38-19.9a165,165,0,0,0,22.42,38.75l.94-.06A8.19,8.19,0,0,0,32.51,738.14ZM108.16,457c.22-.91-.33-2-.53-3a12.81,12.81,0,0,0-2.29,1.72,32.22,32.22,0,0,1-3.71,4.19c1.05-2.84,2.26-5.63,3.09-8.53a6.12,6.12,0,0,0-.57-3.51c-.09-.21-1.63.13-2.71.24,5.78-7.62,6-17,8.35-25.77q-1.08,8.46-2.18,16.93c-.17,1.31-.53,2.6-.58,3.91a18.54,18.54,0,0,0,.4,3.2c1.25-.18,2.9.07,3.69-.64a65.42,65.42,0,0,0,5.4-6c-.59,10.3-4.92,19.64-11.49,28.72C106.2,464.24,107.3,460.65,108.16,457Zm-221.78,34.46c-2.06-1.68-4.13-3.35-6.15-5.08-5.28-4.52-9-10.24-12.39-16.22-4-7.14-8.06-14.28-9.77-21.59,5.21,6.41,10.87,13.36,16.52,20.32-4.15-3.5-6.91-8.45-11.5-11.46l-.76.54a9.45,9.45,0,0,0,.6,1.77c8.6,14.68,20.13,26.9,32.53,38.34,1.3,1.21,2.65,4.05,5.5,2.2.11-.07.64.31.82.58,1,1.43,1.87,2.89,2.8,4.34l-.58.55Zm80.49,167.59-5.76,4.07-6.9-12,3.27-3.62c.85,4.46-1.5,9.57,5.13,10.73,0-2.11-.1-4,0-6,.18-2.69,1.4-3.21,3-2.14C-33.92,653.33-33.55,656-33.13,659.05Zm-71.19-167.31c-2.57-4.3-5.21-8.56-7.7-12.91-1.28-2.23-2.22-4.64-3.47-6.88-.37-.66-1.27-1-1.93-1.51l-.6.56c-.44-3.13-.87-6.27-1.31-9.4l.85-.17C-115.86,472.56-109.22,481.7-104.32,491.74Zm77.23-49.07c5.24,1.12,9,3.62,10.76,9.26C-20.64,449.42-25,447.62-27.09,442.67ZM24.74,641.46l9.68,3.31C29.22,648.18,27.41,647.62,24.74,641.46Zm81.49-141.41,4.89-8.49,2.34,1.48ZM43.37,658.6l1.33-1.87c-.51.52-1,1-1.54,1.57l5.34,4,.4-.28Zm-160.1-182.76,1.3,3.76-.28.18-2.33-2.95Z"/><path class="cls-2" d="M652.11-197.44c1.32,7,1.33,14.13-1.5,20.91-3.62,8.66-7.44,17.24-10.93,25.95a50.6,50.6,0,0,0-2.52,9.6c-.6,3.29-.77,6.66-1.13,10l-.74.17c-2.27-4.43-4.5-8.88-6.81-13.29-5.18-9.84-3.47-20.58-3.81-31.91a12.47,12.47,0,0,0-1.92,2.06c-.75,1.49-1.22,3.13-2,4.56a35.73,35.73,0,0,0-4.46,19.33,79.88,79.88,0,0,0,2.51,17.47c2,7.43,4.76,14.64,7.31,21.91a45.67,45.67,0,0,1,2.39,18.57,40.11,40.11,0,0,1-1.23,5.55,10.13,10.13,0,0,1-1.57-1.36c-3.91-5.73-8.23-11.24-11.53-17.3-2.51-4.63-3.68-10-5.54-15-.25-.67-1-1.15-1.55-1.71a6,6,0,0,0-1.1,1.84c-.32,1.82-.31,3.7-.63,5.52A76.77,76.77,0,0,0,605-89.83c1.41,9.73,3.84,19.28,9,27.84s10.46,17,17.57,24.08c5.27,5.22,10.95,10,16.46,15l-2.09-.51C635.53-26,627.5-31.81,622.23-41.27c-1.41-2.53-2.82-5.07-4.36-7.52-.36-.57-1.27-.78-2.21-1.31.56,6.45.68,12.23,1.65,17.87,1.42,8.19,3.35,16.31,5.26,24.41,2.83,12.06,9.6,22,17.52,31.18,6.89,8,16.34,12.08,26,15.73,10.36,3.91,21.32,5,32.1,7,14.43,2.61,26,9.47,33.54,22.38,1.65,2.83,3.07,6,2.17,9.33a33.38,33.38,0,0,1-4.21,9.86c-2.77,4.08-6.31,7.64-9.59,11.35a3,3,0,0,1-2.06.88c-2.2,0-4.4-.42-6.6-.45-6-.1-9.64,2.51-11.31,7.9a2.13,2.13,0,0,1-2.69,1.77,18.81,18.81,0,0,0-4.19-.5c-10.13.86-16.62,6.4-20,15.81-2.91,8-2.55,16.19-1.63,24.43A53.6,53.6,0,0,0,681,173.66c4.67,6.72,9.91,13,14.66,19.7,1.54,2.16,2.79,2.38,5.19,1.52,12.1-4.3,24-9.07,34.15-16.84,1.87,2.82,3.54,5.6,5.48,8.18,4.34,5.78,8.76,11.51,13.29,17.13.73.91,2.22,1.21,3.36,1.79a15.23,15.23,0,0,0-.77-3.82c-3.18-6.57-6.53-13.06-9.76-19.6-1.77-3.58-3.45-7.22-1.86-11.36,1.14-3,2.31-5.94,5.06-8.25,1.12,6.44,3,12.3,6.44,17.25,4.91,7.09,10.56,13.66,15.94,20.42,2.28,2.87,15.19,15.12,17.9,18.38-1.49-2.55,6.48-2.12,5.49-4.19a4.1,4.1,0,0,1,.13-2.64c.18-.62.92-1.06,1.24-1.67,2.36-4.4,4.65-8.83,7-13.21.3-.53,1.14-.77,1.73-1.15a9.79,9.79,0,0,1,.36,1.74,7.67,7.67,0,0,1-.33,1.52c-.5,2.41-1,4.83-1.48,7.24l1.09.42c2.71-2.44,3.2-6.35,5.28-9.06,4.5,1.29,9,2.56,13.41,3.82,1.69.48,3.22.26,4.23-1.33,4.83-7.64,10-15.09,14.35-23A58.11,58.11,0,0,0,849.82,145a51.66,51.66,0,0,0-2.77-15.53c-3.46-9.24-10.89-17.62-23.06-16.61-2,.17-3.22-.41-4-2.43a8,8,0,0,0-6.09-5c-1.55-.26-1.86-.94-2.46-2.14s-2.2-3.25-3.08-3.11c-3.77.58-5.92-1.93-7.7-4.08A180.33,180.33,0,0,1,790,81.31c-5.36-7.94-4.59-16.52,3.54-22,5.56-3.7,10.8-7.9,16.5-11.37,4.38-2.67,9-5.31,13.93-6.61,10.07-2.69,20.38-4.44,30.58-6.63A37.15,37.15,0,0,0,874.36,23.9,70.56,70.56,0,0,0,891.11-6.57c3.32-12.16,6.18-24.46,9.18-36.71.69-2.8,1.14-5.65,1.71-8.47l-1-.56C894-40.39,887.17-28.16,872.09-23.86c4.33-5.12,8.4-9.79,12.29-14.6,2.87-3.56,6-7.06,8.15-11a168.06,168.06,0,0,0,8.1-17.68c4.94-12.14,8.3-24.59,6.14-37.9-.47-2.88-.93-5.77-1.39-8.65l-.85-.19c-6.21,13.17-10.19,27.79-23.42,36.94a17.84,17.84,0,0,1-.63-4c.4-4.3.86-8.6,1.57-12.85.84-5.1,1.53-10.3,3.06-15.21,3.3-10.54,6.93-20.91,8.38-32,1.15-8.74-1.15-16.18-5.58-23.33-.34-.56-1.14-.84-1.73-1.24l-.75.27c3.31,16.17-1.48,30-11.7,42.82a12,12,0,0,1-1.35-2.93c-.63-5-1.1-10-1.68-15-.39-3.33-.49-6.75-1.38-9.94-2.7-9.61-5.63-19.16-8.67-28.67-1.53-4.8-2.46-9.54-1.29-14.56,1.23-5.3,2.33-10.62,3.42-16a8.3,8.3,0,0,0-.48-2.4c-3.45,3.39-6.88,5.9-9.17,9.2a27.24,27.24,0,0,0-4.46,15.24c-.13,7.36,0,14.72-.06,22.07a29.29,29.29,0,0,1-.62,4.24l-.71.41c-16.24-29.54-40.8-46.24-74.36-49a3.79,3.79,0,0,0,1.84,1.73c2.54,1.2,5.13,2.3,7.65,3.53,9.73,4.76,18.26,11.33,26.36,18.38a86.42,86.42,0,0,1,23.49,33c2.81,6.9,3.16,14.14,3.3,21.31s-1.1,14.13-1.4,21.22A38.74,38.74,0,0,1,829-92.45c-1.89-4.46-4-8.56-9-11.21.33,3.52.71,6.31.83,9.11a52.38,52.38,0,0,1-.05,9.29c-.86,6.32-4.25,11.69-7.42,17a38.62,38.62,0,0,1-13.16,13.61c-6.8,4.13-13.6,8.29-19,14.34-6.51,7.37-11.33,15.57-12.52,25.73-4-8.2-3.76-16.46-1.22-24.8.55-1.79,1.63-1.57,2.67-.3.81,1,1.59,2,2.39,3l.67-.21q.3-6.27.61-12.53c4.86.69,4.54,5.57,7.1,8.83,1.85-5.29-.59-9.87-.54-14.77l6.65,4.41C787.8-56,785-59,783-62.62a23.32,23.32,0,0,1,4.48.84c1.26.29,2.56.46,3.83.69a22.94,22.94,0,0,0-1.51-4.14,9.38,9.38,0,0,0-2.65-2.64c-1.57-1.14-3.27-2.08-4.92-3.1,4.81.39,8.39-1.19,10.48-5.5a14.94,14.94,0,0,0,.76-3.39,15.52,15.52,0,0,0-3.43.21c-5.38,1.6-10.9,2.41-16-.06s-10-5.84-14.92-8.8c-2.18-1.29-4.31-3.4-6.6-3.6-3.48-.29-4.86-2.44-6.51-4.72-1-1.35-1.79-3-3.07-3.93-7.69-5.87-22.34-1.89-22.79,7.9,0,.14.16.29.31.55l2.21-.24c.21,1.07.39,2.1.63,3.12,1,4.05,2.6,7.43,6.6,9.65a57.58,57.58,0,0,1,11.38,8.06,12.14,12.14,0,0,1,3.28,13.8A58.38,58.38,0,0,1,735-41.3c-4.25,5.21-4.36,5.27-7.93-.41A67.32,67.32,0,0,0,711.3-59.43a146.16,146.16,0,0,1-16.49-14.42c-5-5.23-8.08-11.6-7.73-19.34.26-5.69-.24-11.41-.5-17.12,0-.63-.67-1.24-1-1.86a6.45,6.45,0,0,0-1,1.61c-.46,1.5-.68,3.08-1.15,4.58-.85,2.74-1.86,5.41-4.45,7.38-1.12-4-2.16-7.64-3.21-11.32-2-7.14-3.69-14.42-3.48-21.83a110.2,110.2,0,0,1,2.24-18.9c1.23-6.07,2.75-12.18,6.37-17.45,5.47-8,12.23-14.71,19.43-21.12,8.94-8,19.21-13.57,30.26-17.94a34.92,34.92,0,0,0,3.92-2.16l-.19-.71a21.05,21.05,0,0,0-2.51-.2c-3.91.15-7.82.45-11.73.5a39.93,39.93,0,0,0-16.71,4.34c-5.84,2.77-11.44,5.9-16.12,10.46-4.09,4-8.35,7.81-12.29,12-4.58,4.81-8.9,9.88-13.55,15.08.38-4,1-7.59,1-11.18-.09-5.77-.59-11.53-1-17.28-.31-4.18-1.21-8.36-4-11.54-3-3.45-6.6-6.35-9.92-9.52C649-212.59,651.18-202.38,652.11-197.44ZM840.71-33.67c-3.1,6.13-6.2,12.27-8.88,18.59-1.11,2.6-1.2,5.65-1.6,8.52-.35,2.55,1.39,3.81,3.49,3.65,2.85-.21,5.93-.57,8.41-1.84a32.29,32.29,0,0,1,15.08-3.53c4.75,0,9.7-.19,14.19-1.54S879.78-14,884-16.27c-3.08,6.44-6,13.37-9.63,19.87A43.31,43.31,0,0,1,854,22.32a64.07,64.07,0,0,1-14.67,4.13c-7.72,1.41-15.53,2.43-23.33,3.24-5.49.57-10.88,1.26-15.81,3.87-2.79,1.48-5.48,3.17-8.47,4.92a9,9,0,0,1-.5-2.32c.6-11.68-2.71-22.42-8.14-32.54C781.14,0,781.34-3.63,781.56-7.3c.55-8.76,4.74-16,11-21.74a44.85,44.85,0,0,1,12.93-8.09c8-3.32,14.64-7.69,18.09-16a51.11,51.11,0,0,1,4.47-8.16c-1.14,3.06-2.38,6.09-3.4,9.18a81.3,81.3,0,0,0-2.39,8.64c-.5,2.39-.46,5,1.78,6.55s5.11,2.14,7.54.63c4.8-3,9.38-6.28,14-9.46.85-.58,1.65-1.23,2.77-2.07C845.67-42.83,843.06-38.32,840.71-33.67ZM634.27-14.95C640-11,645.93-7.62,653-6.71c8.25,1.07,16.43.86,24.33-2.06a5.31,5.31,0,0,0,3.58-4.85,32.92,32.92,0,0,0-2.26-14.86,118.68,118.68,0,0,0-13.43-24.91c2.83,1.49,6,3.25,9.3,4.88a10,10,0,0,0,3.27,1c7,.9,9-3.06,7.53-9.33a32.27,32.27,0,0,0-3.74-8.1c-2.28-4-3-8-1.42-12.37,1,3.72,1.79,7.4,2.94,11,1.62,5,5.42,8.52,9.28,11.78,9,7.64,18.65,14.59,26.56,23.5,1,1.07,1.15,1.7.11,2.89A48.66,48.66,0,0,0,707-.5c-.45,4.32-.88,8.65-1.05,13-.33,8.23,1.81,15.92,5.49,23.22.51,1,1,2.06,1.49,3.09a3.33,3.33,0,0,1,.07.89c-4.52-1.08-8.93-2.18-13.36-3.2a134.63,134.63,0,0,1-31.1-10.9c-6.87-3.51-13.15-8.25-19.42-12.82A50.14,50.14,0,0,1,634.14-5.35c-2.14-4.18-3.87-8.58-5.79-12.87l.65-.46C630.76-17.44,632.5-16.18,634.27-14.95Zm114,84.49c-8.41-15.19-15.84-30.8-19-48.08-2.34-12.76-1.27-25,4.87-36.69a52.52,52.52,0,0,1,15.22-17.61c-1,1.54-1.94,3.08-2.88,4.64s-2,3.35-2.93,5c-3.48,6.05-6.51,12.32-5.85,19.51.9,9.65,2.7,19.07,9,27,1.91,2.39,4,2.75,5.81.27a43.45,43.45,0,0,0,3.45-6.7c1.48,6.42.5,16.66-3,24.44-.61,1.35-.44,3.05-.64,4.59,1.55-.8,3.53-1.24,4.56-2.47,5-6,7.32-8.7,6.91-18.24,2.42,8.67,1.88,15.33-1.87,23.41a5.39,5.39,0,0,0-.58,1.75,10.44,10.44,0,0,0,.21,2.06,5.57,5.57,0,0,0,1.75-.77A28.64,28.64,0,0,0,772.36,33c.18-2.1.49-4.18.8-6.84.6,2.95,1.21,5.4,1.56,7.89.48,3.33,1.22,6.71,1,10a87.52,87.52,0,0,1-2.12,14.12,150.67,150.67,0,0,1-14.47,38.55c-.13.24-.22.49-.52,1.17C757.48,87.14,753.12,78.28,748.27,69.54ZM756.74,3.2c-.4-1-1.88-2.3-2.6-2.16a4.31,4.31,0,0,0-2.75,2.52c-1,3.52-1.56,7.16-2.24,10.51-8.68-14.58-5.63-27.34,2.92-39.26-2.55,7.51.68,13.36,4.23,19.3A101.09,101.09,0,0,1,761.92,6c1.41,3.26-.53,6.09-1,8.72C759.52,10.84,758.28,7,756.74,3.2ZM645.12-91.62c0,5.8,2.82,10.34,4.83,15.56a28.19,28.19,0,0,1-11-15.48c-2-7-3.33-14.2-5-21.3-.14-.59-.3-1.17-.65-2.48,2,3.69,3.41,6.9,5.34,9.75s4.1,5.76,8.07,7.69a18.33,18.33,0,0,0,0-3.46c-.76-3.26-2.06-6.43-2.41-9.72-.59-5.55-.61-11.17-.65-16.78,2.26,10.9,3.64,22,8.67,31.87l-4-1.51c.16,1.47,0,3.1.56,4.39,1.43,3.13,3.22,6.1,4.8,9C650.27-85.42,649.75-90.61,645.12-91.62ZM788.29,201.47c-2.76-6.81-5.58-13.59-8.35-20.3,4.43,2,5.82,4.12,6.81,10.35a25.23,25.23,0,0,0,1.64,5.89c2.91-2.53.72-6.14,1.92-9.19l3.3,1.87c-.84,5.58-1.66,11.3-2.63,17a2.4,2.4,0,0,1-1.64,1.53c-2.39.31-4.31.14-5.78-2.66-3.76-7.14-8.57-13.76-12-21-3-6.25-4.62-13.12-6.39-19.9a165.39,165.39,0,0,0,22.43,38.75l.94-.06A8.19,8.19,0,0,0,788.29,201.47ZM863.94-79.67c.21-.91-.33-2-.53-3a12.4,12.4,0,0,0-2.29,1.73,33.58,33.58,0,0,1-3.71,4.18c1.05-2.83,2.25-5.63,3.09-8.53a6.05,6.05,0,0,0-.58-3.51c-.08-.21-1.62.14-2.7.24,5.78-7.62,6-17,8.35-25.77-.73,5.64-1.44,11.29-2.18,16.93-.17,1.31-.53,2.6-.58,3.91a19.42,19.42,0,0,0,.39,3.2c1.26-.18,2.91.07,3.69-.63a65.4,65.4,0,0,0,5.41-6c-.6,10.29-4.92,19.63-11.49,28.71C862-72.43,863.08-76,863.94-79.67ZM642.16-45.21c-2.06-1.68-4.13-3.35-6.15-5.08-5.28-4.52-9-10.24-12.39-16.22-4-7.14-8.06-14.28-9.77-21.59,5.21,6.41,10.87,13.36,16.52,20.32-4.16-3.5-6.92-8.45-11.5-11.46l-.76.54a8.78,8.78,0,0,0,.6,1.77c8.6,14.68,20.12,26.91,32.53,38.35,1.3,1.2,2.65,4,5.49,2.19.11-.07.64.31.83.58,1,1.43,1.87,2.89,2.8,4.34l-.58.55Zm80.49,167.59-5.76,4.07-6.9-12,3.27-3.62c.85,4.46-1.5,9.57,5.13,10.73,0-2.1-.11-4,0-6,.18-2.69,1.4-3.21,3-2.14C721.86,116.66,722.23,119.34,722.65,122.38ZM651.46-44.92c-2.58-4.3-5.21-8.57-7.7-12.92-1.28-2.23-2.22-4.64-3.48-6.88-.36-.66-1.27-1-1.92-1.51l-.6.56c-.44-3.13-.88-6.27-1.31-9.4l.85-.17C639.92-64.11,646.56-55,651.46-44.92ZM728.69-94c5.24,1.12,9,3.62,10.76,9.27C735.14-87.24,730.76-89,728.69-94Zm51.83,198.79,9.68,3.31C785,111.51,783.19,111,780.52,104.79ZM862-36.62l4.9-8.48,2.34,1.47ZM799.15,121.93l1.33-1.87-1.55,1.57,5.34,4,.41-.28ZM639.05-60.82c.44,1.26.86,2.51,1.29,3.76l-.27.17-2.33-2.94Z"/><path class="cls-2" d="M148.26-197.44c1.32,7,1.33,14.13-1.5,20.91-3.62,8.66-7.44,17.24-10.93,25.95a50.6,50.6,0,0,0-2.52,9.6c-.6,3.29-.77,6.66-1.13,10l-.74.17c-2.27-4.43-4.5-8.88-6.82-13.29-5.17-9.84-3.46-20.58-3.81-31.91a12.73,12.73,0,0,0-1.91,2.06c-.75,1.49-1.22,3.13-2,4.56a35.64,35.64,0,0,0-4.46,19.33,79.88,79.88,0,0,0,2.51,17.47c2,7.43,4.76,14.64,7.31,21.91a45.66,45.66,0,0,1,2.38,18.57,38.57,38.57,0,0,1-1.22,5.55,10.13,10.13,0,0,1-1.57-1.36c-3.91-5.73-8.23-11.24-11.53-17.3-2.51-4.63-3.69-10-5.54-15-.25-.67-1-1.15-1.56-1.71a6,6,0,0,0-1.09,1.84c-.32,1.82-.31,3.7-.64,5.52a77.05,77.05,0,0,0-.35,24.71c1.41,9.73,3.84,19.28,9.05,27.84s10.46,17,17.57,24.08c5.26,5.22,10.95,10,16.46,15l-2.09-.51c-10.41-2.63-18.44-8.42-23.71-17.88-1.41-2.53-2.82-5.07-4.36-7.52-.36-.57-1.28-.78-2.21-1.31.56,6.45.67,12.23,1.65,17.87,1.42,8.19,3.35,16.31,5.26,24.41,2.83,12.06,9.6,22,17.52,31.18,6.89,8,16.34,12.08,26,15.73,10.35,3.91,21.32,5,32.1,7,14.43,2.61,26,9.47,33.54,22.38,1.65,2.83,3.07,6,2.16,9.33a33.1,33.1,0,0,1-4.2,9.86C223,91.7,219.5,95.26,216.21,99a3,3,0,0,1-2.05.88c-2.21,0-4.4-.42-6.6-.45-6-.1-9.64,2.51-11.31,7.9a2.13,2.13,0,0,1-2.69,1.77,18.88,18.88,0,0,0-4.19-.5c-10.13.86-16.62,6.4-20,15.81-2.91,8-2.55,16.19-1.63,24.43a53.49,53.49,0,0,0,9.48,24.85c4.67,6.72,9.9,13,14.66,19.7,1.53,2.16,2.79,2.38,5.19,1.52,12.1-4.3,23.95-9.07,34.15-16.84,1.87,2.82,3.54,5.6,5.48,8.18C241,192,245.42,197.73,250,203.35c.73.91,2.22,1.21,3.36,1.79a15.23,15.23,0,0,0-.77-3.82c-3.19-6.57-6.53-13.06-9.77-19.6-1.76-3.58-3.45-7.22-1.86-11.36,1.15-3,2.32-5.94,5.07-8.25,1.12,6.44,3,12.3,6.44,17.25,4.91,7.09,10.56,13.66,15.94,20.42,2.28,2.87,15.18,15.12,17.9,18.38-1.49-2.55,6.48-2.12,5.49-4.19a4.16,4.16,0,0,1,.12-2.64c.19-.62.92-1.06,1.25-1.67,2.36-4.4,4.65-8.83,7.05-13.21.3-.53,1.14-.77,1.72-1.15a9,9,0,0,1,.36,1.74,7.64,7.64,0,0,1-.32,1.52c-.5,2.41-1,4.83-1.48,7.24l1.09.42c2.71-2.44,3.2-6.35,5.28-9.06l13.4,3.82c1.7.48,3.23.26,4.24-1.33,4.83-7.64,10-15.09,14.35-23A58,58,0,0,0,346,145a51.35,51.35,0,0,0-2.77-15.53c-3.45-9.24-10.88-17.62-23.05-16.61-2,.17-3.22-.41-4.05-2.43a8,8,0,0,0-6.1-5c-1.54-.26-1.85-.94-2.46-2.14s-2.19-3.25-3.07-3.11c-3.77.58-5.92-1.93-7.7-4.08a180.33,180.33,0,0,1-10.62-14.76c-5.36-7.94-4.59-16.52,3.54-22,5.55-3.7,10.8-7.9,16.49-11.37,4.38-2.67,9-5.31,13.94-6.61,10.06-2.69,20.38-4.44,30.58-6.63A37.15,37.15,0,0,0,370.51,23.9,70.66,70.66,0,0,0,387.26-6.57c3.32-12.16,6.18-24.46,9.18-36.71.69-2.8,1.14-5.65,1.7-8.47l-1-.56c-7.07,11.92-13.85,24.15-28.93,28.45,4.32-5.12,8.4-9.79,12.29-14.6,2.87-3.56,6-7.06,8.15-11a170.12,170.12,0,0,0,8.1-17.68c4.94-12.14,8.3-24.59,6.14-37.9-.47-2.88-.93-5.77-1.39-8.65l-.85-.19c-6.22,13.17-10.2,27.79-23.42,36.94a17.84,17.84,0,0,1-.63-4c.4-4.3.86-8.6,1.57-12.85.84-5.1,1.53-10.3,3.06-15.21,3.29-10.54,6.93-20.91,8.38-32,1.14-8.74-1.15-16.18-5.58-23.33-.35-.56-1.14-.84-1.73-1.24l-.75.27c3.3,16.17-1.49,30-11.7,42.82a12.13,12.13,0,0,1-1.36-2.93c-.62-5-1.09-10-1.67-15-.39-3.33-.49-6.75-1.39-9.94-2.7-9.61-5.62-19.16-8.66-28.67-1.54-4.8-2.47-9.54-1.3-14.56,1.24-5.3,2.33-10.62,3.43-16a8.3,8.3,0,0,0-.48-2.4c-3.45,3.39-6.88,5.9-9.17,9.2a27.24,27.24,0,0,0-4.46,15.24c-.13,7.36,0,14.72-.06,22.07a30.74,30.74,0,0,1-.62,4.24l-.71.41c-16.24-29.54-40.8-46.24-74.37-49a3.88,3.88,0,0,0,1.84,1.73c2.54,1.2,5.14,2.3,7.66,3.53,9.73,4.76,18.25,11.33,26.35,18.38a86.31,86.31,0,0,1,23.49,33c2.82,6.9,3.17,14.14,3.31,21.31s-1.1,14.13-1.4,21.22a38.74,38.74,0,0,1-5.18,18.25c-1.89-4.46-4-8.56-8.95-11.21.33,3.52.71,6.31.83,9.11a53.34,53.34,0,0,1-.05,9.29c-.86,6.32-4.26,11.69-7.42,17a38.62,38.62,0,0,1-13.16,13.61c-6.81,4.13-13.6,8.29-18.95,14.34-6.52,7.37-11.33,15.57-12.52,25.73-4-8.2-3.76-16.46-1.22-24.8.55-1.79,1.63-1.57,2.67-.3l2.39,3,.67-.21.6-12.53c4.87.69,4.54,5.57,7.11,8.83,1.85-5.29-.59-9.87-.55-14.77l6.66,4.41c.71-5-2.13-8.11-4.11-11.68a23.32,23.32,0,0,1,4.48.84c1.26.29,2.55.46,3.83.69a22.94,22.94,0,0,0-1.51-4.14,9.38,9.38,0,0,0-2.65-2.64C281.71-69,280-69.95,278.36-71c4.81.39,8.39-1.19,10.48-5.5a14.41,14.41,0,0,0,.75-3.39,15.46,15.46,0,0,0-3.42.21c-5.38,1.6-10.91,2.41-16.05-.06s-9.95-5.84-14.91-8.8c-2.18-1.29-4.31-3.4-6.6-3.6-3.49-.29-4.86-2.44-6.51-4.72-1-1.35-1.79-3-3.07-3.93-7.7-5.87-22.34-1.89-22.79,7.9,0,.14.16.29.31.55l2.21-.24c.21,1.07.39,2.1.63,3.12,1,4.05,2.6,7.43,6.6,9.65a57.58,57.58,0,0,1,11.38,8.06,12.14,12.14,0,0,1,3.28,13.8A58.38,58.38,0,0,1,231.1-41.3c-4.26,5.21-4.36,5.27-7.94-.41a67.14,67.14,0,0,0-15.72-17.72A146.94,146.94,0,0,1,191-73.85c-5-5.23-8.08-11.6-7.73-19.34.26-5.69-.24-11.41-.5-17.12,0-.63-.67-1.24-1-1.86a6.79,6.79,0,0,0-1.06,1.61c-.45,1.5-.67,3.08-1.14,4.58-.85,2.74-1.87,5.41-4.45,7.38-1.13-4-2.17-7.64-3.22-11.32-2-7.14-3.68-14.42-3.48-21.83a111.2,111.2,0,0,1,2.24-18.9c1.24-6.07,2.76-12.18,6.37-17.45,5.47-8,12.24-14.71,19.44-21.12,8.94-8,19.21-13.57,30.25-17.94a34.19,34.19,0,0,0,3.93-2.16l-.19-.71a21.39,21.39,0,0,0-2.51-.2c-3.91.15-7.82.45-11.74.5a39.93,39.93,0,0,0-16.7,4.34c-5.84,2.77-11.44,5.9-16.12,10.46-4.09,4-8.35,7.81-12.29,12-4.59,4.81-8.9,9.88-13.55,15.08.38-4,1-7.59,1-11.18-.08-5.77-.58-11.53-1-17.28-.31-4.18-1.21-8.36-4-11.54-3-3.45-6.6-6.35-9.92-9.52C145.1-212.59,147.32-202.38,148.26-197.44ZM336.86-33.67c-3.1,6.13-6.2,12.27-8.89,18.59-1.1,2.6-1.19,5.65-1.59,8.52C326-4,327.77-2.75,329.87-2.91c2.85-.21,5.93-.57,8.41-1.84a32.29,32.29,0,0,1,15.08-3.53c4.75,0,9.7-.19,14.19-1.54s8.38-4.2,12.64-6.45c-3.09,6.44-6,13.37-9.63,19.87a43.31,43.31,0,0,1-20.42,18.72,64.07,64.07,0,0,1-14.67,4.13c-7.72,1.41-15.53,2.43-23.33,3.24-5.49.57-10.88,1.26-15.81,3.87-2.8,1.48-5.48,3.17-8.48,4.92a9,9,0,0,1-.49-2.32c.6-11.68-2.71-22.42-8.14-32.54C277.28,0,277.48-3.63,277.71-7.3c.55-8.76,4.74-16,11-21.74a45,45,0,0,1,12.94-8.09c8-3.32,14.64-7.69,18.09-16a51.85,51.85,0,0,1,4.46-8.16c-1.14,3.06-2.37,6.09-3.39,9.18a81.3,81.3,0,0,0-2.39,8.64c-.5,2.39-.46,5,1.78,6.55s5.11,2.14,7.54.63c4.8-3,9.38-6.28,14-9.46.86-.58,1.66-1.23,2.78-2.07C341.82-42.83,339.21-38.32,336.86-33.67ZM130.42-14.95c5.68,4,11.66,7.33,18.68,8.24,8.25,1.07,16.43.86,24.33-2.06A5.28,5.28,0,0,0,177-13.62a33.05,33.05,0,0,0-2.25-14.86,118.68,118.68,0,0,0-13.43-24.91c2.83,1.49,6,3.25,9.3,4.88a10,10,0,0,0,3.27,1c7,.9,9-3.06,7.53-9.33a32.27,32.27,0,0,0-3.74-8.1c-2.28-4-3-8-1.42-12.37,1,3.72,1.79,7.4,2.94,11,1.62,5,5.42,8.52,9.27,11.78,9,7.64,18.66,14.59,26.57,23.5,1,1.07,1.15,1.7.11,2.89a48.66,48.66,0,0,0-12,27.69c-.45,4.32-.88,8.65-1.06,13a47,47,0,0,0,5.49,23.22q.78,1.55,1.5,3.09a3.87,3.87,0,0,1,.07.89c-4.52-1.08-8.94-2.18-13.36-3.2a134.63,134.63,0,0,1-31.1-10.9c-6.87-3.51-13.15-8.25-19.43-12.82A50.12,50.12,0,0,1,130.29-5.35c-2.14-4.18-3.87-8.58-5.79-12.87l.65-.46C126.91-17.44,128.65-16.18,130.42-14.95Zm114,84.49c-8.42-15.19-15.84-30.8-19-48.08-2.34-12.76-1.27-25,4.87-36.69a52.41,52.41,0,0,1,15.22-17.61c-1,1.54-2,3.08-2.88,4.64s-2,3.35-2.93,5c-3.48,6.05-6.51,12.32-5.85,19.51.9,9.65,2.69,19.07,9,27,1.92,2.39,4,2.75,5.82.27a43.45,43.45,0,0,0,3.45-6.7c1.48,6.42.49,16.66-3,24.44-.61,1.35-.45,3.05-.64,4.59,1.54-.8,3.53-1.24,4.55-2.47,5-6,7.33-8.7,6.92-18.24,2.41,8.67,1.87,15.33-1.88,23.41a5.61,5.61,0,0,0-.57,1.75,10.42,10.42,0,0,0,.2,2.06,5.53,5.53,0,0,0,1.76-.77A28.58,28.58,0,0,0,268.5,33c.19-2.1.49-4.18.81-6.84.6,2.95,1.21,5.4,1.56,7.89.48,3.33,1.22,6.71,1,10a87.52,87.52,0,0,1-2.12,14.12,150.32,150.32,0,0,1-14.48,38.55c-.12.24-.21.49-.51,1.17C253.63,87.14,249.27,78.28,244.42,69.54ZM252.89,3.2c-.4-1-1.88-2.3-2.61-2.16a4.27,4.27,0,0,0-2.74,2.52c-1,3.52-1.56,7.16-2.24,10.51-8.68-14.58-5.63-27.34,2.92-39.26-2.55,7.51.68,13.36,4.23,19.3A101.09,101.09,0,0,1,258.07,6c1.41,3.26-.53,6.09-1,8.72C255.67,10.84,254.43,7,252.89,3.2ZM141.26-91.62c0,5.8,2.83,10.34,4.84,15.56a28.19,28.19,0,0,1-11-15.48c-2-7-3.33-14.2-5-21.3-.14-.59-.31-1.17-.65-2.48,2,3.69,3.41,6.9,5.34,9.75s4.09,5.76,8.07,7.69a17.39,17.39,0,0,0,0-3.46c-.75-3.26-2-6.43-2.4-9.72-.59-5.55-.61-11.17-.65-16.78,2.26,10.9,3.63,22,8.67,31.87l-4-1.51c.17,1.47,0,3.1.57,4.39,1.43,3.13,3.21,6.1,4.8,9C146.42-85.42,145.9-90.61,141.26-91.62ZM284.44,201.47c-2.76-6.81-5.58-13.59-8.35-20.3,4.43,2,5.82,4.12,6.81,10.35a25.23,25.23,0,0,0,1.64,5.89c2.91-2.53.72-6.14,1.92-9.19l3.3,1.87c-.84,5.58-1.66,11.3-2.63,17a2.42,2.42,0,0,1-1.64,1.53c-2.4.31-4.31.14-5.78-2.66-3.76-7.14-8.57-13.76-12-21-3-6.25-4.62-13.12-6.39-19.9a165,165,0,0,0,22.43,38.75l.93-.06A8.2,8.2,0,0,0,284.44,201.47ZM360.09-79.67c.21-.91-.33-2-.53-3a12.47,12.47,0,0,0-2.3,1.73,32,32,0,0,1-3.71,4.18c1.06-2.83,2.26-5.63,3.09-8.53a6,6,0,0,0-.57-3.51c-.08-.21-1.62.14-2.7.24,5.78-7.62,6-17,8.35-25.77-.73,5.64-1.44,11.29-2.18,16.93-.17,1.31-.53,2.6-.58,3.91a19.42,19.42,0,0,0,.39,3.2c1.26-.18,2.9.07,3.69-.63a65.4,65.4,0,0,0,5.41-6c-.6,10.29-4.92,19.63-11.49,28.71C358.13-72.43,359.22-76,360.09-79.67ZM138.31-45.21c-2.07-1.68-4.13-3.35-6.15-5.08-5.29-4.52-9-10.24-12.39-16.22-4-7.14-8.06-14.28-9.77-21.59l16.52,20.32c-4.16-3.5-6.92-8.45-11.51-11.46l-.75.54a9.43,9.43,0,0,0,.59,1.77C123.46-62.25,135-50,147.38-38.58c1.31,1.2,2.66,4,5.5,2.19.11-.07.64.31.83.58,1,1.43,1.87,2.89,2.79,4.34l-.57.55ZM218.8,122.38,213,126.45l-6.9-12,3.27-3.62c.85,4.46-1.51,9.57,5.13,10.73,0-2.1-.11-4,0-6,.19-2.69,1.41-3.21,3-2.14C218,116.66,218.38,119.34,218.8,122.38ZM147.61-44.92c-2.58-4.3-5.21-8.57-7.71-12.92-1.27-2.23-2.22-4.64-3.47-6.88-.36-.66-1.27-1-1.93-1.51l-.59.56c-.44-3.13-.88-6.27-1.31-9.4l.85-.17C136.07-64.11,142.71-55,147.61-44.92ZM224.84-94c5.23,1.12,9,3.62,10.76,9.27C231.29-87.24,226.91-89,224.84-94Zm51.83,198.79,9.68,3.31C281.15,111.51,279.34,111,276.67,104.79ZM358.15-36.62l4.9-8.48,2.34,1.47ZM295.3,121.93l1.33-1.87-1.55,1.57,5.34,4,.4-.28ZM135.2-60.82l1.29,3.76-.27.17-2.33-2.94Z"/></pattern></defs><g id="Layer_2" data-name="Layer 2"><rect class="cls-3" width="1140" height="538"/></g></svg>